<svg width="390" height="426" viewBox="0 0 390 426" fill="none" xmlns="http://www.w3.org/2000/svg">
<g clip-path="url(#clip0_311_762)">
<mask id="mask0_311_762" style="mask-type:luminance" maskUnits="userSpaceOnUse" x="0" y="-44" width="420" height="470">
<path d="M419.244 426H0V-43.2656H419.244V426Z" fill="white"/>
</mask>
<g mask="url(#mask0_311_762)">
<g opacity="0.8" filter="url(#filter0_f_311_762)">
<mask id="mask1_311_762" style="mask-type:alpha" maskUnits="userSpaceOnUse" x="24" y="138" width="458" height="263">
<path d="M25.0752 385.163C20.2252 351.027 118.466 271.722 244.502 208.032C370.538 144.341 476.643 120.383 481.493 154.519C486.343 188.656 388.102 267.96 262.066 331.651C136.029 395.341 29.9252 419.3 25.0752 385.163Z" fill="#C4C4C4"/>
</mask>
<g mask="url(#mask1_311_762)">
<g style="mix-blend-mode:multiply" opacity="0.4" filter="url(#filter1_f_311_762)">
<path d="M62.9894 357.836C56.9454 315.296 119.693 246.626 203.139 204.458C286.586 162.289 359.133 162.59 365.177 205.13C371.22 247.67 308.473 316.34 225.027 358.509C141.58 400.677 69.0334 400.376 62.9894 357.836Z" fill="url(#paint0_linear_311_762)"/>
</g>
</g>
</g>
<g opacity="0.8" filter="url(#filter2_f_311_762)">
<mask id="mask2_311_762" style="mask-type:alpha" maskUnits="userSpaceOnUse" x="14" y="-17" width="445" height="256">
<path d="M14.6859 222.987C9.83585 188.851 105.106 111.048 227.477 49.2095C349.848 -12.629 452.981 -35.0859 457.831 -0.949488C462.681 33.1869 367.411 110.99 245.04 172.828C122.669 234.667 19.5359 257.124 14.6859 222.987Z" fill="#C4C4C4"/>
</mask>
<g mask="url(#mask2_311_762)">
<g style="mix-blend-mode:multiply" opacity="0.4" filter="url(#filter3_f_311_762)">
<path d="M45.9855 198.827C39.9415 156.287 102.689 87.6174 186.135 45.4489C269.582 3.28036 342.129 3.58157 348.173 46.1217C354.217 88.6618 291.469 157.332 208.023 199.5C124.576 241.669 52.0295 241.368 45.9855 198.827Z" fill="url(#paint1_linear_311_762)"/>
</g>
</g>
</g>
<g opacity="0.8" filter="url(#filter4_f_311_762)">
<mask id="mask3_311_762" style="mask-type:alpha" maskUnits="userSpaceOnUse" x="-42" y="25" width="577" height="318">
<path d="M-41.3861 329.588C-46.2361 295.452 78.7754 202.619 237.835 122.241C396.894 41.8626 529.769 4.37612 534.619 38.5125C539.469 72.649 414.458 165.482 255.398 245.86C96.3388 326.238 -36.536 363.725 -41.3861 329.588Z" fill="#C4C4C4"/>
</mask>
<g mask="url(#mask3_311_762)">
<g style="mix-blend-mode:multiply" opacity="0.4" filter="url(#filter5_f_311_762)">
<path d="M56.3219 272.046C50.2779 229.506 113.025 160.836 196.472 118.668C279.919 76.4991 352.465 76.8003 358.509 119.34C364.553 161.881 301.806 230.55 218.359 272.719C134.912 314.888 62.3659 314.586 56.3219 272.046Z" fill="url(#paint2_linear_311_762)"/>
</g>
</g>
</g>
</g>
</g>
<defs>
<filter id="filter0_f_311_762" x="23.9913" y="134.432" width="380.183" height="294.103" filterUnits="userSpaceOnUse" color-interpolation-filters="sRGB">
<feFlood flood-opacity="0" result="BackgroundImageFix"/>
<feBlend mode="normal" in="SourceGraphic" in2="BackgroundImageFix" result="shape"/>
<feGaussianBlur stdDeviation="19.2978" result="effect1_foregroundBlur_311_762"/>
</filter>
<filter id="filter1_f_311_762" x="-28.5095" y="81.9308" width="485.185" height="399.105" filterUnits="userSpaceOnUse" color-interpolation-filters="sRGB">
<feFlood flood-opacity="0" result="BackgroundImageFix"/>
<feBlend mode="normal" in="SourceGraphic" in2="BackgroundImageFix" result="shape"/>
<feGaussianBlur stdDeviation="45.5482" result="effect1_foregroundBlur_311_762"/>
</filter>
<filter id="filter2_f_311_762" x="-4.41699" y="-35.9815" width="402.992" height="316.912" filterUnits="userSpaceOnUse" color-interpolation-filters="sRGB">
<feFlood flood-opacity="0" result="BackgroundImageFix"/>
<feBlend mode="normal" in="SourceGraphic" in2="BackgroundImageFix" result="shape"/>
<feGaussianBlur stdDeviation="25" result="effect1_foregroundBlur_311_762"/>
</filter>
<filter id="filter3_f_311_762" x="-68.7746" y="-100.339" width="531.707" height="445.627" filterUnits="userSpaceOnUse" color-interpolation-filters="sRGB">
<feFlood flood-opacity="0" result="BackgroundImageFix"/>
<feBlend mode="normal" in="SourceGraphic" in2="BackgroundImageFix" result="shape"/>
<feGaussianBlur stdDeviation="57.1788" result="effect1_foregroundBlur_311_762"/>
</filter>
<filter id="filter4_f_311_762" x="17.3238" y="48.6417" width="380.183" height="294.103" filterUnits="userSpaceOnUse" color-interpolation-filters="sRGB">
<feFlood flood-opacity="0" result="BackgroundImageFix"/>
<feBlend mode="normal" in="SourceGraphic" in2="BackgroundImageFix" result="shape"/>
<feGaussianBlur stdDeviation="19.2978" result="effect1_foregroundBlur_311_762"/>
</filter>
<filter id="filter5_f_311_762" x="-35.177" y="-3.85909" width="485.185" height="399.105" filterUnits="userSpaceOnUse" color-interpolation-filters="sRGB">
<feFlood flood-opacity="0" result="BackgroundImageFix"/>
<feBlend mode="normal" in="SourceGraphic" in2="BackgroundImageFix" result="shape"/>
<feGaussianBlur stdDeviation="45.5482" result="effect1_foregroundBlur_311_762"/>
</filter>
<linearGradient id="paint0_linear_311_762" x1="203.139" y1="204.458" x2="-151.152" y2="254.794" gradientUnits="userSpaceOnUse">
<stop stop-color="#F14D8C"/>
<stop offset="0.0001" stop-color="#F14D8C" stop-opacity="0.850011"/>
<stop offset="1" stop-color="#F14D8C" stop-opacity="0"/>
</linearGradient>
<linearGradient id="paint1_linear_311_762" x1="186.135" y1="45.4489" x2="-168.156" y2="95.7856" gradientUnits="userSpaceOnUse">
<stop stop-color="#F14D8C"/>
<stop offset="0.225209" stop-color="#F14D8C"/>
<stop offset="1" stop-color="#F14D8C" stop-opacity="0"/>
</linearGradient>
<linearGradient id="paint2_linear_311_762" x1="196.472" y1="118.668" x2="-157.819" y2="169.004" gradientUnits="userSpaceOnUse">
<stop stop-color="#F14D8C"/>
<stop offset="0.225209" stop-color="#F14D8C"/>
<stop offset="1" stop-color="#F14D8C" stop-opacity="0"/>
</linearGradient>
<clipPath id="clip0_311_762">
<rect width="390" height="426" fill="white"/>
</clipPath>
</defs>
</svg>
