<svg width="924" height="654" viewBox="0 0 924 654" fill="none" xmlns="http://www.w3.org/2000/svg">
<g clip-path="url(#clip0_311_710)">
<mask id="mask0_311_710" style="mask-type:luminance" maskUnits="userSpaceOnUse" x="0" y="-67" width="994" height="721">
<path d="M993.285 654H0V-66.4219H993.285V654Z" fill="white"/>
</mask>
<g mask="url(#mask0_311_710)">
<g opacity="0.8" filter="url(#filter0_f_311_710)">
<mask id="mask1_311_710" style="mask-type:alpha" maskUnits="userSpaceOnUse" x="59" y="213" width="1083" height="403">
<path d="M59.4088 591.307C47.918 538.9 280.673 417.151 579.282 319.373C877.891 221.594 1129.28 184.813 1140.77 237.22C1152.26 289.627 919.503 411.376 620.894 509.154C322.285 606.933 70.8996 643.714 59.4088 591.307Z" fill="#C4C4C4"/>
</mask>
<g mask="url(#mask1_311_710)">
<g style="mix-blend-mode:multiply" opacity="0.4" filter="url(#filter1_f_311_710)">
<path d="M149.236 549.354C134.917 484.046 283.579 378.623 481.284 313.885C678.988 249.148 850.868 249.61 865.187 314.918C879.507 380.226 730.844 485.649 533.14 550.387C335.435 615.124 163.556 614.662 149.236 549.354Z" fill="url(#paint0_linear_311_710)"/>
</g>
</g>
</g>
<g opacity="0.8" filter="url(#filter2_f_311_710)">
<mask id="mask2_311_710" style="mask-type:alpha" maskUnits="userSpaceOnUse" x="34" y="-26" width="1052" height="393">
<path d="M34.7943 342.333C23.3035 289.926 249.019 170.482 538.945 75.547C828.871 -19.3881 1073.22 -53.8642 1084.71 -1.45762C1096.2 50.949 870.483 170.393 580.557 265.328C290.631 360.263 46.2851 394.739 34.7943 342.333Z" fill="#C4C4C4"/>
</mask>
<g mask="url(#mask2_311_710)">
<g style="mix-blend-mode:multiply" opacity="0.4" filter="url(#filter3_f_311_710)">
<path d="M108.95 305.242C94.63 239.934 243.293 134.511 440.997 69.7736C638.702 5.036 810.581 5.49841 824.901 70.8065C839.22 136.114 690.558 241.537 492.853 306.275C295.149 371.013 123.269 370.55 108.95 305.242Z" fill="url(#paint1_linear_311_710)"/>
</g>
</g>
</g>
<g opacity="0.8" filter="url(#filter4_f_311_710)">
<mask id="mask3_311_710" style="mask-type:alpha" maskUnits="userSpaceOnUse" x="-99" y="39" width="1366" height="487">
<path d="M-98.0538 505.988C-109.545 453.581 186.636 311.064 563.485 187.666C940.333 64.268 1255.14 6.7184 1266.64 59.125C1278.13 111.532 981.945 254.049 605.097 377.447C228.248 500.845 -86.563 558.394 -98.0538 505.988Z" fill="#C4C4C4"/>
</mask>
<g mask="url(#mask3_311_710)">
<g style="mix-blend-mode:multiply" opacity="0.4" filter="url(#filter5_f_311_710)">
<path d="M133.439 417.648C119.119 352.34 267.782 246.918 465.486 182.18C663.191 117.442 835.07 117.905 849.39 183.213C863.71 248.521 715.047 353.944 517.342 418.681C319.638 483.419 147.758 482.956 133.439 417.648Z" fill="url(#paint2_linear_311_710)"/>
</g>
</g>
</g>
</g>
</g>
<defs>
<filter id="filter0_f_311_710" x="109.687" y="227.038" width="795.049" height="410.197" filterUnits="userSpaceOnUse" color-interpolation-filters="sRGB">
<feFlood flood-opacity="0" result="BackgroundImageFix"/>
<feBlend mode="normal" in="SourceGraphic" in2="BackgroundImageFix" result="shape"/>
<feGaussianBlur stdDeviation="19.2978" result="effect1_foregroundBlur_311_710"/>
</filter>
<filter id="filter1_f_311_710" x="57.1863" y="174.537" width="900.051" height="515.199" filterUnits="userSpaceOnUse" color-interpolation-filters="sRGB">
<feFlood flood-opacity="0" result="BackgroundImageFix"/>
<feBlend mode="normal" in="SourceGraphic" in2="BackgroundImageFix" result="shape"/>
<feGaussianBlur stdDeviation="45.5482" result="effect1_foregroundBlur_311_710"/>
</filter>
<filter id="filter2_f_311_710" x="57.9961" y="-28.4787" width="817.858" height="433.006" filterUnits="userSpaceOnUse" color-interpolation-filters="sRGB">
<feFlood flood-opacity="0" result="BackgroundImageFix"/>
<feBlend mode="normal" in="SourceGraphic" in2="BackgroundImageFix" result="shape"/>
<feGaussianBlur stdDeviation="25" result="effect1_foregroundBlur_311_710"/>
</filter>
<filter id="filter3_f_311_710" x="-6.3615" y="-92.8363" width="946.573" height="561.721" filterUnits="userSpaceOnUse" color-interpolation-filters="sRGB">
<feFlood flood-opacity="0" result="BackgroundImageFix"/>
<feBlend mode="normal" in="SourceGraphic" in2="BackgroundImageFix" result="shape"/>
<feGaussianBlur stdDeviation="57.1788" result="effect1_foregroundBlur_311_710"/>
</filter>
<filter id="filter4_f_311_710" x="93.8898" y="95.332" width="795.049" height="410.197" filterUnits="userSpaceOnUse" color-interpolation-filters="sRGB">
<feFlood flood-opacity="0" result="BackgroundImageFix"/>
<feBlend mode="normal" in="SourceGraphic" in2="BackgroundImageFix" result="shape"/>
<feGaussianBlur stdDeviation="19.2978" result="effect1_foregroundBlur_311_710"/>
</filter>
<filter id="filter5_f_311_710" x="41.389" y="42.8312" width="900.051" height="515.199" filterUnits="userSpaceOnUse" color-interpolation-filters="sRGB">
<feFlood flood-opacity="0" result="BackgroundImageFix"/>
<feBlend mode="normal" in="SourceGraphic" in2="BackgroundImageFix" result="shape"/>
<feGaussianBlur stdDeviation="45.5482" result="effect1_foregroundBlur_311_710"/>
</filter>
<linearGradient id="paint0_linear_311_710" x1="481.284" y1="313.885" x2="-335.777" y2="493.036" gradientUnits="userSpaceOnUse">
<stop stop-color="#F14D8C"/>
<stop offset="0.0001" stop-color="#F14D8C" stop-opacity="0.850011"/>
<stop offset="1" stop-color="#F14D8C" stop-opacity="0"/>
</linearGradient>
<linearGradient id="paint1_linear_311_710" x1="440.997" y1="69.7736" x2="-376.063" y2="248.924" gradientUnits="userSpaceOnUse">
<stop stop-color="#F14D8C"/>
<stop offset="0.225209" stop-color="#F14D8C"/>
<stop offset="1" stop-color="#F14D8C" stop-opacity="0"/>
</linearGradient>
<linearGradient id="paint2_linear_311_710" x1="465.486" y1="182.18" x2="-351.574" y2="361.331" gradientUnits="userSpaceOnUse">
<stop stop-color="#F14D8C"/>
<stop offset="0.225209" stop-color="#F14D8C"/>
<stop offset="1" stop-color="#F14D8C" stop-opacity="0"/>
</linearGradient>
<clipPath id="clip0_311_710">
<rect width="924" height="654" fill="white"/>
</clipPath>
</defs>
</svg>
