<svg width="1268" height="724" viewBox="0 0 1268 724" fill="none" xmlns="http://www.w3.org/2000/svg">
<g clip-path="url(#clip0_301_710)">
<mask id="mask0_301_710" style="mask-type:luminance" maskUnits="userSpaceOnUse" x="0" y="-74" width="1364" height="798">
<path d="M1363.08 724H0V-73.5312H1363.08V724Z" fill="white"/>
</mask>
<g mask="url(#mask0_301_710)">
<g opacity="0.8" filter="url(#filter0_f_301_710)">
<mask id="mask1_301_710" style="mask-type:alpha" maskUnits="userSpaceOnUse" x="80" y="236" width="1487" height="446">
<path d="M81.5258 654.597C65.7571 596.581 385.166 461.8 794.945 353.556C1204.72 245.312 1549.7 204.594 1565.47 262.61C1581.24 320.626 1261.83 455.407 852.049 563.651C442.27 671.895 97.2946 712.613 81.5258 654.597Z" fill="#C4C4C4"/>
</mask>
<g mask="url(#mask1_301_710)">
<g style="mix-blend-mode:multiply" opacity="0.4" filter="url(#filter1_f_301_710)">
<path d="M204.797 608.153C185.146 535.855 389.155 419.148 660.464 347.482C931.772 275.815 1167.64 276.327 1187.29 348.625C1206.94 420.923 1002.93 537.63 731.625 609.297C460.317 680.963 224.447 680.452 204.797 608.153Z" fill="url(#paint0_linear_301_710)"/>
</g>
</g>
</g>
<g opacity="0.8" filter="url(#filter2_f_301_710)">
<mask id="mask2_301_710" style="mask-type:alpha" maskUnits="userSpaceOnUse" x="47" y="-29" width="1443" height="436">
<path d="M47.7486 378.974C31.9799 320.958 341.729 188.73 739.592 83.6331C1137.46 -21.4632 1472.77 -59.6295 1488.54 -1.61361C1504.31 56.4023 1194.56 188.631 796.696 293.727C398.832 398.824 63.5174 436.99 47.7486 378.974Z" fill="#C4C4C4"/>
</mask>
<g mask="url(#mask2_301_710)">
<g style="mix-blend-mode:multiply" opacity="0.4" filter="url(#filter3_f_301_710)">
<path d="M149.513 337.913C129.862 265.615 333.871 148.909 605.18 77.2419C876.488 5.57514 1112.36 6.08706 1132.01 78.3853C1151.66 150.683 947.65 267.39 676.341 339.057C405.032 410.724 169.163 410.212 149.513 337.913Z" fill="url(#paint1_linear_301_710)"/>
</g>
</g>
</g>
<g opacity="0.8" filter="url(#filter4_f_301_710)">
<mask id="mask3_301_710" style="mask-type:alpha" maskUnits="userSpaceOnUse" x="-136" y="44" width="1875" height="538">
<path d="M-134.558 560.145C-150.327 502.13 256.12 344.358 773.267 207.752C1290.41 71.1468 1722.43 7.43739 1738.2 65.4533C1753.97 123.469 1347.52 281.241 830.371 417.846C313.224 554.452 -118.79 618.161 -134.558 560.145Z" fill="#C4C4C4"/>
</mask>
<g mask="url(#mask3_301_710)">
<g style="mix-blend-mode:multiply" opacity="0.4" filter="url(#filter5_f_301_710)">
<path d="M183.118 462.351C163.467 390.053 367.476 273.346 638.785 201.679C910.094 130.013 1145.96 130.524 1165.61 202.823C1185.26 275.121 981.255 391.827 709.947 463.494C438.638 535.161 202.769 534.649 183.118 462.351Z" fill="url(#paint2_linear_301_710)"/>
</g>
</g>
</g>
</g>
</g>
<defs>
<filter id="filter0_f_301_710" x="164.893" y="255.469" width="1062.3" height="445.84" filterUnits="userSpaceOnUse" color-interpolation-filters="sRGB">
<feFlood flood-opacity="0" result="BackgroundImageFix"/>
<feBlend mode="normal" in="SourceGraphic" in2="BackgroundImageFix" result="shape"/>
<feGaussianBlur stdDeviation="19.2978" result="effect1_foregroundBlur_301_710"/>
</filter>
<filter id="filter1_f_301_710" x="112.392" y="202.968" width="1167.31" height="550.842" filterUnits="userSpaceOnUse" color-interpolation-filters="sRGB">
<feFlood flood-opacity="0" result="BackgroundImageFix"/>
<feBlend mode="normal" in="SourceGraphic" in2="BackgroundImageFix" result="shape"/>
<feGaussianBlur stdDeviation="45.5482" result="effect1_foregroundBlur_301_710"/>
</filter>
<filter id="filter2_f_301_710" x="98.2041" y="-26.175" width="1085.11" height="468.649" filterUnits="userSpaceOnUse" color-interpolation-filters="sRGB">
<feFlood flood-opacity="0" result="BackgroundImageFix"/>
<feBlend mode="normal" in="SourceGraphic" in2="BackgroundImageFix" result="shape"/>
<feGaussianBlur stdDeviation="25" result="effect1_foregroundBlur_301_710"/>
</filter>
<filter id="filter3_f_301_710" x="33.8465" y="-90.5326" width="1213.83" height="597.364" filterUnits="userSpaceOnUse" color-interpolation-filters="sRGB">
<feFlood flood-opacity="0" result="BackgroundImageFix"/>
<feBlend mode="normal" in="SourceGraphic" in2="BackgroundImageFix" result="shape"/>
<feGaussianBlur stdDeviation="57.1788" result="effect1_foregroundBlur_301_710"/>
</filter>
<filter id="filter4_f_301_710" x="143.214" y="109.667" width="1062.3" height="445.84" filterUnits="userSpaceOnUse" color-interpolation-filters="sRGB">
<feFlood flood-opacity="0" result="BackgroundImageFix"/>
<feBlend mode="normal" in="SourceGraphic" in2="BackgroundImageFix" result="shape"/>
<feGaussianBlur stdDeviation="19.2978" result="effect1_foregroundBlur_301_710"/>
</filter>
<filter id="filter5_f_301_710" x="90.7132" y="57.1659" width="1167.31" height="550.842" filterUnits="userSpaceOnUse" color-interpolation-filters="sRGB">
<feFlood flood-opacity="0" result="BackgroundImageFix"/>
<feBlend mode="normal" in="SourceGraphic" in2="BackgroundImageFix" result="shape"/>
<feGaussianBlur stdDeviation="45.5482" result="effect1_foregroundBlur_301_710"/>
</filter>
<linearGradient id="paint0_linear_301_710" x1="660.464" y1="347.482" x2="-433.846" y2="644.916" gradientUnits="userSpaceOnUse">
<stop stop-color="#F14D8C"/>
<stop offset="0.0001" stop-color="#F14D8C" stop-opacity="0.850011"/>
<stop offset="1" stop-color="#F14D8C" stop-opacity="0"/>
</linearGradient>
<linearGradient id="paint1_linear_301_710" x1="605.18" y1="77.2419" x2="-489.13" y2="374.676" gradientUnits="userSpaceOnUse">
<stop stop-color="#F14D8C"/>
<stop offset="0.225209" stop-color="#F14D8C"/>
<stop offset="1" stop-color="#F14D8C" stop-opacity="0"/>
</linearGradient>
<linearGradient id="paint2_linear_301_710" x1="638.785" y1="201.679" x2="-455.525" y2="499.113" gradientUnits="userSpaceOnUse">
<stop stop-color="#F14D8C"/>
<stop offset="0.225209" stop-color="#F14D8C"/>
<stop offset="1" stop-color="#F14D8C" stop-opacity="0"/>
</linearGradient>
<clipPath id="clip0_301_710">
<rect width="1268" height="724" fill="white"/>
</clipPath>
</defs>
</svg>
