<svg width="32" height="32" viewBox="0 0 32 32" fill="none" xmlns="http://www.w3.org/2000/svg">
<path d="M2.18994 0.25L4.7037 28.4708L15.9832 31.6157L27.2942 28.4592L29.81 0.25H2.18994ZM24.5877 6.7155L23.7509 16.1168L23.7534 16.1675L23.7499 16.2843V16.2833L23.1554 22.8568L23.0899 23.4408L15.9999 25.4018L15.9944 25.4067L8.9167 23.4347L8.43745 18H11.9082L12.1544 20.7635L16.0009 21.806L15.9999 21.808V21.8075L19.8607 20.7502L20.2687 16.25H12.1979L12.1287 15.4893L11.9709 13.707L11.8882 12.75H20.5754L20.8914 9.25H7.65995L7.5907 8.48975L7.4332 6.707L7.3502 5.75H24.6704L24.5877 6.7155Z" fill="#1572B6"/>
</svg>
