<svg width="32" height="32" viewBox="0 0 32 32" fill="none" xmlns="http://www.w3.org/2000/svg">
<g clip-path="url(#clip0_303_712)">
<path d="M31.1855 14.5943L17.4063 0.815828C16.6133 0.0223281 15.3263 0.0223281 14.5321 0.815828L11.6713 3.67733L15.3008 7.30683C16.1446 7.02208 17.1116 7.21308 17.7838 7.88533C18.1042 8.20598 18.3278 8.61033 18.4292 9.05213C18.5306 9.49393 18.5056 9.95533 18.357 10.3836L21.855 13.8821C22.7013 13.5903 23.678 13.7788 24.3535 14.4558C25.2985 15.4001 25.2985 16.9308 24.3535 17.8756C24.129 18.1003 23.8623 18.2785 23.5689 18.4001C23.2754 18.5217 22.9609 18.5843 22.6432 18.5843C22.3255 18.5843 22.011 18.5217 21.7175 18.4001C21.424 18.2785 21.1574 18.1003 20.9328 17.8756C20.5954 17.538 20.3654 17.1081 20.2717 16.6401C20.1781 16.172 20.225 15.6868 20.4065 15.2453L17.1446 11.9831L17.1441 20.5683C17.3807 20.6849 17.5968 20.8392 17.7838 21.0253C18.7286 21.9696 18.7286 23.4998 17.7838 24.4461C16.8391 25.3904 15.3078 25.3904 14.364 24.4461C13.4195 23.5001 13.342 21.9698 14.2863 21.0253C14.5198 20.7921 14.75 20.6158 15 20.4978V11.8331C14.75 11.7151 14.52 11.5401 14.286 11.3053C13.5708 10.5903 13.4371 9.54033 13.8041 8.66133L10.2458 5.08308L0.807295 14.5306C0.0135462 15.3248 0.0185462 16.6118 0.812295 17.4056L14.5938 31.1841C15.387 31.9776 16.675 31.9776 17.4695 31.1841L31.1845 17.4696C31.9782 16.6756 31.979 15.3878 31.1855 14.5943Z" fill="#F34F29"/>
</g>
<defs>
<clipPath id="clip0_303_712">
<rect width="32" height="32" fill="white"/>
</clipPath>
</defs>
</svg>
