<svg width="32" height="32" viewBox="0 0 32 32" fill="none" xmlns="http://www.w3.org/2000/svg">
<path fill-rule="evenodd" clip-rule="evenodd" d="M9.24122 8.86504C9.46047 11.173 9.67797 13.468 9.90047 15.8145C10.2632 15.1908 10.5257 14.5925 10.9217 14.1025C11.2905 13.646 11.7552 13.2248 12.261 12.933C12.9212 12.552 13.787 12.9108 14.001 13.5865C14.0585 13.7678 13.9212 14.0108 13.8732 14.2255C13.7117 14.1403 13.5035 14.0933 13.398 13.9628C12.9497 13.4085 12.6797 13.343 12.184 13.822C11.2592 14.716 10.7392 15.836 10.5407 17.0948C10.5025 17.3383 10.6547 17.6115 10.719 17.871C10.9717 17.784 11.2652 17.752 11.4695 17.6C12.1335 17.1058 12.545 16.4335 12.772 15.63C12.8212 15.456 13.0882 15.3438 13.2552 15.203C13.3352 15.3675 13.5177 15.5613 13.4795 15.6915C13.1258 16.9015 12.7477 18.1041 12.3455 19.2988C12.305 19.4198 12.0827 19.48 11.9445 19.5685C11.8887 19.4095 11.7715 19.243 11.7902 19.0933C11.8322 18.7538 11.9415 18.4225 12.0177 18.1115L10.2077 18.9448C10.309 20.1003 10.414 21.3965 10.5385 22.691C10.634 23.6795 10.7957 23.9355 11.7692 24.123C12.9052 24.3418 14.0625 24.4815 15.2172 24.5665C16.9178 24.6946 18.6279 24.5337 20.2747 24.0905C20.8927 23.9245 21.1392 23.518 21.1835 22.9113C21.224 22.3525 21.3145 21.7973 21.3772 21.24C21.5005 20.1423 21.6202 19.0443 21.7462 17.9005C21.3295 18.1645 21.0017 18.46 20.6185 18.5853C20.3395 18.6765 19.9875 18.543 19.6677 18.5095C19.729 18.216 19.7252 17.8853 19.8667 17.6378C20.0972 17.2333 20.4227 16.8825 20.7077 16.509L20.585 16.3613C20.3807 16.482 20.127 16.5613 19.9817 16.7325C19.6862 17.081 19.397 17.454 19.1992 17.8625C18.8682 18.5463 18.616 19.268 18.3197 19.969C18.191 20.273 18.08 20.738 17.6487 20.5605C17.1875 20.3703 17.512 19.964 17.6202 19.675C17.7925 19.214 18.02 18.7735 18.174 18.4345C17.7375 18.4865 17.295 18.5493 16.8505 18.588C16.6625 18.604 16.439 18.501 16.2852 18.5705C15.774 18.8015 15.45 18.7088 15.3437 18.1428C15.107 18.2965 14.9065 18.5048 14.6702 18.5608C14.3835 18.629 13.9945 18.6738 13.7845 18.5305C13.6162 18.4158 13.555 17.9845 13.6125 17.7315C13.7267 17.2285 13.9402 16.745 14.143 16.2668C14.2685 15.9705 14.3947 15.4975 14.8182 15.7035C15.2367 15.9068 14.8567 16.2498 14.7602 16.525C14.6105 16.9505 14.458 17.3753 14.307 17.8003L14.547 17.9453C14.7755 17.7468 15.0602 17.585 15.2202 17.3415C15.4822 16.9435 15.6405 16.4785 15.8885 16.07C15.9912 15.9008 16.2125 15.8038 16.3802 15.674C16.4142 15.8895 16.4957 16.111 16.4687 16.319C16.442 16.5293 16.2942 16.7215 16.2235 16.9295C16.1172 17.241 16.0315 17.5595 15.9235 17.9218C16.4342 17.9413 16.653 17.7263 16.7972 17.347C17.2537 16.1488 17.7152 14.9518 18.217 13.772C18.3027 13.57 18.5942 13.456 18.791 13.301C18.8137 13.5445 18.9222 13.8205 18.845 14.0258C18.4337 15.113 17.972 16.1808 17.538 17.2595C17.4647 17.4413 17.4412 17.643 17.395 17.8355C18.1597 17.4918 18.798 17.1118 19.031 16.299C19.088 16.1015 19.3215 15.9548 19.4737 15.7845L19.8277 16.1595C19.9352 16.069 20.0337 15.966 20.1505 15.8908C20.518 15.654 20.9137 15.4453 21.3012 15.812C21.7022 16.1913 21.3987 16.5608 21.1892 16.8888C20.9612 17.2465 20.682 17.5713 20.425 17.9103C21.003 17.5378 21.7922 17.3708 21.8972 16.5658C22.1532 14.5995 22.3782 12.6293 22.6065 10.6595C22.6742 10.0765 22.7105 9.48979 22.7632 8.88229C18.2107 9.98454 13.756 9.99129 9.24122 8.86504ZM11.1952 24.2073C11.4145 24.7865 11.7475 25.3555 11.8347 25.96C12.019 27.2467 12.0657 28.553 12.1962 29.8485C12.2152 30.0372 12.3375 30.2965 12.49 30.3795C14.735 31.5995 17.0017 31.811 19.2922 30.4767C19.634 30.2777 19.6972 30.015 19.7415 29.6455C19.9557 27.8502 19.4787 25.946 20.6265 24.2555C17.4125 25.0527 14.2757 25.0775 11.1952 24.2073ZM18.943 9.18729C20.0335 9.08204 21.1107 8.82604 22.1892 8.61454C22.3925 8.57479 22.573 8.42004 22.764 8.31829C22.5122 8.09704 22.2945 7.99054 22.067 7.96379C20.9345 7.83004 19.798 7.72704 18.6662 7.58679C18.4952 7.56554 18.19 7.35454 18.2027 7.31604C18.533 6.32104 18.5167 5.19479 19.2662 4.35629C20.2135 3.29629 21.1705 2.24554 22.1202 1.19429C21.4137 0.434288 21.4042 0.433288 20.764 1.09854C20.402 1.47454 20.0712 1.88604 19.6785 2.22654C18.2252 3.48604 17.2045 4.97779 17.0055 6.94454C16.9597 7.39579 16.712 7.55879 16.2382 7.56579C14.6742 7.58854 13.1085 7.63154 11.548 7.73429C10.7747 7.78504 10.011 7.98354 9.24272 8.11504L9.23572 8.40229C9.71647 8.55054 10.188 8.74529 10.679 8.83954C13.415 9.36404 16.1767 9.45404 18.943 9.18729ZM18.069 8.50029C17.4497 9.00029 16.938 9.00029 16.4437 8.50029H18.069Z" fill="#EB4A4B"/>
</svg>
