<svg width="32" height="32" viewBox="0 0 32 32" fill="none" xmlns="http://www.w3.org/2000/svg">
<g clip-path="url(#clip0_303_727)">
<path d="M0.352051 0.351562H31.648V31.6478H0.352051V0.351562Z" fill="#F0DB4F"/>
<path d="M29.0867 24.1832C28.8575 22.7555 27.9265 21.5562 25.1687 20.438C24.2108 19.9977 23.1428 19.6825 22.8245 18.9565C22.7115 18.534 22.6965 18.296 22.768 18.0402C22.9733 17.2102 23.964 16.9515 24.7493 17.1895C25.255 17.359 25.7337 17.7487 26.0225 18.3705C27.373 17.496 27.3702 17.5017 28.3132 16.9007C27.968 16.3655 27.7837 16.1185 27.5577 15.8895C26.7455 14.9822 25.6387 14.515 23.8688 14.5507L22.9468 14.67C22.0633 14.8932 21.2213 15.357 20.7275 15.9787C19.246 17.6597 19.6685 20.6017 21.4713 21.8125C23.2473 23.1455 25.8562 23.4487 26.1895 24.6952C26.5137 26.2213 25.068 26.7153 23.631 26.5398C22.572 26.3195 21.983 25.7813 21.3463 24.8025C20.1743 25.4808 20.1743 25.4808 18.9693 26.1738C19.255 26.7985 19.5553 27.0813 20.0343 27.6225C22.3013 29.922 27.9742 29.809 28.9917 26.3285C29.033 26.209 29.307 25.412 29.0867 24.1832ZM17.3655 14.735H14.4383L14.4263 22.303C14.4263 23.9125 14.5095 25.388 14.2478 25.8403C13.8195 26.7298 12.7098 26.6195 12.204 26.447C11.6893 26.194 11.4275 25.8343 11.1243 25.3258C11.041 25.1798 10.9785 25.0668 10.9575 25.058L8.57751 26.5155C8.97326 27.3278 9.55626 28.0328 10.303 28.4908C11.4185 29.1603 12.9178 29.3655 14.4858 29.0055C15.5063 28.7083 16.3868 28.0925 16.8478 27.1553C17.5143 25.9265 17.3713 24.4392 17.3653 22.7942C17.3803 20.1105 17.3655 17.4272 17.3655 14.735Z" fill="#323330"/>
</g>
<defs>
<clipPath id="clip0_303_727">
<rect width="32" height="32" fill="white"/>
</clipPath>
</defs>
</svg>
