<svg width="32" height="32" viewBox="0 0 32 32" fill="none" xmlns="http://www.w3.org/2000/svg">
<path d="M9.8167 27.2415L9.7457 27.0998C9.60395 26.816 9.60395 26.5323 9.67495 26.1775H2.0147L13.3635 6.034L18.1157 14.6165L19.6759 13.4815L14.9237 4.899C14.853 4.75725 14.2855 3.90625 13.3635 3.90625C12.9377 3.90625 12.2994 4.048 11.8029 4.97L0.312452 25.3265C0.241452 25.5395 -0.255048 26.4615 0.170452 27.2415C0.454202 27.6673 0.879952 28.0928 1.87295 28.0928H11.5192C10.5262 28.0928 10.0297 27.667 9.8167 27.2415Z" fill="#00C58E"/>
<path d="M31.6625 25.3976L22.4417 8.80033C22.3 8.65858 21.8035 7.73633 20.8812 7.73633C20.4557 7.73633 19.8175 7.94908 19.321 8.80033L18.1152 10.7863V14.6166L20.8815 9.86433L30.0313 26.1778H26.5558C26.6138 26.5156 26.5643 26.8631 26.4138 27.1708L26.3428 27.2418C25.9173 28.0218 24.8532 28.0928 24.7115 28.0928H30.102C30.3148 28.0928 31.3078 28.0221 31.8043 27.2418C32.017 26.8871 32.159 26.2488 31.6625 25.3976Z" fill="#108775"/>
<path d="M26.6275 27.2424V27.1714L26.6985 27.0296C26.7692 26.7459 26.8403 26.4621 26.7693 26.1784L26.4858 25.3274L19.2512 12.7021L18.1872 10.7871H18.1162L17.0522 12.7021L9.81772 25.3271L9.53422 26.1784C9.46552 26.5391 9.51525 26.9124 9.67597 27.2424C9.95972 27.6679 10.3852 28.0936 11.3782 28.0936H24.8547C25.0675 28.0936 26.1315 28.0226 26.628 27.2424H26.6275ZM18.116 14.6171L24.7125 26.1784H11.5197L18.116 14.6171Z" fill="#2F495E"/>
</svg>
