<svg width="100" height="150" viewBox="0 0 100 150" fill="none" xmlns="http://www.w3.org/2000/svg">
<g clip-path="url(#clip0_260_747)">
<path fill-rule="evenodd" clip-rule="evenodd" d="M43.6545 74.1757C55.194 65.6162 53.2255 53.5087 45.1956 38.3086C37.1658 23.1086 18.5007 16.2202 14.5759 19.1314C10.6511 22.0427 7.40841 45.1813 15.4383 60.3814C23.4681 75.5814 32.1151 82.7352 43.6545 74.1757Z" fill="url(#paint0_linear_260_747)"/>
<path fill-rule="evenodd" clip-rule="evenodd" d="M52.4206 72.6743C58.521 85.7981 68.8525 82.352 82.3402 71.3372C95.8279 60.3224 103.339 37.2498 101.264 32.7861C99.1892 28.3225 80.0967 26.4795 66.609 37.4943C53.1212 48.5092 46.3203 59.5506 52.4206 72.6743Z" fill="url(#paint1_linear_260_747)"/>
<path fill-rule="evenodd" clip-rule="evenodd" d="M48.5323 66.4313C59.6031 68.9336 64.736 58.1278 67.9809 40.2026C71.2258 22.2775 64.0485 2.36955 60.2831 1.51848C56.5177 0.667412 42.6769 15.8247 39.432 33.7499C36.1871 51.675 37.4614 63.929 48.5323 66.4313Z" fill="url(#paint2_linear_260_747)"/>
<path fill-rule="evenodd" clip-rule="evenodd" d="M47.1704 150C73.2264 150 94.3574 142.407 94.3574 107.973C94.3574 73.539 73.2264 45.2827 47.1704 45.2827C21.1143 45.2827 0 73.539 0 107.973C0 142.407 21.1143 150 47.1704 150Z" fill="url(#paint3_linear_260_747)"/>
<path d="M71.003 100.943C74.7253 100.943 77.7428 99.5352 77.7428 97.7985C77.7428 96.0617 74.7253 94.6538 71.003 94.6538C67.2807 94.6538 64.2632 96.0617 64.2632 97.7985C64.2632 99.5352 67.2807 100.943 71.003 100.943Z" fill="#EAADCC"/>
<path d="M21.0915 99.0332C24.7861 99.4882 27.9521 98.4597 28.1631 96.7359C28.3741 95.0121 25.5501 93.2458 21.8556 92.7908C18.161 92.3357 14.995 93.3642 14.784 95.088C14.573 96.8118 17.397 98.5781 21.0915 99.0332Z" fill="#EAADCC"/>
<path d="M51.4443 96.5327C49.4683 98.1151 47.1556 98.8009 44.5062 98.5903C41.8568 98.3796 39.8714 97.4096 38.5499 95.6802" stroke="black" stroke-width="6" stroke-linecap="round" stroke-linejoin="round"/>
<path fill-rule="evenodd" clip-rule="evenodd" d="M25.2054 80.5137C27.0157 80.395 28.7011 81.0222 29.9626 82.132C31.2241 83.2419 32.0618 84.8346 32.1767 86.647C32.2916 88.4595 31.6619 90.1484 30.5509 91.4139C29.4399 92.6793 27.8476 93.5213 26.0373 93.64C24.2272 93.7587 22.542 93.1315 21.2806 92.0215C20.0192 90.9116 19.1816 89.3189 19.0667 87.5063C18.9519 85.694 19.5815 84.0051 20.6924 82.7397C21.8032 81.4743 23.3953 80.6324 25.2054 80.5137Z" fill="black"/>
<path fill-rule="evenodd" clip-rule="evenodd" d="M25.6813 85.9083C25.6065 84.7283 24.59 83.8341 23.4119 83.9114C22.2331 83.9886 21.3382 85.0081 21.413 86.1881C21.4878 87.3681 22.504 88.2623 23.6828 88.1851C24.8608 88.1075 25.7561 87.0883 25.6813 85.9083Z" fill="white"/>
<path fill-rule="evenodd" clip-rule="evenodd" d="M66.0427 82.2295C67.8529 82.1108 69.5382 82.738 70.7996 83.8478C72.0611 84.9577 72.8987 86.5504 73.0136 88.3628C73.1285 90.1754 72.4988 91.8643 71.3879 93.1297C70.277 94.3951 68.6849 95.2371 66.8746 95.3558C65.0645 95.4745 63.3791 94.8473 62.1176 93.7373C60.8562 92.6274 60.0185 91.0347 59.9037 89.2222C59.7888 87.4098 60.4185 85.721 61.5294 84.4556C62.6404 83.1901 64.2326 82.3482 66.0427 82.2295Z" fill="black"/>
<path d="M30.9268 86.3918C31.3096 89.3372 29.2447 92.0309 26.3144 92.4091C23.3845 92.7871 20.6993 90.7064 20.3165 87.7609C19.9337 84.8158 21.9983 82.1221 24.9282 81.744C27.8585 81.3659 30.544 83.4467 30.9268 86.3918ZM32.6474 86.1697C32.1404 82.2694 28.5839 79.5138 24.7034 80.0146C20.8233 80.5153 18.089 84.0827 18.5959 87.9829C19.1029 91.8835 22.659 94.6392 26.5392 94.1385C30.4197 93.6378 33.1543 90.0703 32.6474 86.1697Z" fill="white" stroke="white" stroke-width="3"/>
<path d="M71.7637 88.1081C72.1465 91.0535 70.0819 93.7472 67.1517 94.1253C64.2218 94.5034 61.5363 92.4227 61.1534 89.4772C60.7706 86.5321 62.8356 83.8384 65.7655 83.4603C68.6957 83.0822 71.3809 85.163 71.7637 88.1081ZM73.4843 87.886C72.9773 83.9857 69.4211 81.2301 65.5407 81.7308C61.6605 82.2315 58.9259 85.799 59.4328 89.6993C59.9398 93.5997 63.4962 96.3555 67.3765 95.8548C71.2569 95.354 73.9913 91.7866 73.4843 87.886Z" fill="white" stroke="white" stroke-width="3"/>
<path fill-rule="evenodd" clip-rule="evenodd" d="M66.3912 87.505C66.2463 86.3908 65.2301 85.6033 64.1216 85.7463C63.0131 85.8894 62.2316 86.9089 62.3765 88.0231C62.5213 89.1373 63.5376 89.9248 64.6461 89.7818C65.7546 89.6387 66.536 88.6192 66.3912 87.505Z" fill="white"/>
<path d="M11.4419 111.163L34.6394 135.377" stroke="#ECB732" stroke-width="11" stroke-linecap="round"/>
<path d="M31.5045 113.993L16.771 129.716" stroke="#ECB732" stroke-width="11" stroke-linecap="round"/>
<path d="M82.6016 111.163L59.4041 135.377" stroke="#ECB732" stroke-width="11" stroke-linecap="round"/>
<path d="M62.5389 113.993L77.2725 129.716" stroke="#ECB732" stroke-width="11" stroke-linecap="round"/>
<path d="M56.583 57.7041L41.2225 73.1129" stroke="#FFC73B" stroke-width="11" stroke-linecap="round"/>
<path d="M53.4482 73.1128L38.0877 57.704" stroke="#FFC73B" stroke-width="11" stroke-linecap="round"/>
</g>
<defs>
<linearGradient id="paint0_linear_260_747" x1="13.0848" y1="20.0175" x2="15.643" y2="45.5274" gradientUnits="userSpaceOnUse">
<stop stop-color="#52CE63"/>
<stop offset="1" stop-color="#51A256"/>
</linearGradient>
<linearGradient id="paint1_linear_260_747" x1="103.99" y1="37.4108" x2="78.5149" y2="39.6696" gradientUnits="userSpaceOnUse">
<stop stop-color="#52CE63"/>
<stop offset="1" stop-color="#51A256"/>
</linearGradient>
<linearGradient id="paint2_linear_260_747" x1="60.1314" y1="1.48419" x2="51.5861" y2="39.2908" gradientUnits="userSpaceOnUse">
<stop stop-color="#8AE99C"/>
<stop offset="1" stop-color="#52CE63"/>
</linearGradient>
<linearGradient id="paint3_linear_260_747" x1="48.4786" y1="63.5794" x2="40.5966" y2="149.865" gradientUnits="userSpaceOnUse">
<stop stop-color="#FFE56C"/>
<stop offset="1" stop-color="#FFC63A"/>
</linearGradient>
<clipPath id="clip0_260_747">
<rect width="100" height="150" fill="white"/>
</clipPath>
</defs>
</svg>
