<svg width="32" height="32" viewBox="0 0 32 32" fill="none" xmlns="http://www.w3.org/2000/svg">
<g clip-path="url(#clip0_303_758)">
<path fill-rule="evenodd" clip-rule="evenodd" d="M6.25694 13.4184C6.29987 13.4508 6.37441 13.4718 6.29987 13.5358C6.24641 13.6102 6.18241 13.6742 6.13987 13.7596C6.09734 13.8345 6.06534 13.8555 6.00134 13.8025C6.08641 13.6637 6.17147 13.5354 6.25653 13.418L6.25694 13.4184ZM27.6828 24.5973C27.6828 24.6289 27.6933 24.65 27.6933 24.6823C27.7148 24.6398 27.7148 24.6184 27.7257 24.5973H27.6828ZM25.5084 28.8528L23.6532 18.5705C23.6216 18.5604 23.5791 18.5393 23.5041 18.5179C23.5256 18.5604 23.5365 18.5923 23.5471 18.6243C23.5997 18.6138 23.6216 18.6138 23.6427 18.6033C23.6427 18.5927 23.6427 18.5822 23.6536 18.5709L25.5088 28.8541L25.5084 28.8528ZM23.5896 16.2559C23.5791 16.2875 23.5791 16.3199 23.5791 16.3519C23.5791 16.3195 23.5791 16.2871 23.5904 16.2555L23.5896 16.2559ZM23.6001 16.4688C23.5896 16.4688 23.5896 16.4688 23.5791 16.4575V16.468C23.5904 16.4786 23.5904 16.4786 23.6009 16.468L23.6001 16.4688ZM23.5791 16.5538V16.479C23.5479 16.4895 23.5159 16.4895 23.4729 16.5004C23.5264 16.5206 23.5799 16.532 23.5799 16.553L23.5791 16.5538Z" fill="#DD3735"/>
<path fill-rule="evenodd" clip-rule="evenodd" d="M31.8825 13.9633C31.8614 13.5472 31.8509 13.1311 31.8079 12.7154C31.7334 12.1499 31.6589 11.5739 31.5309 11.0193C31.4349 10.5607 31.2757 10.1231 31.1153 9.68595C30.9128 9.17389 30.7102 8.65131 30.4542 8.16071C30.0386 7.37138 29.495 6.66706 28.994 5.93116C28.6626 5.4616 28.2365 5.07787 27.9165 4.59779C27.7354 4.32051 27.4689 4.08614 27.2024 3.87323C26.7758 3.53118 26.3282 3.22152 25.8807 2.9232C25.5429 2.68649 25.1941 2.46578 24.8356 2.26178C24.548 2.10108 24.2389 1.97316 23.9404 1.83432C23.5993 1.67443 23.2688 1.48216 22.8852 1.40768C22.7888 1.38744 22.7037 1.35506 22.6077 1.32267C22.3627 1.23767 22.1281 1.14173 21.8827 1.06685C21.51 0.949461 21.1475 0.811025 20.7635 0.714686C20.3916 0.618752 20.0076 0.5552 19.6236 0.501364C19.1975 0.438622 18.7609 0.416359 18.3339 0.374666C18.0614 0.339481 17.7877 0.314636 17.5133 0.300185C17.1082 0.279136 16.6926 0.279136 16.2875 0.268612C16.085 0.257683 15.8719 0.236229 15.6694 0.247158C15.3603 0.257683 15.0513 0.289661 14.7418 0.332163C14.4437 0.364546 14.1452 0.417168 13.8576 0.46048C13.5064 0.502983 13.1548 0.524437 12.8028 0.567344C12.4722 0.610251 12.1312 0.674207 11.8011 0.727639C11.6836 0.749092 11.5661 0.791595 11.4487 0.812644C11.1935 0.866075 10.9269 0.887529 10.6709 0.972939C10.2132 1.11219 9.75427 1.27248 9.30668 1.44249C8.89068 1.61331 8.48561 1.79465 8.09149 2.00798C7.68642 2.23142 7.30242 2.49777 6.91883 2.7544C6.55039 3.00078 6.19099 3.26042 5.84136 3.5328C5.50111 3.79996 5.18111 4.09829 4.87164 4.39702C4.70151 4.56703 4.56258 4.77023 4.40258 4.9621C4.13645 5.27176 3.86992 5.57009 3.61392 5.89027C3.40166 6.15743 3.20885 6.4343 3.00632 6.71199C2.6446 7.20178 2.33554 7.72476 2.04794 8.24774C1.93047 8.46107 1.82394 8.67439 1.71741 8.8873C1.55741 9.20709 1.38688 9.51675 1.23782 9.84746C1.13088 10.0717 1.04582 10.317 0.981816 10.5623C0.833158 11.0853 0.683689 11.6188 0.545157 12.141C0.417157 12.6105 0.385157 13.1011 0.375031 13.5812C0.364094 14.0078 0.406626 14.424 0.449157 14.8506C0.460094 14.9575 0.396499 15.0854 0.523689 15.1704C0.481157 15.2878 0.513157 15.3525 0.576347 15.3728C0.502626 15.4902 0.608752 15.5655 0.566626 15.6723C0.555689 15.6934 0.599031 15.7359 0.619284 15.7678C0.619284 15.8002 0.609158 15.8427 0.619284 15.8747C0.630626 15.9706 0.673157 16.0666 0.673157 16.1734C0.673157 16.2479 0.736752 16.3333 0.758221 16.4082C0.768752 16.4398 0.758221 16.4932 0.736752 16.5147C0.672752 16.5892 0.683284 16.6531 0.779284 16.696C0.833158 16.8345 0.811689 16.8984 0.801158 16.9632C0.822221 17.0587 0.790221 17.0907 0.801158 17.1121C0.886221 17.283 0.918626 17.4748 0.928752 17.6667C0.928752 17.7096 0.950221 17.7525 0.971689 17.8055C0.982221 17.8055 0.971689 18.0079 0.971689 18.0079C1.02435 17.9764 1.06769 17.9658 1.12075 17.9444C1.15316 18.0828 1.18475 18.2115 1.22728 18.3289C1.28075 18.4139 1.28075 18.456 1.25969 18.4666C1.30222 18.6584 1.32328 18.8398 1.39741 19.0211C1.39741 18.8187 1.37716 18.6163 1.34475 18.4241C1.49382 18.4775 1.62182 18.5305 1.70728 18.5305C1.71822 18.4981 1.72875 18.456 1.73969 18.4346C1.67569 18.371 1.62222 18.2751 1.55822 18.2111C1.57969 18.2961 1.55822 18.3285 1.55822 18.3609C1.51569 18.339 1.46222 18.3176 1.40916 18.2961C1.45169 18.2435 1.49422 18.1897 1.55822 18.1261C1.55822 18.0298 1.50556 17.944 1.35569 17.9549C1.41969 17.9339 1.48369 17.9023 1.55822 17.8804C1.67569 17.8169 1.54769 17.6995 1.54769 17.5501C1.55822 17.3692 1.45169 17.1878 1.41969 16.9956C1.36622 16.6972 1.37716 16.2491 1.34516 15.9504C1.28116 15.897 1.22769 16.0354 1.21716 16.0463C1.24956 16.3022 1.28116 16.558 1.30222 16.8142C1.23863 16.6009 1.19569 16.3661 1.14263 16.1099C1.13169 16.1848 1.12116 16.2168 1.12116 16.2597C1.0685 16.3123 1.11063 16.3771 1.14263 16.4515C1.06809 16.4191 0.982626 16.4305 0.982626 16.4305V16.7292C0.876499 16.6224 0.844904 16.5373 0.791031 16.4621C0.769968 16.3771 0.758626 16.292 0.738373 16.207C0.758626 16.1532 0.738373 16.1212 0.738373 16.0897C0.725859 16.0043 0.715055 15.9188 0.705968 15.833C0.716499 15.8225 0.695436 15.663 0.695436 15.663C0.780499 15.6731 0.834373 15.6832 0.887436 15.6832C0.780904 15.5456 0.855031 15.4598 0.898373 15.3744C0.919841 15.3315 0.994373 15.3218 1.01584 15.2781C1.1009 15.1182 1.23984 14.9907 1.23984 14.7875C1.23984 14.6915 1.27225 14.5851 1.28237 14.4887C1.30384 14.3074 1.3249 14.126 1.33503 13.9447C1.3569 13.7099 1.33503 13.4751 1.3889 13.2513C1.47478 12.8789 1.58131 12.5053 1.69837 12.1317C1.78344 11.8645 1.87984 11.6095 1.98597 11.3423C2.14597 10.9262 2.29544 10.5101 2.49797 10.1158C2.78556 9.53941 3.11609 8.98486 3.43609 8.41978C3.63863 8.06761 3.85169 7.7369 4.07609 7.39567C4.28875 7.06496 4.50141 6.72373 4.74728 6.41407C5.08481 5.97727 5.46323 5.57363 5.87741 5.20861C6.30394 4.82488 6.70901 4.43021 7.16713 4.07805C7.76273 3.61817 8.3973 3.21104 9.06364 2.86126C9.60764 2.57387 10.1723 2.3488 10.7374 2.13548C11.0999 1.99705 11.494 1.93309 11.8675 1.8157C12.2936 1.67686 12.7201 1.61331 13.1677 1.60238C13.4553 1.59145 13.7328 1.55947 14.0204 1.52749C14.2764 1.50726 14.532 1.4854 14.8095 1.45342C14.7771 1.49592 14.7665 1.51738 14.756 1.53842C14.6393 1.70924 14.5113 1.88006 14.3939 2.05048C14.2979 2.18932 14.1913 2.33869 14.0953 2.47712C13.9244 2.70178 13.7429 2.92562 13.5833 3.1604C13.3383 3.51256 13.1143 3.87525 12.8583 4.22701C12.6031 4.56824 12.3256 4.88843 12.0591 5.21873C11.7075 5.67776 11.377 6.14691 11.0254 6.60553C10.7054 7.0427 10.3651 7.45963 10.0556 7.89679C9.77858 8.28013 9.53311 8.68613 9.26658 9.07998C8.87245 9.66692 8.47792 10.2425 8.08379 10.8295C7.77438 11.2762 7.46166 11.7207 7.14566 12.1628C7.1242 12.1952 7.0922 12.2049 7.0606 12.2264C6.97554 12.3648 6.97554 12.4397 6.94313 12.5037C6.85807 12.6635 6.77301 12.8234 6.6766 12.9732C6.62313 13.0582 6.5486 13.1327 6.4846 13.2181C6.47407 13.0902 6.65473 13.0262 6.56966 12.8659C6.51701 12.9518 6.46313 13.0262 6.41007 13.1116L6.28207 13.3667C6.3246 13.399 6.39954 13.4205 6.3246 13.484C6.2922 13.5379 6.2606 13.6014 6.2286 13.6553C6.27474 13.6282 6.31474 13.5918 6.34607 13.5484C6.34607 13.6658 6.28207 13.7613 6.2286 13.8573C6.18607 13.9423 6.07954 14.007 6.00501 14.0706C6.01554 14.0815 6.09007 14.1135 6.10101 14.124C6.19701 14.0916 6.22901 14.039 6.23994 14.0706C6.27235 14.0281 6.30394 13.9961 6.31447 13.9641C6.3566 13.8573 6.4206 13.7723 6.52713 13.7293C6.57007 13.7079 6.60166 13.6759 6.63366 13.6443C6.95366 13.3132 7.2842 12.9934 7.57179 12.6413C8.01979 12.0968 8.42485 11.5322 8.85179 10.9776C9.03245 10.7428 9.24592 10.5081 9.43751 10.2838C9.46911 10.5291 9.44804 10.7635 9.43751 10.9881C9.40511 11.3824 9.38404 11.7775 9.35245 12.1823C9.34151 12.3421 9.35245 12.502 9.34151 12.6623C9.34151 12.7048 9.30911 12.7368 9.30911 12.7797C9.30911 12.8862 9.34151 13.0036 9.34151 13.1104C9.30911 13.5051 9.26617 13.8888 9.23417 14.2835C9.22323 14.3685 9.26577 14.4543 9.28683 14.5292C9.23417 15.1048 9.35164 15.7132 9.25523 16.3212C9.32977 16.2038 9.35123 16.1293 9.35123 16.0548C9.36136 15.9909 9.35123 15.9269 9.35123 15.8524V15.7456C9.36136 15.5533 9.40389 15.3509 9.38283 15.1586C9.36136 14.9453 9.36136 14.7429 9.4043 14.5401C9.42576 14.4551 9.39377 14.3483 9.44723 14.2414V14.4013C9.4367 15.0085 9.45817 15.6169 9.37311 16.2249C9.36217 16.2783 9.40551 16.3746 9.28804 16.3637C9.19164 16.5556 9.30911 16.6944 9.20298 16.8009C9.18111 16.8223 9.22323 16.9182 9.23417 16.9822C9.19123 17.1105 9.19123 17.1105 9.25523 17.121C9.26577 17.3558 9.28764 17.5687 9.29777 17.793C9.46789 17.3882 9.38283 16.9713 9.45817 16.5552C9.4687 16.726 9.47964 16.8968 9.4687 17.0773C9.4687 17.3554 9.45817 17.6218 9.44764 17.899C9.44764 17.9525 9.4367 18.0059 9.42617 18.0593C9.39377 18.2091 9.38364 18.3581 9.33017 18.4965C9.28764 18.6034 9.30911 18.7637 9.30911 18.8912V19.2972C9.35164 19.4785 9.29817 19.5745 9.33017 19.6809C9.29777 19.7882 9.28764 19.8202 9.29777 19.8521L9.33017 20.012C9.54364 19.9906 9.44764 20.1509 9.5327 20.2359C9.4687 20.3217 9.49017 20.3533 9.49017 20.3966C9.49017 20.4925 9.48004 20.5779 9.46911 20.6738C9.46911 20.9191 9.45858 21.1644 9.45858 21.3992C9.45858 21.4316 9.46911 21.4628 9.46911 21.4948C9.46911 21.5166 9.45858 21.7943 9.45858 21.7943C9.48004 21.8259 9.45858 21.8578 9.42617 21.8898C9.41604 21.8898 9.38404 20.535 9.38404 20.535H9.22404C9.20298 21.1746 9.25645 21.7506 9.13898 22.3484C9.01098 22.3586 8.96885 22.38 8.82951 22.38C8.49898 22.38 8.16845 22.38 7.83792 22.3905C7.44339 22.3905 7.0602 22.4011 6.66526 22.4011C6.47407 22.4011 6.27154 22.4229 6.07954 22.4229C5.82354 22.4229 5.55701 22.3905 5.30182 22.3905C4.90688 22.3905 4.52328 22.4229 4.12875 22.4335C3.84116 22.444 3.55356 22.444 3.26597 22.4549C3.07356 22.465 2.88116 22.4751 2.68997 22.497C2.6049 22.5075 2.52997 22.5395 2.42344 22.5715C2.39103 22.5715 2.3169 22.561 2.25331 22.5715C2.14597 22.5929 2.05078 22.6565 1.94344 22.6783C1.78344 22.7107 1.7409 22.7528 1.76197 22.9131V23.0196C1.75144 23.0406 1.9969 22.9872 1.9969 22.9872C1.97503 22.9872 1.9645 23.0512 1.93209 23.1046C2.01797 23.0722 2.07103 23.0512 2.1245 23.0301C2.2845 23.105 2.42303 23.0625 2.55063 23.0949C2.96622 23.2009 3.39235 23.2446 3.81847 23.2863C4.09594 23.3078 4.36247 23.3187 4.63954 23.3288C5.03366 23.3503 5.4282 23.3717 5.82232 23.3717C6.15285 23.3717 6.47285 23.3394 6.80258 23.3394C7.2603 23.3394 7.71964 23.3604 8.17776 23.3717C8.27376 23.3717 8.3803 23.3604 8.48683 23.3604H9.26455C9.95802 23.3394 10.6507 23.328 11.3437 23.3078C11.7387 23.2965 12.1437 23.2754 12.5379 23.2645L13.7531 23.2321C14.2221 23.2216 14.6912 23.2216 15.1497 23.2119C15.5013 23.2119 15.8424 23.1997 16.1948 23.1896C16.5885 23.1791 16.9936 23.1471 17.3881 23.126C17.6016 23.1151 17.815 23.0937 18.0281 23.0726C18.2841 23.0516 18.5506 23.02 18.8058 23.0091C19.1898 22.9872 19.5843 22.9767 19.9683 22.9552C20.4479 22.9236 20.9275 22.8811 21.4177 22.8702C21.8657 22.8492 22.3238 22.8597 22.7718 22.8492C23.1663 22.8382 23.5609 22.8168 23.9659 22.8063L24.6383 22.7739C24.6383 22.7739 25.0855 22.7634 25.3095 22.7415C25.6931 22.7204 26.0767 22.6779 26.4607 22.6674C26.7054 22.6565 26.9508 22.6674 27.1959 22.6565C27.59 22.646 27.9951 22.6241 28.3896 22.6241C28.5383 22.6241 28.6983 22.646 28.8903 22.6565C28.8052 22.7314 28.7517 22.7739 28.6877 22.8273C28.7303 22.8378 28.7728 22.8597 28.8157 22.8807C28.766 22.9158 28.7065 22.9343 28.6456 22.9334C28.6237 22.9872 28.6023 23.0087 28.5808 23.1155H28.7728C28.6983 23.1155 28.6343 23.2114 28.5597 23.2754C28.4747 23.2535 28.3997 23.2754 28.3572 23.3928C28.4317 23.4349 28.4212 23.4669 28.4107 23.5102C28.2827 23.5523 28.1867 23.5952 28.2406 23.7336C28.1972 23.7547 28.1441 23.7761 28.0907 23.8081C28.038 23.8931 27.9416 23.9146 27.9627 24.0319C28.0056 24.0421 28.0477 24.0643 28.0801 24.074C28.0267 24.0955 27.9736 24.1275 27.9201 24.1485C27.7286 24.2659 27.814 24.3193 27.8566 24.3728C27.8241 24.3942 27.7925 24.4153 27.7605 24.4262C27.7816 24.5221 27.8132 24.5436 27.8241 24.5436C27.7697 24.5848 27.7163 24.6274 27.6641 24.6715C27.6317 24.7674 27.5892 24.8099 27.5467 24.8739C27.5041 24.9379 27.4827 25.0237 27.4292 25.0872C27.2056 25.3329 27.0456 25.6215 26.758 25.813C26.6511 25.8879 26.5555 25.9838 26.4595 26.0802C26.2675 26.2611 26.097 26.4639 25.8944 26.6347C25.6266 26.8563 25.3493 27.0662 25.0632 27.2638C24.712 27.5091 24.3604 27.7544 24.0084 27.9891C23.8164 28.1166 23.6034 28.2126 23.4009 28.33C23.1983 28.4473 23.0063 28.5542 22.8038 28.6712C22.6758 28.7562 22.5583 28.8736 22.4198 28.9384C22.0682 29.0881 21.6947 29.2156 21.3326 29.3545C20.9802 29.5042 20.725 29.6318 20.4585 29.7277C20.2134 29.8127 19.9574 29.8775 19.7018 29.9301C19.6168 29.9519 19.5203 29.9301 19.4243 29.941C19.2429 29.9734 19.0618 30.0163 18.8803 30.0373C18.4113 30.1013 17.9422 30.1442 17.4736 30.2082C17.1961 30.2405 16.9296 30.2932 16.6525 30.3256C16.4609 30.3361 16.2584 30.315 16.0664 30.315C15.9278 30.315 15.7788 30.3474 15.6398 30.326C15.4162 30.2936 15.1922 30.241 14.9682 30.198C14.9156 30.1875 14.8402 30.1657 14.7981 30.1875C14.7131 30.2304 14.6377 30.1665 14.5522 30.1875C14.4996 30.1984 14.4461 30.1551 14.3927 30.1551C14.3497 30.145 14.2962 30.1665 14.2428 30.1551C14.1253 30.1236 14.0192 30.0811 13.8904 30.0916C13.7636 30.1021 13.6352 30.0382 13.4975 30.0066C13.3051 29.9637 13.1248 29.9216 12.932 29.8783C12.8575 29.855 12.7861 29.8228 12.7193 29.7823C12.4419 29.7823 12.2604 29.7718 12.0899 29.7074C11.9408 29.6548 11.8023 29.5799 11.6423 29.6014C11.6001 29.6119 11.5681 29.5909 11.5248 29.5909C11.4924 29.548 11.4612 29.4626 11.4296 29.4626C11.2165 29.4735 11.0885 29.2925 10.9071 29.2387C10.8115 29.2063 10.737 29.0999 10.641 29.0679C10.406 28.9719 10.2148 28.7696 9.9483 28.7376C9.86323 28.7267 9.77817 28.6841 9.68177 28.6526C9.71417 28.6947 9.73442 28.7266 9.76683 28.7586C9.45776 28.6089 9.17017 28.4388 8.88217 28.2786C8.84004 28.268 8.80804 28.2259 8.77604 28.2041L8.48845 28.0122C8.32845 28.0446 8.26445 27.9798 8.22111 27.9588C7.93351 27.7564 7.60339 27.6281 7.32592 27.4042C7.20845 27.3079 7.07073 27.2439 6.98566 27.1265C6.83579 26.9452 6.65473 26.8173 6.4522 26.7108C6.2926 26.6258 6.14354 26.5295 5.99447 26.4335C5.91954 26.3801 5.8446 26.3162 5.8446 26.1988C5.8446 26.1239 5.81301 26.049 5.71701 26.0919C5.67447 26.0279 5.63194 25.9535 5.57847 25.932C5.45047 25.8794 5.36541 25.7822 5.26941 25.6972C5.17341 25.6122 5.09928 25.4948 4.98182 25.4523C4.76835 25.3673 4.64035 25.186 4.51275 25.0366C4.21382 24.6845 3.94728 24.2999 3.67022 23.9275C3.64875 23.8951 3.60622 23.8737 3.57422 23.8417C3.61675 23.9591 3.67022 24.055 3.72328 24.1615C3.61716 24.119 3.54263 24.0441 3.47863 23.9696C3.46769 23.9805 4.21382 25.207 4.21382 25.207C4.27863 25.303 4.33128 25.3993 4.39528 25.4952C4.33107 25.5012 4.26651 25.4882 4.20962 25.4578C4.15274 25.4275 4.10602 25.3811 4.07528 25.3244C3.97969 25.1544 3.87275 25.0476 3.65969 25.0694C3.63708 24.9924 3.61949 24.914 3.60703 24.8346C3.56369 24.8346 3.53209 24.8346 3.45716 24.8237C3.60703 25.0585 3.73463 25.2609 3.87316 25.4957C3.81928 25.4633 3.78809 25.4422 3.76582 25.4317C3.95741 25.6341 4.09594 25.8903 4.34101 26.0186C4.39447 26.2635 4.67154 26.3809 4.73554 26.6157C4.68288 26.6048 4.63913 26.5942 4.58566 26.5833C4.5006 26.4769 4.4046 26.3704 4.30901 26.253C4.33007 26.3275 4.36166 26.3914 4.4046 26.4449C4.5326 26.6048 4.65007 26.7647 4.79913 26.9035C4.8526 26.9577 4.92713 26.9792 4.92713 27.0751C5.0122 27.1176 5.0446 27.1277 5.0762 27.1277C5.09807 27.1925 5.06607 27.2884 5.19366 27.267C5.27873 27.4269 5.36379 27.4269 5.48126 27.3739C5.6202 27.5127 5.69513 27.5236 5.79073 27.4386C5.79073 27.4912 5.80126 27.5447 5.80126 27.5876C5.84379 27.5661 5.83366 27.5342 5.83366 27.4807C5.88632 27.5232 5.91873 27.5447 5.93979 27.5657C6.04632 27.7155 6.14232 27.8539 6.29139 27.9713C6.49392 28.1421 6.67539 28.3235 6.86657 28.4834C7.24004 28.793 7.65645 29.0493 8.07164 29.2836C8.58364 29.5718 9.07417 29.8811 9.5963 30.158C10.225 30.4891 10.8965 30.7133 11.5892 30.8732C11.8452 30.9267 12.0903 30.9797 12.3467 31.0432C12.5695 31.108 12.7939 31.2039 13.0179 31.257C13.3589 31.3319 13.7105 31.3958 14.0516 31.4594C14.1257 31.4703 14.2015 31.4812 14.2865 31.4917C14.3817 31.5132 14.4988 31.4703 14.5202 31.5027C14.5737 31.5877 14.6162 31.5448 14.6802 31.5342C14.7548 31.5128 14.8402 31.5128 14.9253 31.5128C15.2238 31.5233 15.5114 31.5873 15.81 31.5662C15.8748 31.5662 15.9704 31.5124 16.0238 31.6188C16.1194 31.5763 16.1729 31.5763 16.2154 31.5662C16.2268 31.6618 16.2154 31.6618 16.1952 31.6723C16.1733 31.6828 16.1413 31.6937 16.0988 31.7257C16.4824 31.8002 16.8449 31.8107 17.1641 31.7257C17.719 31.7682 18.1986 31.7043 18.6572 31.5444C18.6997 31.5978 18.7317 31.6723 18.7957 31.5658C18.8168 31.5334 18.8702 31.5225 18.9132 31.512C19.0088 31.4905 19.1262 31.448 19.2113 31.4796C19.3077 31.512 19.3397 31.427 19.4138 31.427C19.5422 31.427 19.6593 31.416 19.7768 31.3946C19.8408 31.3841 19.9048 31.3521 19.9793 31.3306C19.9063 31.2944 19.8258 31.276 19.7443 31.2768C19.8728 31.2128 19.9898 31.1594 20.1073 31.1068C20.0858 31.1384 20.0643 31.1809 20.0222 31.1809H20.1709C20.1385 31.1809 20.0959 31.2768 20.0429 31.3408C20.4261 31.2448 20.7777 31.1594 21.1191 31.0736C21.0017 30.8502 21.2467 30.925 21.3322 30.7967C21.2257 30.8291 21.1191 30.8607 21.0122 30.8817C21.3747 30.7008 21.7478 30.5409 22.1099 30.381C22.0573 30.445 21.9924 30.4769 21.8973 30.5308C21.9613 30.5409 22.0038 30.5409 22.0358 30.551C22.2059 30.6049 22.1638 30.445 22.2169 30.3486C22.4194 30.3486 22.5044 30.3171 22.6004 30.2847C22.707 30.2523 22.8135 30.2207 22.9204 30.1782C23.0906 30.1037 23.2506 30.0082 23.4211 29.9232C23.4535 29.9119 23.5062 29.9232 23.5491 29.9232C23.6666 29.8479 23.7087 29.784 23.7407 29.7945C23.8906 29.8159 23.9959 29.7621 24.0388 29.6245C24.1134 29.5706 24.1668 29.5281 24.2199 29.4957C24.454 29.3678 24.6776 29.2399 24.9126 29.112C24.9976 29.112 25.0406 29.112 25.0616 29.1011C25.201 29.0363 25.329 28.9626 25.4566 28.8878C25.4199 28.8725 25.3844 28.855 25.35 28.8351C25.4561 28.8133 25.4877 28.8027 25.5526 28.7813C25.8077 28.4818 26.1601 28.2794 26.4263 28.0446C26.5437 28.0341 26.5437 28.0021 26.5437 27.981C26.5859 27.9276 26.6288 27.8636 26.6815 27.8207C26.9164 27.6074 27.1716 27.4261 27.3851 27.2022C27.6941 26.8922 27.9927 26.572 28.2697 26.2413C28.5249 25.9425 28.7817 25.6442 28.9948 25.3135C29.2933 24.8549 29.5489 24.3853 29.8154 23.9048C30.0074 23.564 30.178 23.2228 30.3704 22.8815C30.3906 22.8492 30.434 22.8067 30.466 22.8067C30.7536 22.7743 31.042 22.754 31.319 22.7217C31.383 22.7111 31.4576 22.669 31.5216 22.6367C31.4892 22.5832 31.4681 22.5193 31.4365 22.4658C31.3936 22.4011 31.3296 22.3484 31.2866 22.2837C31.2445 22.2311 31.2125 22.1663 31.1805 22.1027C31.1481 22.0501 31.1165 22.0072 31.0845 21.953C31.0197 21.8356 30.9561 21.7182 30.9022 21.5911C30.8917 21.5587 30.8698 21.5061 30.8812 21.4737C31.0732 21.058 31.1477 20.6099 31.3288 20.1938C31.5098 19.7671 31.5637 19.2871 31.6488 18.8284C31.7233 18.3913 31.7662 17.9541 31.8189 17.5169C31.8513 17.2077 31.8938 16.9089 31.9039 16.5997C31.9688 16.1091 31.9469 15.6501 31.9363 15.191C31.9258 14.7862 31.9039 14.3701 31.8837 13.9645L31.8825 13.9633ZM5.13817 27.0937C5.06364 27.0087 4.99964 26.9124 4.92511 26.8274L4.95751 26.795C5.07377 26.9233 5.19123 27.0512 5.3083 27.1901C5.2443 27.1577 5.16977 27.1367 5.13817 27.0937ZM5.3083 27.1901C5.3407 27.1792 5.37311 27.1792 5.4047 27.1686C5.43711 27.2221 5.45817 27.286 5.48977 27.35C5.3407 27.339 5.26617 27.2751 5.3087 27.1901H5.3083ZM16.3949 31.5954V31.563C16.5974 31.5419 16.789 31.5205 16.9915 31.4994V31.5306C16.789 31.563 16.5974 31.5832 16.3949 31.5946V31.5954ZM19.0804 31.3181C18.9318 31.3505 18.7718 31.3719 18.6227 31.3934C18.5693 31.4039 18.5053 31.4573 18.4842 31.361C18.4627 31.3719 18.4413 31.3719 18.4202 31.3829C18.4729 31.5423 18.6013 31.4144 18.7078 31.4784C18.4729 31.5108 18.2501 31.5318 18.0257 31.5634V31.5423C18.0905 31.5318 18.1646 31.5209 18.2282 31.51V31.4784C18.122 31.4658 18.0152 31.4586 17.9082 31.4569C17.877 31.4569 17.8341 31.4998 17.8021 31.5104C17.7595 31.5209 17.717 31.5318 17.6635 31.5318C17.4825 31.5423 17.3014 31.5423 17.1305 31.5529C17.1195 31.5529 17.0981 31.5423 17.0875 31.5423V31.51C17.8017 31.4144 18.5053 31.3185 19.2194 31.2226C19.2303 31.2436 19.2303 31.2651 19.2409 31.2861C19.1769 31.2861 19.1343 31.3084 19.0809 31.3185L19.0804 31.3181ZM19.2409 31.212C19.4863 31.1797 19.7107 31.1586 19.9449 31.127C19.4547 31.2655 19.2943 31.2865 19.2409 31.212ZM9.9564 9.67542C10.2967 9.20587 10.6491 8.73632 10.9901 8.25665C11.0967 8.117 11.1817 7.96763 11.2882 7.8292C11.3207 7.78629 11.3632 7.76524 11.4162 7.72233L11.4057 7.70209C11.4482 7.64826 11.4908 7.60494 11.5122 7.56285C11.5665 7.47784 11.5985 7.3815 11.6411 7.28557C11.6524 7.26907 11.6669 7.25491 11.6836 7.24388C11.8335 7.31836 11.8335 7.15887 11.8861 7.10503C11.9821 6.99817 12.0781 6.88119 12.1632 6.77432C12.2272 6.68932 12.2912 6.61443 12.3447 6.5185C12.3552 6.48612 12.3232 6.4335 12.3122 6.39018H12.2807C12.3131 6.36913 12.3447 6.33756 12.3767 6.3157C12.3872 6.3157 12.3872 6.3157 12.3977 6.30518C12.4617 6.20884 12.5257 6.1129 12.5897 6.0275C12.7173 5.85749 12.8558 5.68667 13.0049 5.5377C12.9838 5.59033 12.9624 5.64416 12.9409 5.68667C12.9518 5.68667 12.9518 5.69759 12.9624 5.69759C13.0904 5.52678 13.2289 5.36689 13.3569 5.19566C13.346 5.18554 13.3354 5.17461 13.3245 5.17461C13.2718 5.22804 13.2289 5.28148 13.1754 5.33491C13.1649 5.32398 13.1544 5.31345 13.143 5.31345C13.2504 5.17461 13.3569 5.03618 13.463 4.87628C13.4845 4.90867 13.506 4.95077 13.5481 5.03618C13.5914 4.92972 13.634 4.85524 13.6656 4.78035C13.634 4.81273 13.5914 4.84431 13.5594 4.87669L13.527 4.84431L13.719 4.55691C13.9216 4.2687 14.1241 3.96997 14.3266 3.68176C14.4016 3.5753 14.4968 3.4899 14.5616 3.38303C14.7641 2.97825 15.0841 2.65766 15.3288 2.28444C15.3822 2.20996 15.4568 2.14601 15.5208 2.08205C15.5734 2.01729 15.6168 2.03914 15.6593 2.09258C15.9469 2.45526 16.2345 2.82848 16.5221 3.19116C16.7359 3.45832 16.949 3.71334 17.1515 3.99102C17.3966 4.33266 17.6311 4.67389 17.8766 5.01513C18.1537 5.40979 18.4307 5.80446 18.6973 6.20924C19.1023 6.80711 19.4859 7.40458 19.891 8.00163C20.1895 8.4388 20.488 8.86585 20.7756 9.30302H20.2312C19.7306 9.2929 19.2186 9.2504 18.7179 9.27145C18.0358 9.30383 17.3431 9.37831 16.661 9.43174C15.7974 9.50663 14.9233 9.51675 14.0605 9.51675C13.7506 9.51675 13.4416 9.56006 13.1329 9.58151C12.7594 9.60256 12.3969 9.62401 12.0238 9.63413C11.5864 9.65599 11.1611 9.66652 10.7236 9.67745C10.4781 9.68797 10.2225 9.67745 9.95599 9.67745L9.9564 9.67542ZM22.1824 14.5814V14.6778C22.1719 14.6778 22.1614 14.6887 22.1399 14.6887C22.0974 14.5389 22.0548 14.3786 22.0014 14.2293C21.8948 13.9196 21.7774 13.6099 21.5854 13.3331C21.3715 13.0347 21.1803 12.7259 20.9664 12.4162C20.9138 12.3413 20.8384 12.2774 20.7744 12.2138C20.5504 11.9681 20.3264 11.7119 20.0388 11.531C19.6151 11.2654 19.1692 11.0367 18.7062 10.8477C18.5776 10.7925 18.4531 10.7284 18.3335 10.6558H18.5887L20.4115 10.6234C20.806 10.6133 21.19 10.6133 21.5841 10.5919C21.6797 10.5919 21.7332 10.6242 21.7867 10.7092C21.8823 10.8691 21.9783 11.029 22.0848 11.1893C22.0957 11.2104 22.1172 11.2419 22.1172 11.2743C22.1172 11.5091 22.1172 11.7544 22.1277 11.9892C22.1379 12.2345 22.1601 12.4693 22.1699 12.7146C22.1699 12.9599 22.1484 13.2157 22.1593 13.4715C22.1703 13.8346 22.1808 14.2082 22.1808 14.5806L22.1824 14.5814ZM10.7127 11.0096C11.2137 10.9881 11.6929 10.9562 12.1838 10.9347C12.5666 10.9133 12.9616 10.9023 13.3448 10.8813C13.5048 10.8712 13.6542 10.861 13.8138 10.8813C13.6437 10.9671 13.4728 11.0525 13.3237 11.159C13.1317 11.2869 12.951 11.4573 12.7586 11.5961C12.5662 11.7346 12.3957 11.9054 12.2361 12.0867C12.0336 12.3316 11.8096 12.5449 11.5961 12.7797C11.4462 12.9505 11.2761 13.1104 11.1485 13.2918C10.9674 13.5266 10.8074 13.7816 10.6369 14.0487C10.6904 13.0351 10.7544 12.0329 10.7114 11.0088L10.7127 11.0096ZM17.6737 21.2709C17.3322 21.3559 16.981 21.4523 16.6286 21.4948C16.3305 21.5377 16.021 21.5271 15.7119 21.5271C15.4378 21.5273 15.1638 21.5165 14.8905 21.4948C14.5814 21.4632 14.2723 21.4312 13.9738 21.2924C13.7174 21.175 13.4513 21.0685 13.1961 20.9402C12.9393 20.8123 12.6837 20.6633 12.4913 20.4285C12.3536 20.2573 12.1612 20.1189 11.9906 19.9695C12.023 20.0974 12.0972 20.2043 12.2146 20.2788C12.1612 20.3427 12.0866 20.3112 11.9797 20.1399C11.9481 20.1614 11.9161 20.1723 11.8946 20.1828C11.927 20.108 11.9586 20.0331 11.9906 19.9695C11.9481 19.8845 11.8946 19.7882 11.8521 19.7024C11.767 19.5639 11.682 19.415 11.607 19.2761C11.5856 19.2437 11.5856 19.2122 11.5645 19.1802C11.5113 19.1187 11.4613 19.0545 11.4146 18.9879C11.3296 18.8604 11.255 18.722 11.1485 18.5937C11.1485 18.626 11.1594 18.6576 11.1594 18.7005C11.1485 18.7005 11.138 18.711 11.138 18.711L10.9136 18.167C10.903 18.167 10.903 18.167 10.8925 18.1775L11.0841 18.8819C11.0736 18.8819 11.063 18.892 11.0517 18.892C11.0205 18.8499 10.9885 18.807 10.9666 18.7544C10.9456 18.6685 10.8816 18.6685 10.8289 18.7005C10.7965 18.722 10.775 18.7965 10.786 18.8284C10.8609 19.0098 10.946 19.1911 11.0314 19.3725C11.0525 19.4364 11.074 19.4899 11.106 19.5538C11.1169 19.5753 11.1489 19.5963 11.1489 19.6283C11.1918 19.7133 11.2238 19.7983 11.2769 19.8736C11.3729 20.0015 11.4794 20.1294 11.5754 20.2573C11.6706 20.3852 11.7557 20.5245 11.8412 20.652C11.8517 20.6734 11.8837 20.6734 11.8938 20.6844C11.9477 20.8443 12.1288 20.9612 12.2568 20.8973C12.2892 21.1426 12.5553 21.228 12.6618 21.4628C12.5572 21.4201 12.4541 21.3738 12.3528 21.3239C12.3418 21.3345 12.3418 21.345 12.3309 21.3664C12.4589 21.4304 12.5869 21.4943 12.7035 21.5688C12.8109 21.6336 12.9174 21.6971 13.0134 21.7712C13.1414 21.8886 13.2909 21.9534 13.4711 21.9955C13.4675 21.9798 13.4606 21.965 13.4509 21.9522C13.749 22.091 14.0585 22.2404 14.2926 22.3569C13.1839 22.3788 12.0008 22.4003 10.7746 22.4217C10.7746 22.2193 10.7641 22.027 10.7641 21.8242C10.7641 21.7392 10.7852 21.6644 10.7742 21.5789C10.7418 21.0892 10.7418 20.5977 10.6782 20.1177C10.6146 19.606 10.6146 19.1045 10.6256 18.5916C10.6357 18.3152 10.6146 18.0274 10.6037 17.7497C10.6037 17.3765 10.6037 17.013 10.615 16.6406C10.615 16.5871 10.6365 16.5446 10.658 16.4908H10.6904C10.7005 16.5127 10.6904 16.5446 10.7106 16.5556C10.743 16.5879 10.7965 16.6406 10.818 16.63C10.8816 16.5871 10.9776 16.545 10.999 16.4803C11.0517 16.3528 11.0736 16.2139 11.0736 16.086C11.0736 15.9905 11.1165 15.9265 11.1586 15.8622C11.1805 15.8298 11.191 15.7982 11.2125 15.7557C11.17 15.7233 11.1274 15.7023 11.074 15.6598C11.1169 15.5424 11.1064 15.4035 11.2664 15.34C11.2874 15.3291 11.2874 15.2752 11.2988 15.2437C11.3089 15.1574 11.319 15.0615 11.3304 14.9765C11.3514 15.0089 11.3628 15.019 11.383 15.04C11.3891 15.0284 11.3964 15.0176 11.4049 15.0077C11.4049 14.9656 11.3944 14.8802 11.4049 14.8802C11.5329 14.8587 11.4794 14.7203 11.5434 14.6563C11.5536 14.645 11.5325 14.613 11.5325 14.5915C11.5325 14.5705 11.5325 14.5389 11.543 14.5389C11.6917 14.5065 11.6706 14.3466 11.7666 14.2718C11.799 14.2503 11.8092 14.2191 11.8517 14.1653C11.9368 14.3143 11.7877 14.3892 11.7772 14.4956C11.9578 14.3892 12.0113 14.1333 11.9048 14.0584C11.9473 14.0261 11.9898 13.984 12.0222 13.9411C12.1397 13.8131 12.2669 13.6958 12.3738 13.5678C12.4488 13.4723 12.4913 13.3549 12.5658 13.259C12.6088 13.2056 12.6938 13.1631 12.7578 13.1307C12.9498 13.0246 13.1305 12.9072 13.2479 12.7259C13.2694 12.7044 13.3014 12.6834 13.333 12.6619C13.3654 12.6405 13.4294 12.6405 13.4399 12.6085C13.4509 12.5874 13.4189 12.534 13.3974 12.502C13.4395 12.4806 13.4825 12.4381 13.5675 12.3952C13.5351 12.4591 13.525 12.502 13.5035 12.5449L13.5562 12.5976C13.6526 12.5231 13.8017 12.4381 13.8977 12.3741C13.8977 12.364 13.8442 12.3215 13.8442 12.3215C13.7806 12.3539 13.6846 12.4065 13.589 12.4494C13.6093 12.417 13.6093 12.396 13.6214 12.3855C13.7701 12.2895 13.9191 12.1936 14.0791 12.1183C14.4518 11.9483 14.8253 11.7775 15.1983 11.6176C15.2623 11.5852 15.3482 11.6071 15.4223 11.6071C15.4539 11.6071 15.475 11.6071 15.5074 11.5965C15.6775 11.5431 15.8484 11.4897 16.019 11.4468C16.0931 11.4257 16.1782 11.4152 16.2539 11.4152C16.5727 11.4253 16.8927 11.4253 17.2123 11.4468C17.3508 11.4573 17.4788 11.4893 17.6068 11.5318C17.7709 11.5888 17.9311 11.6564 18.0864 11.7342C18.2675 11.8313 18.438 11.9374 18.609 12.0548C18.918 12.2571 19.2056 12.4814 19.5147 12.6627C19.8132 12.8441 20.0477 13.0894 20.2397 13.3671C20.4747 13.6974 20.7408 13.9961 20.8473 14.4013L21.0069 15.1056C21.0393 15.2335 21.1139 15.3614 21.0819 15.5104C21.028 15.7776 20.9855 16.0548 20.9429 16.3216C20.9219 16.4289 20.9004 16.5361 20.9113 16.6414C20.9316 16.9733 20.804 17.2607 20.6764 17.5594C20.6335 17.6554 20.5695 17.7517 20.5164 17.8582C20.5425 17.8766 20.5711 17.891 20.6015 17.9011L20.6975 17.7092C20.7084 17.7092 20.7084 17.7092 20.7189 17.7201C20.6655 17.8691 20.6229 18.0294 20.5691 18.1788C20.4419 18.5095 20.3139 18.8507 20.1539 19.1705C20.0688 19.3518 19.9189 19.5012 19.8128 19.6724C19.7067 19.8214 19.6212 19.9813 19.5147 20.1201C19.4187 20.2375 19.3231 20.3549 19.1947 20.4399C18.9071 20.6532 18.6086 20.8665 18.2995 21.0373C18.1079 21.1547 17.8839 21.2187 17.6708 21.2721L17.6737 21.2709ZM11.9918 20.7042L11.9813 20.7151C11.959 20.7046 11.927 20.6941 11.906 20.6726L11.65 20.2881C11.6289 20.2565 11.6176 20.2245 11.6289 20.182C11.7464 20.3634 11.8642 20.5342 11.9918 20.7042ZM18.6227 22.1655C19.1019 21.9631 19.4965 21.6757 19.8582 21.3446C19.912 21.2911 19.9651 21.2381 20.0291 21.1948C20.4771 20.9179 20.8068 20.5338 21.1058 20.1071C21.4468 19.6165 21.6708 19.062 21.9483 18.5394C21.9671 18.499 21.9883 18.4598 22.0119 18.422C21.9904 19.638 22.1294 20.8325 22.289 22.038C21.0847 22.0805 19.8586 22.123 18.6223 22.1659L18.6227 22.1655ZM29.431 21.8457C29.4205 21.8672 29.3986 21.8886 29.3885 21.9105C29.3776 21.8886 29.3776 21.8566 29.367 21.8133C29.303 21.9845 29.1645 21.8991 29.0685 21.8991C28.4933 21.9101 27.9068 21.9101 27.3308 21.9101C26.7767 21.9101 26.212 21.9101 25.6579 21.9198C25.4764 21.9198 25.2844 21.9623 25.1029 21.9732C24.6663 21.9943 24.2292 22.0056 23.7921 22.0157C23.7597 22.0157 23.7281 21.9631 23.6747 21.9202C23.6559 21.9538 23.6345 21.9859 23.6107 22.0161C23.5993 21.9951 23.5783 21.974 23.5568 21.942C23.5463 21.9744 23.5353 22.006 23.5244 22.027H23.4936C23.4721 21.8781 23.4296 21.7396 23.4296 21.5899C23.4296 21.2701 23.462 20.9503 23.4721 20.6297C23.4831 20.4808 23.4721 20.3423 23.4721 20.2031C23.5151 20.2355 23.5471 20.2569 23.5896 20.2881C23.6107 20.2464 23.6321 20.2144 23.6536 20.1828C23.6536 20.1828 23.6321 20.1715 23.6107 20.1505C23.6309 20.1395 23.6528 20.1181 23.6528 20.1076C23.6633 20.0752 23.6852 20.0436 23.6852 20.0225C23.6852 19.9477 23.6633 19.8837 23.6528 19.8202C23.6633 19.8202 23.6739 19.8202 23.6852 19.8088L23.7488 20.1286H23.7812C23.7383 20.0545 23.8768 19.9902 23.7597 19.9052C23.7492 19.8942 23.7703 19.8303 23.7703 19.7983C23.7379 19.7347 23.7176 19.6708 23.6852 19.5854C23.6957 19.5749 23.7277 19.5639 23.7597 19.553C23.7172 19.5319 23.6852 19.5109 23.6532 19.5004C23.7597 19.404 23.7597 19.3506 23.6637 19.2441C23.6856 19.234 23.7067 19.234 23.7067 19.2239C23.7067 19.1276 23.7067 19.0316 23.6856 18.9365C23.6641 18.8288 23.718 18.7017 23.5576 18.637C23.5681 18.6694 23.5791 18.6904 23.6001 18.722C23.6001 18.722 23.5677 18.7329 23.5361 18.7544C23.3976 18.626 23.4835 18.4548 23.4511 18.2634C23.5256 18.2848 23.5791 18.3063 23.6321 18.3281C23.6107 18.2528 23.5576 18.1674 23.5256 18.0715H23.4823V17.3672C23.4823 17.3781 23.5568 17.3781 23.5997 17.389C23.5997 17.3781 23.6099 17.3676 23.6099 17.3566C23.5775 17.3141 23.5349 17.2716 23.4924 17.2182L23.5139 17.1967C23.4288 17.0907 23.4713 16.9417 23.4713 16.9093V16.1625C23.5783 16.2694 23.4187 16.4078 23.5783 16.4718V16.3653H23.5673C23.5568 16.2054 23.5568 16.0455 23.5463 15.8852H23.5252C23.5143 15.9071 23.5143 15.9176 23.5033 15.9391H23.4823L23.5463 13.3897C23.6528 13.5282 23.7699 13.6569 23.8444 13.7945C24.0899 14.243 24.4095 14.6272 24.708 15.0324C24.964 15.3845 25.1981 15.7683 25.4331 16.1309C25.7207 16.5681 25.9977 17.0053 26.2857 17.4424C26.4988 17.7736 26.7232 18.1043 26.946 18.4245C27.1485 18.7119 27.3624 18.9895 27.5754 19.2672C27.7561 19.5125 27.9481 19.7578 28.1292 20.0031C28.3426 20.3019 28.5557 20.6002 28.7692 20.8884C28.8753 21.0373 28.9928 21.1867 29.1094 21.3361C29.1742 21.4211 29.2698 21.4858 29.3338 21.5385C29.3237 21.5385 29.3128 21.5385 29.2917 21.5279C29.3241 21.5704 29.3443 21.6024 29.3662 21.6239C29.4837 21.6878 29.4942 21.7518 29.4302 21.8481L29.431 21.8457ZM29.9746 19.1798V19.1049C29.9746 19.1259 29.9852 19.1579 29.9746 19.1798ZM30.3372 14.4762C30.3262 14.4762 30.2626 14.4114 30.2521 14.4009C30.2412 14.4333 30.2521 14.4648 30.2306 14.5078C30.2197 14.4762 30.1456 14.4867 30.1456 14.4551C30.1346 14.6041 30.2092 14.7535 30.1982 14.9028C30.2306 14.8814 30.3582 14.8704 30.3902 14.8389C30.4012 14.8494 30.4226 14.8599 30.4332 14.8599C30.2197 15.0202 30.2732 15.1797 30.3692 15.3618C30.3902 15.4039 30.4542 15.4894 30.3902 15.5748C30.3692 15.5962 30.4012 15.6598 30.4117 15.7136H30.4429V15.7338L30.3469 15.7662C30.3258 15.7338 30.1982 15.6707 30.1982 15.6165V16.1613C30.3048 16.1937 30.3048 16.3426 30.3473 16.4175C30.3659 16.3915 30.3805 16.3629 30.3906 16.3325L30.4016 16.3422C30.3906 16.4062 30.3801 16.4702 30.3586 16.5345C30.3376 16.63 30.3161 16.7155 30.306 16.8114C30.306 16.8219 30.3262 16.8438 30.3262 16.8539C30.2096 17.121 30.2736 17.419 30.231 17.6958C30.1986 17.8982 30.231 18.1128 30.2096 18.3257C30.1877 18.507 30.1448 18.6989 30.1026 18.8802C30.0917 18.9126 30.0702 18.9227 30.0176 18.9442C30.0386 18.8163 30.0281 18.7309 30.0066 18.6135C29.9953 18.6135 29.8568 18.539 29.8458 18.539C29.8458 18.6888 29.9309 18.8912 29.9633 19.0612C29.9309 19.0507 29.8033 18.9762 29.7932 18.9762C29.7713 19.1041 29.7713 19.2749 29.7608 19.4133C29.7498 19.5202 29.6542 19.6157 29.6433 19.7331C29.6433 19.7979 29.7178 19.84 29.7073 19.9469H29.7923C29.7923 19.7339 29.8888 19.5421 29.8888 19.3178H29.9203C29.9313 19.3393 29.9633 19.3607 29.9528 19.3712C29.9313 19.4886 29.8879 19.6165 29.8993 19.7339C29.8993 19.7979 29.9519 19.8618 29.9317 19.9363C29.9098 20.0011 29.8993 20.0646 29.8883 20.1606C29.8774 20.1071 29.8669 20.0861 29.8669 20.0541C29.8563 20.0541 29.7603 20.0432 29.7494 20.0432C29.7389 20.1071 29.8243 20.1711 29.8134 20.2245C29.8029 20.2351 29.7923 20.2351 29.7709 20.246L29.4193 19.7335C29.1414 19.3287 28.8643 18.9227 28.5873 18.507C28.5154 18.4053 28.4511 18.2984 28.3949 18.1873C28.0652 17.6196 27.6985 17.0743 27.2972 16.5548C26.9885 16.1605 26.7422 15.733 26.4546 15.3181C26.1889 14.9235 25.9224 14.5393 25.6558 14.1443C25.5598 14.0167 25.4428 13.8994 25.3573 13.7605C25.0807 13.3233 24.8348 12.8753 24.5585 12.4381C24.3236 12.075 24.0684 11.7228 23.8229 11.3711C23.7379 11.2537 23.6528 11.1254 23.5669 10.9975C23.5536 10.9752 23.5463 10.9498 23.5459 10.9238C23.5244 10.689 23.5029 10.4542 23.4924 10.2304C23.4924 10.0171 23.5139 9.80374 23.5139 9.57949V9.38762C23.5139 9.33419 23.524 9.29168 23.524 9.23785C23.5341 9.22773 23.5451 9.20628 23.5556 9.19575C23.2465 9.19575 22.9265 9.18442 22.6175 9.19575C22.4149 9.20587 22.3084 9.12046 22.1699 8.9711C21.7648 8.51247 21.4663 7.98989 21.1147 7.49929C20.7832 7.03251 20.4456 6.57007 20.102 6.1121C19.8246 5.73888 19.5471 5.3762 19.2704 5.00298C18.961 4.57634 18.6628 4.1497 18.3428 3.72305C17.9551 3.2087 17.5643 2.69677 17.1702 2.1873C16.9879 1.95252 16.7854 1.72867 16.5828 1.48297C16.7218 1.50483 16.8502 1.52588 16.9778 1.5368L17.4898 1.56919C17.8734 1.60036 18.257 1.62181 18.6401 1.67443C18.9601 1.71774 19.2801 1.7817 19.6107 1.83473C20.3147 1.95211 21.0073 2.14439 21.6789 2.36823C22.0735 2.49615 22.4567 2.66697 22.8415 2.82686C23.7042 3.17902 24.5253 3.60566 25.3354 4.05336C25.5906 4.1922 25.7405 4.41604 25.9317 4.61884C26.2092 4.90705 26.4866 5.19485 26.7528 5.49318C27.0614 5.84534 27.349 6.20803 27.6479 6.57072C27.9141 6.8905 28.1907 7.21028 28.4581 7.53087C28.5431 7.6268 28.6079 7.74419 28.6817 7.85065C28.8518 8.10688 29.0442 8.35258 29.1933 8.62946C29.2994 8.83266 29.3634 9.06743 29.4379 9.29128C29.544 9.62199 29.651 9.94177 29.7579 10.2725C29.832 10.5178 29.8956 10.7744 29.9491 11.0294C29.992 11.2007 29.9815 11.3816 30.0342 11.5516C30.099 11.7767 30.0342 12.0212 30.099 12.2458C30.1091 12.2673 30.1192 12.2992 30.1306 12.3207C30.1731 12.3628 30.2051 12.4057 30.1411 12.4697C30.131 12.4802 30.131 12.5223 30.1411 12.5547C30.163 12.5336 30.1735 12.5122 30.195 12.4802C30.195 12.5016 30.2051 12.5126 30.2051 12.5227C30.2051 12.5648 30.1942 12.6077 30.2051 12.6502C30.2051 12.6712 30.2262 12.7028 30.2367 12.7247C30.2582 12.7028 30.2792 12.6923 30.3218 12.6599C30.4178 13.023 30.4287 13.3857 30.4287 13.7589C30.4287 14.1111 30.4923 14.4632 30.3436 14.8045C30.3752 14.6871 30.3007 14.5798 30.3327 14.4733L30.3372 14.4762Z" fill="#DD3A0A"/>
<path fill-rule="evenodd" clip-rule="evenodd" d="M23.526 18.6241C23.5361 18.6241 23.5471 18.635 23.5471 18.635L23.5361 18.6229C23.5361 18.6128 23.5361 18.6128 23.5256 18.6229L23.526 18.6241ZM25.2099 29.1631C25.0924 29.2481 24.9749 29.323 24.8259 29.355C24.8145 29.3444 24.8145 29.3335 24.804 29.3226C24.9215 29.2481 25.049 29.1736 25.1665 29.0987C25.1775 29.119 25.1989 29.1408 25.2095 29.1623L25.2099 29.1631ZM5.22322 14.709C5.34069 14.5605 5.45816 14.4111 5.58535 14.2617C5.59548 14.2722 5.68054 14.2941 5.69148 14.3042C5.57401 14.454 5.41401 14.6564 5.29695 14.8163C5.27507 14.7948 5.24307 14.7203 5.22201 14.7094L5.22322 14.709ZM2.19538 19.9368C2.11031 19.7555 2.02525 19.5632 1.94019 19.3823C1.96984 19.3635 2.00203 19.349 2.03578 19.3393C2.15325 19.5094 2.20591 19.7117 2.29178 19.8939C2.29178 19.8939 2.20672 19.9364 2.19578 19.9364L2.19538 19.9368ZM4.91416 14.8163C4.85016 14.9126 4.78616 15.0195 4.72216 15.1158C4.71163 15.1045 4.59416 15.1579 4.58363 15.1474C4.64763 15.0515 4.80722 14.8802 4.87122 14.7847C4.88216 14.7952 4.89269 14.8062 4.91416 14.8171V14.8163ZM24.0696 29.6011C24.0797 29.6011 24.0797 29.5905 24.0907 29.5905C24.1652 29.6011 24.2503 29.6116 24.3357 29.6116C24.1964 29.7075 24.1109 29.6966 24.0684 29.6011H24.0696ZM4.93441 15.2644C4.94576 15.232 4.96682 15.2004 4.98829 15.1684C5.00935 15.1684 5.04095 15.1575 5.04095 15.1575C5.08429 15.083 5.08429 15.0296 5.12682 14.9656C5.11629 14.9551 5.10535 14.9551 5.09441 14.9442C5.03082 14.9879 4.96682 15.0413 4.90282 15.0838C4.92429 15.1049 4.92429 15.1162 4.92429 15.1373C4.83922 15.1263 4.80682 15.1697 4.76429 15.2862C4.75376 15.3186 4.70029 15.3291 4.64682 15.3712C4.63629 15.3931 4.62576 15.4465 4.60429 15.4996L4.61522 15.5109C4.59376 15.5323 4.56176 15.5433 4.56176 15.5433C4.49776 15.6068 4.42322 15.6607 4.35922 15.7242C4.34869 15.7566 4.33816 15.7882 4.33816 15.8201C4.4131 15.7457 4.54069 15.6068 4.63669 15.5214L4.64763 15.5323C4.69016 15.4684 4.72216 15.4044 4.7651 15.3405C4.77522 15.351 4.77522 15.3615 4.78616 15.3729C4.75376 15.4579 4.72216 15.5534 4.69016 15.6388C4.66788 15.6493 4.63588 15.6712 4.63588 15.6603C4.59335 15.6926 4.56135 15.7347 4.51841 15.7667L4.32682 15.8946C4.22029 15.9906 4.11376 16.0756 3.99629 16.1719C3.92176 16.2893 3.84722 16.3957 3.76135 16.5346C3.88976 16.5022 3.92176 16.556 3.91122 16.6629C4.06029 16.684 4.07122 16.567 4.11376 16.4816C4.12429 16.4597 4.13522 16.4168 4.15629 16.4063C4.25229 16.3213 4.35882 16.2468 4.46535 16.1614C4.48682 16.1399 4.48682 16.0966 4.48682 16.065C4.48682 16.0545 4.43295 16.0545 4.40095 16.0436C4.49695 15.9367 4.63588 15.7562 4.73148 15.6388C4.78495 15.6064 4.83801 15.5635 4.83801 15.5315C4.82748 15.4141 4.90201 15.3826 4.98788 15.3397C4.94495 15.3073 4.93401 15.2761 4.93401 15.2656L4.93441 15.2644Z" fill="#DD3735"/>
<path fill-rule="evenodd" clip-rule="evenodd" d="M5.14824 15.1482C5.10571 15.2227 5.06318 15.2867 5.02064 15.3615L4.95664 15.3292C4.91411 15.5741 4.76464 15.7874 4.61558 15.8299C4.65811 15.8513 4.70064 15.8728 4.73305 15.8623C4.76464 15.8513 4.78571 15.7975 4.80717 15.7659L5.09477 15.3498L5.19117 15.1895L5.14864 15.147L5.14824 15.1482ZM1.59907 19.8308C1.65254 19.8308 1.70601 19.8413 1.7692 19.8413C1.7692 19.7988 1.82307 19.8089 1.82307 19.7668H1.85548C1.85548 19.8202 1.86601 19.8628 1.86601 19.9166H1.64241C1.63148 19.9057 1.58854 19.8413 1.59907 19.8308ZM1.51401 19.3402C1.4816 19.3078 1.42895 19.2762 1.42895 19.2442C1.41801 19.2021 1.45001 19.1491 1.4816 19.0957C1.50348 19.1702 1.51401 19.2341 1.53507 19.309C1.52414 19.3191 1.5136 19.3301 1.5136 19.3406L1.51401 19.3402ZM1.78054 18.6573C1.82307 18.765 1.8656 18.8824 1.90854 18.9892C1.8783 18.9993 1.84966 19.0136 1.82348 19.0317C1.78095 18.9249 1.72748 18.8075 1.68495 18.701C1.71374 18.6804 1.74639 18.6658 1.78095 18.6581L1.78054 18.6573ZM25.5092 28.8555C25.5618 28.8344 25.6258 28.8231 25.7117 28.8028C25.6153 28.8769 25.5407 28.9304 25.4767 28.9943C25.4658 28.9838 25.4553 28.9729 25.4443 28.9729C25.4658 28.9303 25.4873 28.8984 25.5092 28.8555ZM12.407 6.31661C12.4706 6.2737 12.5244 6.24172 12.588 6.19922L12.6091 6.22027C12.5443 6.30527 12.4916 6.39028 12.4167 6.49755C12.4062 6.42347 12.4062 6.38016 12.3952 6.32754C12.3847 6.32754 12.3952 6.32754 12.4062 6.31701L12.407 6.31661ZM15.53 11.7136C15.626 11.6707 15.722 11.6286 15.8391 11.5748C15.8285 11.6387 15.8285 11.6816 15.8285 11.7245C15.7942 11.7121 15.7581 11.7047 15.7216 11.7027C15.6576 11.7136 15.5401 11.799 15.4867 11.8095C15.4765 11.8095 15.53 11.7245 15.53 11.7136ZM23.526 20.7589C23.547 20.8654 23.7496 20.9188 23.547 21.0253C23.5794 21.0476 23.6106 21.0577 23.6426 21.0795C23.6426 21.0905 23.6321 21.1119 23.6216 21.1224C23.6001 21.1326 23.5576 21.154 23.5365 21.1427C23.5256 21.1427 23.5041 21.1006 23.5041 21.0791C23.5041 20.9832 23.515 20.8873 23.5256 20.7594L23.526 20.7589Z" fill="#DD3735"/>
</g>
<defs>
<clipPath id="clip0_303_758">
<rect width="32" height="32" fill="white"/>
</clipPath>
</defs>
</svg>
