<svg width="32" height="32" viewBox="0 0 32 32" fill="none" xmlns="http://www.w3.org/2000/svg">
<path d="M15.8769 6.40039C11.6433 6.40039 8.99818 8.53289 7.93896 12.7996C9.52606 10.6669 11.3788 9.86714 13.4951 10.4004C14.7034 10.7039 15.5669 11.5869 16.5231 12.5654C18.0795 14.1571 19.8809 15.9999 23.8149 15.9999C28.0484 15.9999 30.6937 13.8671 31.7529 9.59939C30.1656 11.7334 28.3131 12.5331 26.1966 11.9999C24.9885 11.6961 24.126 10.8134 23.1685 9.83489C21.6131 8.24314 19.8122 6.40039 15.8769 6.40039ZM7.93896 15.9999C3.70553 15.9999 1.0602 18.1326 0.000976562 22.4004C1.58808 20.2664 3.4406 19.4666 5.55707 19.9999C6.76538 20.3036 7.62888 21.1864 8.58516 22.1649C10.1415 23.7566 11.9429 25.5994 15.8769 25.5994C20.1104 25.5994 22.7557 23.4669 23.8149 19.2001C22.2276 21.3329 20.3751 22.1326 18.2586 21.5994C17.0505 21.2959 16.188 20.4129 15.2305 19.4344C13.6751 17.8426 11.8742 15.9999 7.93896 15.9999Z" fill="#38B2AC"/>
</svg>
