<svg width="32" height="32" viewBox="0 0 32 32" fill="none" xmlns="http://www.w3.org/2000/svg">
<g clip-path="url(#clip0_303_768)">
<path d="M5.66748 11.75H30.585V30.1675H5.66748V11.75Z" fill="white"/>
<path d="M0.375 15.9766V31.6016H31.625V0.351562H0.375V15.9766ZM25.5575 14.7266C26.306 14.9003 26.9863 15.2917 27.5125 15.8516C27.8023 16.1532 28.054 16.489 28.2625 16.8516C28.2625 16.8916 26.9125 17.8041 26.09 18.3141C26.06 18.3341 25.94 18.2041 25.8075 18.0066C25.6573 17.7475 25.444 17.5307 25.1875 17.3763C24.9308 17.222 24.6393 17.1352 24.34 17.1241C23.3925 17.0591 22.7825 17.5566 22.7875 18.3741C22.7797 18.5776 22.8263 18.7795 22.9225 18.9591C23.13 19.3916 23.5175 19.6491 24.7325 20.1741C26.97 21.1366 27.9275 21.7716 28.5225 22.6741C29.1875 23.6741 29.335 25.2891 28.885 26.4841C28.385 27.7841 27.16 28.6666 25.4275 28.9591C24.6362 29.0498 23.8367 29.0413 23.0475 28.9341C21.8379 28.7346 20.7237 28.1538 19.8675 27.2766C19.58 26.9591 19.02 26.1316 19.055 26.0716C19.1463 26.0038 19.2424 25.9428 19.3425 25.8891L20.5 25.2491L21.3975 24.7291L21.585 25.0066C21.9014 25.4593 22.3042 25.8448 22.77 26.1416C23.77 26.6666 25.135 26.5941 25.81 25.9866C26.0367 25.7641 26.178 25.4688 26.2095 25.1528C26.241 24.8367 26.1608 24.5195 25.9825 24.2566C25.7325 23.9091 25.2325 23.6166 23.835 23.0066C22.2225 22.3116 21.5275 21.8816 20.8925 21.1966C20.4961 20.7445 20.2034 20.2112 20.035 19.6341C19.9094 18.9747 19.8908 18.2994 19.98 17.6341C20.3125 16.0766 21.48 14.9891 23.185 14.6666C23.9746 14.5689 24.7744 14.5908 25.5575 14.7316V14.7266ZM18.2225 16.0366V17.3166H14.165V28.8741H11.2875V17.3141H7.22V16.0641C7.20732 15.633 7.21735 15.2016 7.25 14.7716C7.27 14.7491 9.75 14.7491 12.75 14.7491H18.2075L18.2225 16.0366Z" fill="#007ACC"/>
</g>
<defs>
<clipPath id="clip0_303_768">
<rect width="32" height="32" fill="white"/>
</clipPath>
</defs>
</svg>
