<svg width="32" height="32" viewBox="0 0 32 32" fill="none" xmlns="http://www.w3.org/2000/svg">
<path d="M29.8836 6.146L16.7418 29.6457C16.4704 30.1308 15.7734 30.1337 15.4979 29.6509L2.09555 6.1482C1.79555 5.622 2.24535 4.9847 2.84155 5.0912L15.9976 7.4428C16.0815 7.45781 16.1674 7.45767 16.2513 7.4424L29.1321 5.0946C29.7263 4.9863 30.1784 5.6188 29.8836 6.146Z" fill="url(#paint0_linear_304_813)"/>
<path d="M22.2644 2.0069L12.5391 3.9125C12.4613 3.92771 12.3909 3.96833 12.3388 4.02796C12.2866 4.08758 12.2558 4.16285 12.2512 4.2419L11.653 14.3457C11.639 14.5837 11.8575 14.7684 12.0897 14.7148L14.7974 14.09C15.0508 14.0315 15.2797 14.2547 15.2276 14.5094L14.4232 18.4487C14.369 18.7137 14.6179 18.9405 14.8768 18.8619L16.5492 18.3537C16.8085 18.275 17.0576 18.5024 17.0028 18.7677L15.7244 24.9554C15.6444 25.3424 16.1592 25.5534 16.3739 25.2216L16.5173 25L24.442 9.1848C24.5747 8.92 24.346 8.6181 24.055 8.6742L21.268 9.2121C21.006 9.2626 20.7832 9.0187 20.8571 8.7624L22.6762 2.4564C22.7502 2.1996 22.5266 1.9555 22.2644 2.0069Z" fill="url(#paint1_linear_304_813)"/>
<defs>
<linearGradient id="paint0_linear_304_813" x1="1.76829" y1="1.06953" x2="20.6702" y2="23.9177" gradientUnits="userSpaceOnUse">
<stop stop-color="#41D1FF"/>
<stop offset="1" stop-color="#BD34FE"/>
</linearGradient>
<linearGradient id="paint1_linear_304_813" x1="15.2417" y1="2.5242" x2="18.2003" y2="22.8197" gradientUnits="userSpaceOnUse">
<stop stop-color="#FFEA83"/>
<stop offset="0.0833" stop-color="#FFDD35"/>
<stop offset="1" stop-color="#FFA800"/>
</linearGradient>
</defs>
</svg>
