<svg width="128" height="128" viewBox="0 0 128 128" fill="none" xmlns="http://www.w3.org/2000/svg">
<path d="M124.766 18.859L67.3226 123.103C66.1365 125.255 63.0895 125.268 61.8857 123.126L3.30344 18.8691C1.99196 16.5351 3.95858 13.708 6.56475 14.1807L64.0695 24.612C64.4363 24.6785 64.8119 24.6779 65.1787 24.6101L121.481 14.1957C124.078 13.7152 126.054 16.5204 124.766 18.859Z" fill="url(#paint0_linear_260_744)"/>
<path d="M91.4623 0.498853L48.9526 8.95217C48.2539 9.09111 47.7366 9.69201 47.6944 10.4131L45.0795 55.2333C45.018 56.289 45.9733 57.1083 46.9885 56.8707L58.8239 54.0987C59.9312 53.8396 60.9318 54.8293 60.7042 55.9595L57.188 73.4337C56.9513 74.6098 58.0393 75.6154 59.171 75.2666L66.4811 73.0126C67.6143 72.6635 68.7033 73.672 68.4635 74.849L62.8755 102.297C62.5259 104.014 64.7762 104.95 65.7146 103.478L66.3415 102.495L100.981 32.3397C101.561 31.165 100.561 29.8256 99.2894 30.0746L87.1069 32.4607C85.9621 32.6847 84.988 31.6027 85.3111 30.466L93.2624 2.49251C93.5859 1.3539 92.6084 0.270981 91.4623 0.498853Z" fill="url(#paint1_linear_260_744)"/>
<defs>
<linearGradient id="paint0_linear_260_744" x1="1.87311" y1="10.4552" x2="74.7385" y2="107.964" gradientUnits="userSpaceOnUse">
<stop stop-color="#41D1FF"/>
<stop offset="1" stop-color="#BD34FE"/>
</linearGradient>
<linearGradient id="paint1_linear_260_744" x1="60.7692" y1="2.79391" x2="74.0805" y2="92.7722" gradientUnits="userSpaceOnUse">
<stop stop-color="#FFEA83"/>
<stop offset="0.0833333" stop-color="#FFDD35"/>
<stop offset="1" stop-color="#FFA800"/>
</linearGradient>
</defs>
</svg>
