<svg width="32" height="32" viewBox="0 0 32 32" fill="none" xmlns="http://www.w3.org/2000/svg">
<path d="M23.5223 2.14648V17.0114C23.5223 21.166 20.1546 24.5337 16 24.5337C11.8455 24.5337 8.47778 21.166 8.47778 17.0114V2.14648H13.7994V17.0114C13.7994 17.3004 13.8563 17.5866 13.9669 17.8536C14.0775 18.1206 14.2396 18.3632 14.4439 18.5675C14.6483 18.7719 14.8909 18.934 15.1579 19.0446C15.4249 19.1552 15.711 19.2121 16 19.2121C16.289 19.2121 16.5752 19.1552 16.8422 19.0446C17.1092 18.934 17.3518 18.7719 17.5561 18.5675C17.7605 18.3632 17.9226 18.1206 18.0332 17.8536C18.1437 17.5866 18.2007 17.3004 18.2007 17.0114V2.14648H23.5223Z" fill="#35495E"/>
<path d="M28.8435 2.14648V17.0114C28.8435 24.1049 23.0935 29.8569 16 29.8569C8.90657 29.8569 3.15649 24.1049 3.15649 17.0114V2.14648H8.47777V17.0114C8.47777 21.166 11.8458 24.5337 16 24.5337C20.1543 24.5337 23.5223 21.166 23.5223 17.0114V2.14648H28.8435Z" fill="#41B883"/>
</svg>
