<svg width="0" height="0" class="hidden">
  <symbol fill="none" xmlns="http://www.w3.org/2000/svg" viewBox="0 0 24 24" id="Book">
    <path d="M17 2H5C4.73478 2 4.48043 2.10536 4.29289 2.29289C4.10536 2.48043 4 2.73478 4 3V19C4 19.2652 4.10536 19.5196 4.29289 19.7071C4.48043 19.8946 4.73478 20 5 20H6V21C6 21.2652 6.10536 21.5196 6.29289 21.7071C6.48043 21.8946 6.73478 22 7 22C7.26522 22 7.51957 21.8946 7.70711 21.7071C7.89464 21.5196 8 21.2652 8 21V20H17C17.7956 20 18.5587 19.6839 19.1213 19.1213C19.6839 18.5587 20 17.7956 20 17V5C20 4.20435 19.6839 3.44129 19.1213 2.87868C18.5587 2.31607 17.7956 2 17 2ZM14 18H6V4H14V18ZM18 17C18 17.2652 17.8946 17.5196 17.7071 17.7071C17.5196 17.8946 17.2652 18 17 18H16V4H17C17.2652 4 17.5196 4.10536 17.7071 4.29289C17.8946 4.48043 18 4.73478 18 5V17Z" fill="#F2F2F2"></path>
  </symbol>
  <symbol fill="none" xmlns="http://www.w3.org/2000/svg" viewBox="0 0 24 24" id="Cancel">
    <path d="M13.41 11.9999L17.71 7.70994C17.8983 7.52164 18.0041 7.26624 18.0041 6.99994C18.0041 6.73364 17.8983 6.47825 17.71 6.28994C17.5217 6.10164 17.2663 5.99585 17 5.99585C16.7337 5.99585 16.4783 6.10164 16.29 6.28994L12 10.5899L7.71 6.28994C7.5217 6.10164 7.2663 5.99585 7 5.99585C6.7337 5.99585 6.4783 6.10164 6.29 6.28994C6.1017 6.47825 5.99591 6.73364 5.99591 6.99994C5.99591 7.26624 6.1017 7.52164 6.29 7.70994L10.59 11.9999L6.29 16.2899C6.19627 16.3829 6.12188 16.4935 6.07111 16.6154C6.02034 16.7372 5.9942 16.8679 5.9942 16.9999C5.9942 17.132 6.02034 17.2627 6.07111 17.3845C6.12188 17.5064 6.19627 17.617 6.29 17.7099C6.38296 17.8037 6.49356 17.8781 6.61542 17.9288C6.73728 17.9796 6.86799 18.0057 7 18.0057C7.13201 18.0057 7.26272 17.9796 7.38458 17.9288C7.50644 17.8781 7.61704 17.8037 7.71 17.7099L12 13.4099L16.29 17.7099C16.383 17.8037 16.4936 17.8781 16.6154 17.9288C16.7373 17.9796 16.868 18.0057 17 18.0057C17.132 18.0057 17.2627 17.9796 17.3846 17.9288C17.5064 17.8781 17.617 17.8037 17.71 17.7099C17.8037 17.617 17.8781 17.5064 17.9289 17.3845C17.9797 17.2627 18.0058 17.132 18.0058 16.9999C18.0058 16.8679 17.9797 16.7372 17.9289 16.6154C17.8781 16.4935 17.8037 16.3829 17.71 16.2899L13.41 11.9999Z" fill="#F2F2F2"></path>
  </symbol>
  <symbol fill="none" xmlns="http://www.w3.org/2000/svg" viewBox="0 0 24 24" id="ExternalLink">
    <path d="M18 10.82C17.7348 10.82 17.4804 10.9254 17.2929 11.1129C17.1054 11.3004 17 11.5548 17 11.82V19C17 19.2652 16.8946 19.5196 16.7071 19.7071C16.5196 19.8946 16.2652 20 16 20H5C4.73478 20 4.48043 19.8946 4.29289 19.7071C4.10536 19.5196 4 19.2652 4 19V8C4 7.73478 4.10536 7.48043 4.29289 7.29289C4.48043 7.10536 4.73478 7 5 7H12.18C12.4452 7 12.6996 6.89464 12.8871 6.70711C13.0746 6.51957 13.18 6.26522 13.18 6C13.18 5.73478 13.0746 5.48043 12.8871 5.29289C12.6996 5.10536 12.4452 5 12.18 5H5C4.20435 5 3.44129 5.31607 2.87868 5.87868C2.31607 6.44129 2 7.20435 2 8V19C2 19.7956 2.31607 20.5587 2.87868 21.1213C3.44129 21.6839 4.20435 22 5 22H16C16.7956 22 17.5587 21.6839 18.1213 21.1213C18.6839 20.5587 19 19.7956 19 19V11.82C19 11.5548 18.8946 11.3004 18.7071 11.1129C18.5196 10.9254 18.2652 10.82 18 10.82ZM21.92 2.62C21.8185 2.37565 21.6243 2.18147 21.38 2.08C21.2598 2.02876 21.1307 2.00158 21 2H15C14.7348 2 14.4804 2.10536 14.2929 2.29289C14.1054 2.48043 14 2.73478 14 3C14 3.26522 14.1054 3.51957 14.2929 3.70711C14.4804 3.89464 14.7348 4 15 4H18.59L8.29 14.29C8.19627 14.383 8.12188 14.4936 8.07111 14.6154C8.02034 14.7373 7.9942 14.868 7.9942 15C7.9942 15.132 8.02034 15.2627 8.07111 15.3846C8.12188 15.5064 8.19627 15.617 8.29 15.71C8.38296 15.8037 8.49356 15.8781 8.61542 15.9289C8.73728 15.9797 8.86799 16.0058 9 16.0058C9.13201 16.0058 9.26272 15.9797 9.38458 15.9289C9.50644 15.8781 9.61704 15.8037 9.71 15.71L20 5.41V9C20 9.26522 20.1054 9.51957 20.2929 9.70711C20.4804 9.89464 20.7348 10 21 10C21.2652 10 21.5196 9.89464 21.7071 9.70711C21.8946 9.51957 22 9.26522 22 9V3C21.9984 2.86932 21.9712 2.74022 21.92 2.62Z" fill="#F2F2F2"></path>
  </symbol>
  <symbol fill="none" xmlns="http://www.w3.org/2000/svg" viewBox="0 0 24 24" id="Github">
    <path d="M12 2.2467C9.6255 2.2468 7.32849 3.09182 5.51999 4.63055C3.71149 6.16929 2.50953 8.30133 2.12916 10.6452C1.74879 12.989 2.21485 15.3918 3.44393 17.4235C4.67301 19.4551 6.58491 20.9832 8.83755 21.7342C9.33755 21.8217 9.52505 21.5217 9.52505 21.2592C9.52505 21.0217 9.51254 20.2342 9.51254 19.3967C7.00003 19.8592 6.35003 18.7842 6.15003 18.2217C5.9281 17.6747 5.5763 17.1899 5.12503 16.8092C4.77503 16.6217 4.27503 16.1592 5.11252 16.1467C5.4323 16.1814 5.73901 16.2927 6.00666 16.4711C6.2743 16.6495 6.49499 16.8899 6.65003 17.1717C6.7868 17.4174 6.97071 17.6337 7.19122 17.8082C7.41173 17.9827 7.6645 18.112 7.93506 18.1886C8.20562 18.2652 8.48864 18.2877 8.76791 18.2548C9.04717 18.2219 9.3172 18.1342 9.56251 17.9967C9.6058 17.4883 9.83237 17.013 10.2 16.6592C7.97503 16.4092 5.65003 15.5467 5.65003 11.7217C5.63597 10.7279 6.00271 9.76631 6.67503 9.03423C6.36931 8.17045 6.40508 7.22252 6.77503 6.38423C6.77503 6.38423 7.6125 6.12172 9.52503 7.40923C11.1613 6.95921 12.8887 6.95921 14.525 7.40923C16.4375 6.10923 17.275 6.38423 17.275 6.38423C17.645 7.22251 17.6808 8.17046 17.375 9.03423C18.0494 9.76506 18.4164 10.7275 18.4 11.7217C18.4 15.5592 16.0625 16.4092 13.8375 16.6592C14.0762 16.9011 14.26 17.1915 14.3764 17.5107C14.4929 17.83 14.5393 18.1705 14.5125 18.5092C14.5125 19.8468 14.5 20.9217 14.5 21.2592C14.5 21.5217 14.6875 21.8342 15.1875 21.7342C17.4362 20.9771 19.3426 19.4455 20.5664 17.4128C21.7903 15.38 22.2519 12.9785 21.8689 10.6369C21.4859 8.29535 20.2832 6.16608 18.4755 4.62922C16.6678 3.09235 14.3727 2.24794 12 2.2467Z" fill="#F2F2F2"></path>
  </symbol>
  <symbol fill="none" xmlns="http://www.w3.org/2000/svg" viewBox="0 0 24 24" id="HyperLink">
    <path d="M10 17.5501L8.23002 19.2701C7.76589 19.7342 7.1364 19.995 6.48002 19.995C5.82364 19.995 5.19415 19.7342 4.73002 19.2701C4.26589 18.806 4.00515 18.1765 4.00515 17.5201C4.00515 16.8637 4.26589 16.2342 4.73002 15.7701L9.27002 11.2201C9.71563 10.773 10.316 10.5144 10.947 10.4976C11.578 10.4809 12.1913 10.7073 12.66 11.1301L12.78 11.2301C12.9696 11.4157 13.2253 11.5185 13.4906 11.5157C13.756 11.5128 14.0094 11.4047 14.195 11.2151C14.3807 11.0255 14.4834 10.7699 14.4806 10.5045C14.4778 10.2391 14.3696 9.98575 14.18 9.80009C14.1236 9.72712 14.0635 9.65703 14 9.59009C13.1464 8.84741 12.0424 8.45694 10.9116 8.49779C9.78082 8.53864 8.70785 9.00775 7.91002 9.81009L3.31002 14.3601C2.52838 15.2109 2.10564 16.3308 2.13009 17.4858C2.15455 18.6409 2.6243 19.7419 3.44125 20.5589C4.2582 21.3758 5.35918 21.8456 6.51427 21.87C7.66935 21.8945 8.78923 21.4717 9.64002 20.6901L11.37 19.0001C11.5408 18.8137 11.6347 18.5696 11.6328 18.3168C11.6309 18.064 11.5333 17.8214 11.3597 17.6376C11.1861 17.4539 10.9494 17.3427 10.6971 17.3264C10.4448 17.3102 10.1958 17.3901 10 17.5501ZM20.69 3.31009C19.8488 2.4741 18.711 2.00488 17.525 2.00488C16.339 2.00488 15.2012 2.4741 14.36 3.31009L12.63 5.00009C12.4592 5.18644 12.3653 5.43057 12.3672 5.68336C12.3691 5.93615 12.4667 6.17883 12.6403 6.36258C12.8139 6.54633 13.0507 6.65751 13.303 6.67375C13.5552 6.68998 13.8043 6.61007 14 6.45009L15.73 4.73009C16.1941 4.26597 16.8236 4.00522 17.48 4.00522C18.1364 4.00522 18.7659 4.26597 19.23 4.73009C19.6941 5.19422 19.9549 5.82372 19.9549 6.48009C19.9549 7.13647 19.6941 7.76596 19.23 8.23009L14.69 12.7801C14.2444 13.2272 13.644 13.4858 13.013 13.5026C12.382 13.5193 11.7687 13.2929 11.3 12.8701L11.18 12.7701C10.9904 12.5844 10.7348 12.4817 10.4694 12.4845C10.2041 12.4874 9.95067 12.5955 9.76502 12.7851C9.57937 12.9747 9.47665 13.2303 9.47946 13.4957C9.48228 13.7611 9.59039 14.0144 9.78002 14.2001C9.85266 14.2744 9.92945 14.3445 10.01 14.4101C10.8647 15.1505 11.9682 15.5395 13.0983 15.4987C14.2284 15.4579 15.301 14.9903 16.1 14.1901L20.65 9.64009C21.4913 8.80417 21.9678 7.66932 21.9753 6.48334C21.9828 5.29736 21.5207 4.15659 20.69 3.31009Z" fill="#F2F2F2"></path>
  </symbol>
  <symbol fill="none" xmlns="http://www.w3.org/2000/svg" viewBox="0 0 24 24" id="JustifyAlignment">
    <path d="M3 7H21C21.2652 7 21.5196 6.89464 21.7071 6.70711C21.8946 6.51957 22 6.26522 22 6C22 5.73478 21.8946 5.48043 21.7071 5.29289C21.5196 5.10536 21.2652 5 21 5H3C2.73478 5 2.48043 5.10536 2.29289 5.29289C2.10536 5.48043 2 5.73478 2 6C2 6.26522 2.10536 6.51957 2.29289 6.70711C2.48043 6.89464 2.73478 7 3 7ZM21 17H3C2.73478 17 2.48043 17.1054 2.29289 17.2929C2.10536 17.4804 2 17.7348 2 18C2 18.2652 2.10536 18.5196 2.29289 18.7071C2.48043 18.8946 2.73478 19 3 19H21C21.2652 19 21.5196 18.8946 21.7071 18.7071C21.8946 18.5196 22 18.2652 22 18C22 17.7348 21.8946 17.4804 21.7071 17.2929C21.5196 17.1054 21.2652 17 21 17ZM21 13H3C2.73478 13 2.48043 13.1054 2.29289 13.2929C2.10536 13.4804 2 13.7348 2 14C2 14.2652 2.10536 14.5196 2.29289 14.7071C2.48043 14.8946 2.73478 15 3 15H21C21.2652 15 21.5196 14.8946 21.7071 14.7071C21.8946 14.5196 22 14.2652 22 14C22 13.7348 21.8946 13.4804 21.7071 13.2929C21.5196 13.1054 21.2652 13 21 13ZM21 9H3C2.73478 9 2.48043 9.10536 2.29289 9.29289C2.10536 9.48043 2 9.73478 2 10C2 10.2652 2.10536 10.5196 2.29289 10.7071C2.48043 10.8946 2.73478 11 3 11H21C21.2652 11 21.5196 10.8946 21.7071 10.7071C21.8946 10.5196 22 10.2652 22 10C22 9.73478 21.8946 9.48043 21.7071 9.29289C21.5196 9.10536 21.2652 9 21 9Z" fill="#F2F2F2"></path>
  </symbol>
  <symbol fill="none" xmlns="http://www.w3.org/2000/svg" viewBox="0 0 24 24" id="Linkedin">
    <path d="M20.47 2.00002H3.53C3.33958 1.99737 3.1505 2.03227 2.97356 2.1027C2.79663 2.17314 2.6353 2.27774 2.4988 2.41053C2.36229 2.54332 2.25328 2.7017 2.17799 2.87663C2.1027 3.05155 2.06261 3.2396 2.06 3.43002V20.57C2.06261 20.7604 2.1027 20.9485 2.17799 21.1234C2.25328 21.2983 2.36229 21.4567 2.4988 21.5895C2.6353 21.7223 2.79663 21.8269 2.97356 21.8973C3.1505 21.9678 3.33958 22.0027 3.53 22H20.47C20.6604 22.0027 20.8495 21.9678 21.0264 21.8973C21.2034 21.8269 21.3647 21.7223 21.5012 21.5895C21.6377 21.4567 21.7467 21.2983 21.822 21.1234C21.8973 20.9485 21.9374 20.7604 21.94 20.57V3.43002C21.9374 3.2396 21.8973 3.05155 21.822 2.87663C21.7467 2.7017 21.6377 2.54332 21.5012 2.41053C21.3647 2.27774 21.2034 2.17314 21.0264 2.1027C20.8495 2.03227 20.6604 1.99737 20.47 2.00002ZM8.09 18.74H5.09V9.74002H8.09V18.74ZM6.59 8.48002C6.17626 8.48002 5.77947 8.31566 5.48691 8.0231C5.19435 7.73055 5.03 7.33376 5.03 6.92002C5.03 6.50628 5.19435 6.10949 5.48691 5.81693C5.77947 5.52437 6.17626 5.36002 6.59 5.36002C6.80969 5.3351 7.03217 5.35687 7.24287 5.4239C7.45357 5.49093 7.64774 5.60171 7.81265 5.74898C7.97757 5.89625 8.10952 6.0767 8.19987 6.2785C8.29021 6.4803 8.33692 6.69891 8.33692 6.92002C8.33692 7.14112 8.29021 7.35973 8.19987 7.56154C8.10952 7.76334 7.97757 7.94378 7.81265 8.09106C7.64774 8.23833 7.45357 8.3491 7.24287 8.41613C7.03217 8.48316 6.80969 8.50493 6.59 8.48002ZM18.91 18.74H15.91V13.91C15.91 12.7 15.48 11.91 14.39 11.91C14.0527 11.9125 13.7242 12.0183 13.4488 12.2132C13.1735 12.4081 12.9645 12.6827 12.85 13C12.7717 13.2351 12.7378 13.4826 12.75 13.73V18.73H9.75C9.75 18.73 9.75 10.55 9.75 9.73002H12.75V11C13.0225 10.5271 13.4189 10.1375 13.8964 9.87322C14.374 9.6089 14.9146 9.47987 15.46 9.50002C17.46 9.50002 18.91 10.79 18.91 13.56V18.74Z" fill="#F2F2F2"></path>
  </symbol>
  <symbol fill="none" xmlns="http://www.w3.org/2000/svg" viewBox="0 0 24 24" id="StarShape">
    <path d="M22 9.6699C21.9368 9.48699 21.822 9.32633 21.6693 9.2074C21.5167 9.08848 21.3328 9.0164 21.14 8.9999L15.45 8.1699L12.9 2.9999C12.8181 2.83083 12.6902 2.68824 12.5311 2.58847C12.3719 2.48871 12.1878 2.43579 12 2.43579C11.8121 2.43579 11.6281 2.48871 11.4689 2.58847C11.3097 2.68824 11.1819 2.83083 11.1 2.9999L8.54998 8.1599L2.85998 8.9999C2.6749 9.02621 2.5009 9.10386 2.35773 9.22406C2.21455 9.34425 2.10794 9.50218 2.04998 9.6799C1.99692 9.85358 1.99216 10.0384 2.03621 10.2146C2.08025 10.3908 2.17144 10.5516 2.29998 10.6799L6.42998 14.6799L5.42998 20.3599C5.39428 20.5474 5.41297 20.7412 5.48385 20.9184C5.55473 21.0955 5.67483 21.2488 5.82998 21.3599C5.98119 21.468 6.15955 21.5318 6.34503 21.5442C6.5305 21.5566 6.71575 21.517 6.87998 21.4299L12 18.7599L17.1 21.4399C17.2403 21.5191 17.3988 21.5604 17.56 21.5599C17.7718 21.5607 17.9784 21.4941 18.15 21.3699C18.3051 21.2588 18.4252 21.1055 18.4961 20.9284C18.567 20.7512 18.5857 20.5574 18.55 20.3699L17.55 14.6899L21.68 10.6899C21.8244 10.5676 21.9311 10.4068 21.9877 10.2262C22.0444 10.0457 22.0486 9.85278 22 9.6699ZM15.85 13.6699C15.7327 13.7833 15.645 13.9237 15.5944 14.0789C15.5439 14.234 15.532 14.3992 15.56 14.5599L16.28 18.7499L12.52 16.7499C12.3753 16.6729 12.2139 16.6326 12.05 16.6326C11.8861 16.6326 11.7247 16.6729 11.58 16.7499L7.81998 18.7499L8.53998 14.5599C8.56791 14.3992 8.55609 14.234 8.50554 14.0789C8.45499 13.9237 8.36725 13.7833 8.24998 13.6699L5.24998 10.6699L9.45998 10.0599C9.62198 10.0374 9.77598 9.97544 9.90848 9.87955C10.041 9.78366 10.1479 9.65674 10.22 9.5099L12 5.6999L13.88 9.5199C13.952 9.66674 14.059 9.79366 14.1915 9.88955C14.324 9.98544 14.478 10.0474 14.64 10.0699L18.85 10.6799L15.85 13.6699Z" fill="#F2F2F2"></path>
  </symbol>
  <symbol fill="none" xmlns="http://www.w3.org/2000/svg" viewBox="0 0 24 24" id="Telegram">
    <path d="M11.9943 2C10.0165 2 8.08312 2.58649 6.43863 3.6853C4.79413 4.78412 3.51241 6.3459 2.75553 8.17317C1.99866 10.0004 1.80062 12.0111 2.18648 13.9509C2.57233 15.8907 3.52474 17.6725 4.92326 19.0711C6.32179 20.4696 8.10362 21.422 10.0434 21.8079C11.9832 22.1937 13.9939 21.9957 15.8212 21.2388C17.6484 20.4819 19.2102 19.2002 20.309 17.5557C21.4078 15.9112 21.9943 13.9778 21.9943 12C21.9944 10.6868 21.7359 9.38634 21.2333 8.17304C20.7308 6.95973 19.9942 5.8573 19.0656 4.92869C18.137 4.00008 17.0346 3.26349 15.8213 2.76098C14.608 2.25847 13.3076 1.99989 11.9943 2ZM15.1738 17.1525C15.1364 17.2458 15.0795 17.33 15.0068 17.3996C14.9342 17.4691 14.8475 17.5223 14.7526 17.5556C14.6577 17.5889 14.5568 17.6015 14.4566 17.5926C14.3565 17.5837 14.2594 17.5535 14.1718 17.504L11.4572 15.3946L9.71485 17.002C9.67442 17.0319 9.62713 17.0511 9.57733 17.0579C9.52752 17.0647 9.47681 17.0589 9.42985 17.0409L9.76385 14.0525L9.77454 14.061L9.78137 14.002C9.78137 14.002 14.6664 9.55445 14.8654 9.36496C15.0668 9.17596 15.0004 9.13496 15.0004 9.13496C15.0118 8.90443 14.6388 9.13496 14.6388 9.13496L8.16633 13.299L5.47084 12.381C5.47084 12.381 5.05684 12.2325 5.01784 11.906C4.97684 11.582 5.48433 11.406 5.48433 11.406L16.2013 7.14849C16.2013 7.14849 17.0823 6.75597 17.0823 7.406L15.1738 17.1525Z" fill="#F2F2F2"></path>
  </symbol>
</svg>