<svg width="0" height="0" class="hidden">
  <symbol fill="none"
    xmlns="http://www.w3.org/2000/svg" viewBox="0 0 24 24" id="Book">
    <path d="M17 2H5C4.73478 2 4.48043 2.10536 4.29289 2.29289C4.10536 2.48043 4 2.73478 4 3V19C4 19.2652 4.10536 19.5196 4.29289 19.7071C4.48043 19.8946 4.73478 20 5 20H6V21C6 21.2652 6.10536 21.5196 6.29289 21.7071C6.48043 21.8946 6.73478 22 7 22C7.26522 22 7.51957 21.8946 7.70711 21.7071C7.89464 21.5196 8 21.2652 8 21V20H17C17.7956 20 18.5587 19.6839 19.1213 19.1213C19.6839 18.5587 20 17.7956 20 17V5C20 4.20435 19.6839 3.44129 19.1213 2.87868C18.5587 2.31607 17.7956 2 17 2ZM14 18H6V4H14V18ZM18 17C18 17.2652 17.8946 17.5196 17.7071 17.7071C17.5196 17.8946 17.2652 18 17 18H16V4H17C17.2652 4 17.5196 4.10536 17.7071 4.29289C17.8946 4.48043 18 4.73478 18 5V17Z" fill="#F2F2F2"></path>
  </symbol>
  <symbol fill="none"
    xmlns="http://www.w3.org/2000/svg" viewBox="0 0 24 24" id="Cancel">
    <path d="M13.41 11.9999L17.71 7.70994C17.8983 7.52164 18.0041 7.26624 18.0041 6.99994C18.0041 6.73364 17.8983 6.47825 17.71 6.28994C17.5217 6.10164 17.2663 5.99585 17 5.99585C16.7337 5.99585 16.4783 6.10164 16.29 6.28994L12 10.5899L7.71 6.28994C7.5217 6.10164 7.2663 5.99585 7 5.99585C6.7337 5.99585 6.4783 6.10164 6.29 6.28994C6.1017 6.47825 5.99591 6.73364 5.99591 6.99994C5.99591 7.26624 6.1017 7.52164 6.29 7.70994L10.59 11.9999L6.29 16.2899C6.19627 16.3829 6.12188 16.4935 6.07111 16.6154C6.02034 16.7372 5.9942 16.8679 5.9942 16.9999C5.9942 17.132 6.02034 17.2627 6.07111 17.3845C6.12188 17.5064 6.19627 17.617 6.29 17.7099C6.38296 17.8037 6.49356 17.8781 6.61542 17.9288C6.73728 17.9796 6.86799 18.0057 7 18.0057C7.13201 18.0057 7.26272 17.9796 7.38458 17.9288C7.50644 17.8781 7.61704 17.8037 7.71 17.7099L12 13.4099L16.29 17.7099C16.383 17.8037 16.4936 17.8781 16.6154 17.9288C16.7373 17.9796 16.868 18.0057 17 18.0057C17.132 18.0057 17.2627 17.9796 17.3846 17.9288C17.5064 17.8781 17.617 17.8037 17.71 17.7099C17.8037 17.617 17.8781 17.5064 17.9289 17.3845C17.9797 17.2627 18.0058 17.132 18.0058 16.9999C18.0058 16.8679 17.9797 16.7372 17.9289 16.6154C17.8781 16.4935 17.8037 16.3829 17.71 16.2899L13.41 11.9999Z" fill="#F2F2F2"></path>
  </symbol>
  <symbol fill="none"
    xmlns="http://www.w3.org/2000/svg" viewBox="0 0 24 24" id="ExternalLink">
    <path d="M18 10.82C17.7348 10.82 17.4804 10.9254 17.2929 11.1129C17.1054 11.3004 17 11.5548 17 11.82V19C17 19.2652 16.8946 19.5196 16.7071 19.7071C16.5196 19.8946 16.2652 20 16 20H5C4.73478 20 4.48043 19.8946 4.29289 19.7071C4.10536 19.5196 4 19.2652 4 19V8C4 7.73478 4.10536 7.48043 4.29289 7.29289C4.48043 7.10536 4.73478 7 5 7H12.18C12.4452 7 12.6996 6.89464 12.8871 6.70711C13.0746 6.51957 13.18 6.26522 13.18 6C13.18 5.73478 13.0746 5.48043 12.8871 5.29289C12.6996 5.10536 12.4452 5 12.18 5H5C4.20435 5 3.44129 5.31607 2.87868 5.87868C2.31607 6.44129 2 7.20435 2 8V19C2 19.7956 2.31607 20.5587 2.87868 21.1213C3.44129 21.6839 4.20435 22 5 22H16C16.7956 22 17.5587 21.6839 18.1213 21.1213C18.6839 20.5587 19 19.7956 19 19V11.82C19 11.5548 18.8946 11.3004 18.7071 11.1129C18.5196 10.9254 18.2652 10.82 18 10.82ZM21.92 2.62C21.8185 2.37565 21.6243 2.18147 21.38 2.08C21.2598 2.02876 21.1307 2.00158 21 2H15C14.7348 2 14.4804 2.10536 14.2929 2.29289C14.1054 2.48043 14 2.73478 14 3C14 3.26522 14.1054 3.51957 14.2929 3.70711C14.4804 3.89464 14.7348 4 15 4H18.59L8.29 14.29C8.19627 14.383 8.12188 14.4936 8.07111 14.6154C8.02034 14.7373 7.9942 14.868 7.9942 15C7.9942 15.132 8.02034 15.2627 8.07111 15.3846C8.12188 15.5064 8.19627 15.617 8.29 15.71C8.38296 15.8037 8.49356 15.8781 8.61542 15.9289C8.73728 15.9797 8.86799 16.0058 9 16.0058C9.13201 16.0058 9.26272 15.9797 9.38458 15.9289C9.50644 15.8781 9.61704 15.8037 9.71 15.71L20 5.41V9C20 9.26522 20.1054 9.51957 20.2929 9.70711C20.4804 9.89464 20.7348 10 21 10C21.2652 10 21.5196 9.89464 21.7071 9.70711C21.8946 9.51957 22 9.26522 22 9V3C21.9984 2.86932 21.9712 2.74022 21.92 2.62Z" fill="#F2F2F2"></path>
  </symbol>
  <symbol fill="none"
    xmlns="http://www.w3.org/2000/svg" viewBox="0 0 24 24" id="Github">
    <path d="M12 2.2467C9.6255 2.2468 7.32849 3.09182 5.51999 4.63055C3.71149 6.16929 2.50953 8.30133 2.12916 10.6452C1.74879 12.989 2.21485 15.3918 3.44393 17.4235C4.67301 19.4551 6.58491 20.9832 8.83755 21.7342C9.33755 21.8217 9.52505 21.5217 9.52505 21.2592C9.52505 21.0217 9.51254 20.2342 9.51254 19.3967C7.00003 19.8592 6.35003 18.7842 6.15003 18.2217C5.9281 17.6747 5.5763 17.1899 5.12503 16.8092C4.77503 16.6217 4.27503 16.1592 5.11252 16.1467C5.4323 16.1814 5.73901 16.2927 6.00666 16.4711C6.2743 16.6495 6.49499 16.8899 6.65003 17.1717C6.7868 17.4174 6.97071 17.6337 7.19122 17.8082C7.41173 17.9827 7.6645 18.112 7.93506 18.1886C8.20562 18.2652 8.48864 18.2877 8.76791 18.2548C9.04717 18.2219 9.3172 18.1342 9.56251 17.9967C9.6058 17.4883 9.83237 17.013 10.2 16.6592C7.97503 16.4092 5.65003 15.5467 5.65003 11.7217C5.63597 10.7279 6.00271 9.76631 6.67503 9.03423C6.36931 8.17045 6.40508 7.22252 6.77503 6.38423C6.77503 6.38423 7.6125 6.12172 9.52503 7.40923C11.1613 6.95921 12.8887 6.95921 14.525 7.40923C16.4375 6.10923 17.275 6.38423 17.275 6.38423C17.645 7.22251 17.6808 8.17046 17.375 9.03423C18.0494 9.76506 18.4164 10.7275 18.4 11.7217C18.4 15.5592 16.0625 16.4092 13.8375 16.6592C14.0762 16.9011 14.26 17.1915 14.3764 17.5107C14.4929 17.83 14.5393 18.1705 14.5125 18.5092C14.5125 19.8468 14.5 20.9217 14.5 21.2592C14.5 21.5217 14.6875 21.8342 15.1875 21.7342C17.4362 20.9771 19.3426 19.4455 20.5664 17.4128C21.7903 15.38 22.2519 12.9785 21.8689 10.6369C21.4859 8.29535 20.2832 6.16608 18.4755 4.62922C16.6678 3.09235 14.3727 2.24794 12 2.2467Z" fill="#F2F2F2"></path>
  </symbol>
  <symbol fill="none"
    xmlns="http://www.w3.org/2000/svg" viewBox="0 0 24 24" id="HyperLink">
    <path d="M10 17.5501L8.23002 19.2701C7.76589 19.7342 7.1364 19.995 6.48002 19.995C5.82364 19.995 5.19415 19.7342 4.73002 19.2701C4.26589 18.806 4.00515 18.1765 4.00515 17.5201C4.00515 16.8637 4.26589 16.2342 4.73002 15.7701L9.27002 11.2201C9.71563 10.773 10.316 10.5144 10.947 10.4976C11.578 10.4809 12.1913 10.7073 12.66 11.1301L12.78 11.2301C12.9696 11.4157 13.2253 11.5185 13.4906 11.5157C13.756 11.5128 14.0094 11.4047 14.195 11.2151C14.3807 11.0255 14.4834 10.7699 14.4806 10.5045C14.4778 10.2391 14.3696 9.98575 14.18 9.80009C14.1236 9.72712 14.0635 9.65703 14 9.59009C13.1464 8.84741 12.0424 8.45694 10.9116 8.49779C9.78082 8.53864 8.70785 9.00775 7.91002 9.81009L3.31002 14.3601C2.52838 15.2109 2.10564 16.3308 2.13009 17.4858C2.15455 18.6409 2.6243 19.7419 3.44125 20.5589C4.2582 21.3758 5.35918 21.8456 6.51427 21.87C7.66935 21.8945 8.78923 21.4717 9.64002 20.6901L11.37 19.0001C11.5408 18.8137 11.6347 18.5696 11.6328 18.3168C11.6309 18.064 11.5333 17.8214 11.3597 17.6376C11.1861 17.4539 10.9494 17.3427 10.6971 17.3264C10.4448 17.3102 10.1958 17.3901 10 17.5501ZM20.69 3.31009C19.8488 2.4741 18.711 2.00488 17.525 2.00488C16.339 2.00488 15.2012 2.4741 14.36 3.31009L12.63 5.00009C12.4592 5.18644 12.3653 5.43057 12.3672 5.68336C12.3691 5.93615 12.4667 6.17883 12.6403 6.36258C12.8139 6.54633 13.0507 6.65751 13.303 6.67375C13.5552 6.68998 13.8043 6.61007 14 6.45009L15.73 4.73009C16.1941 4.26597 16.8236 4.00522 17.48 4.00522C18.1364 4.00522 18.7659 4.26597 19.23 4.73009C19.6941 5.19422 19.9549 5.82372 19.9549 6.48009C19.9549 7.13647 19.6941 7.76596 19.23 8.23009L14.69 12.7801C14.2444 13.2272 13.644 13.4858 13.013 13.5026C12.382 13.5193 11.7687 13.2929 11.3 12.8701L11.18 12.7701C10.9904 12.5844 10.7348 12.4817 10.4694 12.4845C10.2041 12.4874 9.95067 12.5955 9.76502 12.7851C9.57937 12.9747 9.47665 13.2303 9.47946 13.4957C9.48228 13.7611 9.59039 14.0144 9.78002 14.2001C9.85266 14.2744 9.92945 14.3445 10.01 14.4101C10.8647 15.1505 11.9682 15.5395 13.0983 15.4987C14.2284 15.4579 15.301 14.9903 16.1 14.1901L20.65 9.64009C21.4913 8.80417 21.9678 7.66932 21.9753 6.48334C21.9828 5.29736 21.5207 4.15659 20.69 3.31009Z" fill="#F2F2F2"></path>
  </symbol>
  <symbol fill="none"
    xmlns="http://www.w3.org/2000/svg" viewBox="0 0 24 24" id="JustifyAlignment">
    <path d="M3 7H21C21.2652 7 21.5196 6.89464 21.7071 6.70711C21.8946 6.51957 22 6.26522 22 6C22 5.73478 21.8946 5.48043 21.7071 5.29289C21.5196 5.10536 21.2652 5 21 5H3C2.73478 5 2.48043 5.10536 2.29289 5.29289C2.10536 5.48043 2 5.73478 2 6C2 6.26522 2.10536 6.51957 2.29289 6.70711C2.48043 6.89464 2.73478 7 3 7ZM21 17H3C2.73478 17 2.48043 17.1054 2.29289 17.2929C2.10536 17.4804 2 17.7348 2 18C2 18.2652 2.10536 18.5196 2.29289 18.7071C2.48043 18.8946 2.73478 19 3 19H21C21.2652 19 21.5196 18.8946 21.7071 18.7071C21.8946 18.5196 22 18.2652 22 18C22 17.7348 21.8946 17.4804 21.7071 17.2929C21.5196 17.1054 21.2652 17 21 17ZM21 13H3C2.73478 13 2.48043 13.1054 2.29289 13.2929C2.10536 13.4804 2 13.7348 2 14C2 14.2652 2.10536 14.5196 2.29289 14.7071C2.48043 14.8946 2.73478 15 3 15H21C21.2652 15 21.5196 14.8946 21.7071 14.7071C21.8946 14.5196 22 14.2652 22 14C22 13.7348 21.8946 13.4804 21.7071 13.2929C21.5196 13.1054 21.2652 13 21 13ZM21 9H3C2.73478 9 2.48043 9.10536 2.29289 9.29289C2.10536 9.48043 2 9.73478 2 10C2 10.2652 2.10536 10.5196 2.29289 10.7071C2.48043 10.8946 2.73478 11 3 11H21C21.2652 11 21.5196 10.8946 21.7071 10.7071C21.8946 10.5196 22 10.2652 22 10C22 9.73478 21.8946 9.48043 21.7071 9.29289C21.5196 9.10536 21.2652 9 21 9Z" fill="#F2F2F2"></path>
  </symbol>
  <symbol fill="none"
    xmlns="http://www.w3.org/2000/svg" viewBox="0 0 24 24" id="Linkedin">
    <path d="M20.47 2.00002H3.53C3.33958 1.99737 3.1505 2.03227 2.97356 2.1027C2.79663 2.17314 2.6353 2.27774 2.4988 2.41053C2.36229 2.54332 2.25328 2.7017 2.17799 2.87663C2.1027 3.05155 2.06261 3.2396 2.06 3.43002V20.57C2.06261 20.7604 2.1027 20.9485 2.17799 21.1234C2.25328 21.2983 2.36229 21.4567 2.4988 21.5895C2.6353 21.7223 2.79663 21.8269 2.97356 21.8973C3.1505 21.9678 3.33958 22.0027 3.53 22H20.47C20.6604 22.0027 20.8495 21.9678 21.0264 21.8973C21.2034 21.8269 21.3647 21.7223 21.5012 21.5895C21.6377 21.4567 21.7467 21.2983 21.822 21.1234C21.8973 20.9485 21.9374 20.7604 21.94 20.57V3.43002C21.9374 3.2396 21.8973 3.05155 21.822 2.87663C21.7467 2.7017 21.6377 2.54332 21.5012 2.41053C21.3647 2.27774 21.2034 2.17314 21.0264 2.1027C20.8495 2.03227 20.6604 1.99737 20.47 2.00002ZM8.09 18.74H5.09V9.74002H8.09V18.74ZM6.59 8.48002C6.17626 8.48002 5.77947 8.31566 5.48691 8.0231C5.19435 7.73055 5.03 7.33376 5.03 6.92002C5.03 6.50628 5.19435 6.10949 5.48691 5.81693C5.77947 5.52437 6.17626 5.36002 6.59 5.36002C6.80969 5.3351 7.03217 5.35687 7.24287 5.4239C7.45357 5.49093 7.64774 5.60171 7.81265 5.74898C7.97757 5.89625 8.10952 6.0767 8.19987 6.2785C8.29021 6.4803 8.33692 6.69891 8.33692 6.92002C8.33692 7.14112 8.29021 7.35973 8.19987 7.56154C8.10952 7.76334 7.97757 7.94378 7.81265 8.09106C7.64774 8.23833 7.45357 8.3491 7.24287 8.41613C7.03217 8.48316 6.80969 8.50493 6.59 8.48002ZM18.91 18.74H15.91V13.91C15.91 12.7 15.48 11.91 14.39 11.91C14.0527 11.9125 13.7242 12.0183 13.4488 12.2132C13.1735 12.4081 12.9645 12.6827 12.85 13C12.7717 13.2351 12.7378 13.4826 12.75 13.73V18.73H9.75C9.75 18.73 9.75 10.55 9.75 9.73002H12.75V11C13.0225 10.5271 13.4189 10.1375 13.8964 9.87322C14.374 9.6089 14.9146 9.47987 15.46 9.50002C17.46 9.50002 18.91 10.79 18.91 13.56V18.74Z" fill="#F2F2F2"></path>
  </symbol>
  <symbol fill="none"
    xmlns="http://www.w3.org/2000/svg" viewBox="0 0 24 24" id="StarShape">
    <path d="M22 9.6699C21.9368 9.48699 21.822 9.32633 21.6693 9.2074C21.5167 9.08848 21.3328 9.0164 21.14 8.9999L15.45 8.1699L12.9 2.9999C12.8181 2.83083 12.6902 2.68824 12.5311 2.58847C12.3719 2.48871 12.1878 2.43579 12 2.43579C11.8121 2.43579 11.6281 2.48871 11.4689 2.58847C11.3097 2.68824 11.1819 2.83083 11.1 2.9999L8.54998 8.1599L2.85998 8.9999C2.6749 9.02621 2.5009 9.10386 2.35773 9.22406C2.21455 9.34425 2.10794 9.50218 2.04998 9.6799C1.99692 9.85358 1.99216 10.0384 2.03621 10.2146C2.08025 10.3908 2.17144 10.5516 2.29998 10.6799L6.42998 14.6799L5.42998 20.3599C5.39428 20.5474 5.41297 20.7412 5.48385 20.9184C5.55473 21.0955 5.67483 21.2488 5.82998 21.3599C5.98119 21.468 6.15955 21.5318 6.34503 21.5442C6.5305 21.5566 6.71575 21.517 6.87998 21.4299L12 18.7599L17.1 21.4399C17.2403 21.5191 17.3988 21.5604 17.56 21.5599C17.7718 21.5607 17.9784 21.4941 18.15 21.3699C18.3051 21.2588 18.4252 21.1055 18.4961 20.9284C18.567 20.7512 18.5857 20.5574 18.55 20.3699L17.55 14.6899L21.68 10.6899C21.8244 10.5676 21.9311 10.4068 21.9877 10.2262C22.0444 10.0457 22.0486 9.85278 22 9.6699ZM15.85 13.6699C15.7327 13.7833 15.645 13.9237 15.5944 14.0789C15.5439 14.234 15.532 14.3992 15.56 14.5599L16.28 18.7499L12.52 16.7499C12.3753 16.6729 12.2139 16.6326 12.05 16.6326C11.8861 16.6326 11.7247 16.6729 11.58 16.7499L7.81998 18.7499L8.53998 14.5599C8.56791 14.3992 8.55609 14.234 8.50554 14.0789C8.45499 13.9237 8.36725 13.7833 8.24998 13.6699L5.24998 10.6699L9.45998 10.0599C9.62198 10.0374 9.77598 9.97544 9.90848 9.87955C10.041 9.78366 10.1479 9.65674 10.22 9.5099L12 5.6999L13.88 9.5199C13.952 9.66674 14.059 9.79366 14.1915 9.88955C14.324 9.98544 14.478 10.0474 14.64 10.0699L18.85 10.6799L15.85 13.6699Z" fill="#F2F2F2"></path>
  </symbol>
  <symbol fill="none"
    xmlns="http://www.w3.org/2000/svg" viewBox="0 0 24 24" id="Telegram">
    <path d="M11.9943 2C10.0165 2 8.08312 2.58649 6.43863 3.6853C4.79413 4.78412 3.51241 6.3459 2.75553 8.17317C1.99866 10.0004 1.80062 12.0111 2.18648 13.9509C2.57233 15.8907 3.52474 17.6725 4.92326 19.0711C6.32179 20.4696 8.10362 21.422 10.0434 21.8079C11.9832 22.1937 13.9939 21.9957 15.8212 21.2388C17.6484 20.4819 19.2102 19.2002 20.309 17.5557C21.4078 15.9112 21.9943 13.9778 21.9943 12C21.9944 10.6868 21.7359 9.38634 21.2333 8.17304C20.7308 6.95973 19.9942 5.8573 19.0656 4.92869C18.137 4.00008 17.0346 3.26349 15.8213 2.76098C14.608 2.25847 13.3076 1.99989 11.9943 2ZM15.1738 17.1525C15.1364 17.2458 15.0795 17.33 15.0068 17.3996C14.9342 17.4691 14.8475 17.5223 14.7526 17.5556C14.6577 17.5889 14.5568 17.6015 14.4566 17.5926C14.3565 17.5837 14.2594 17.5535 14.1718 17.504L11.4572 15.3946L9.71485 17.002C9.67442 17.0319 9.62713 17.0511 9.57733 17.0579C9.52752 17.0647 9.47681 17.0589 9.42985 17.0409L9.76385 14.0525L9.77454 14.061L9.78137 14.002C9.78137 14.002 14.6664 9.55445 14.8654 9.36496C15.0668 9.17596 15.0004 9.13496 15.0004 9.13496C15.0118 8.90443 14.6388 9.13496 14.6388 9.13496L8.16633 13.299L5.47084 12.381C5.47084 12.381 5.05684 12.2325 5.01784 11.906C4.97684 11.582 5.48433 11.406 5.48433 11.406L16.2013 7.14849C16.2013 7.14849 17.0823 6.75597 17.0823 7.406L15.1738 17.1525Z" fill="#F2F2F2"></path>
  </symbol>

  <symbol fill="none"
    xmlns="http://www.w3.org/2000/svg" viewBox="0 0 128 128" id="css3">
    <path d="M8.75977 1L18.8148 113.883L63.9328 126.463L109.177 113.837L119.24 1H8.75977ZM98.3508 26.862L95.0038 64.467L95.0138 64.67L94.9998 65.137V65.133L92.6218 91.427L92.3598 93.763L63.9998 101.607V101.608L63.9778 101.627L35.6668 93.739L33.7498 72H47.6328L48.6178 83.054L64.0038 87.224L63.9998 87.232V87.23L79.4428 83.001L81.0748 65H48.7918L48.5148 61.957L47.8838 54.828L47.5528 51H82.3018L83.5658 37H30.6398L30.3628 33.959L29.7328 26.828L29.4008 23H98.6818L98.3508 26.862Z" fill="#1572B6"></path>
  </symbol>
  <symbol fill="none"
    xmlns="http://www.w3.org/2000/svg" viewBox="0 0 128 128" id="git">
    <path d="M124.742 58.3778L69.6252 3.2638C66.4532 0.0898008 61.3052 0.0898008 58.1282 3.2638L46.6852 14.7098L61.2032 29.2278C64.5782 28.0888 68.4462 28.8528 71.1352 31.5418C72.4167 32.8244 73.3113 34.4418 73.7168 36.209C74.1223 37.9762 74.0223 39.8218 73.4282 41.5348L87.4202 55.5288C90.8052 54.3618 94.7122 55.1158 97.4142 57.8238C101.194 61.6008 101.194 67.7238 97.4142 71.5028C96.5159 72.4015 95.4493 73.1144 94.2755 73.6009C93.1016 74.0873 91.8434 74.3376 90.5727 74.3376C89.302 74.3376 88.0438 74.0873 86.8699 73.6009C85.696 73.1144 84.6295 72.4015 83.7312 71.5028C82.3816 70.1524 81.4616 68.4329 81.087 66.5608C80.7125 64.6886 80.9 62.7475 81.6262 60.9818L68.5782 47.9328L68.5762 82.2738C69.5229 82.74 70.3872 83.3574 71.1352 84.1018C74.9142 87.8788 74.9142 93.9998 71.1352 97.7848C67.3562 101.562 61.2312 101.562 57.4562 97.7848C53.6782 94.0008 53.3682 87.8798 57.1452 84.1018C58.0792 83.1688 59.0002 82.4638 60.0002 81.9918V47.3328C59.0002 46.8608 58.0802 46.1608 57.1442 45.2218C54.2832 42.3618 53.7482 38.1618 55.2162 34.6458L40.9832 20.3328L3.22918 58.1228C0.0541837 61.2998 0.0741837 66.4478 3.24918 69.6228L58.3752 124.737C61.5482 127.911 66.7002 127.911 69.8782 124.737L124.738 69.8788C127.913 66.7028 127.916 61.5518 124.742 58.3778Z" fill="#F34F29"></path>
  </symbol>
  <symbol fill="none"
    xmlns="http://www.w3.org/2000/svg" viewBox="0 0 128 128" id="graphql">
    <path d="M18.39 96.8521L13.79 94.1951L65.04 5.43408L69.637 8.09008L18.39 96.8521Z" fill="#E434AA"></path>
    <path d="M12.7339 87.1055H115.23V92.4155H12.7339V87.1055Z" fill="#E434AA"></path>
    <path d="M66.0306 119.688L14.7656 90.0902L17.4216 85.4882L68.6876 115.09L66.0306 119.688ZM110.566 42.5432L59.3006 12.9412L61.9566 8.34424L113.223 37.9412L110.566 42.5432Z" fill="#E434AA"></path>
    <path d="M17.4339 42.5232L14.7769 37.9222L66.0469 8.32422L68.7029 12.9222L17.4339 42.5232Z" fill="#E434AA"></path>
    <path d="M109.621 96.8521L58.3748 8.09008L62.9728 5.43408L114.223 94.1951L109.621 96.8521ZM16.7998 34.3981H22.1128V93.6021H16.8008L16.7998 34.3981Z" fill="#E434AA"></path>
    <path d="M105.887 34.3984H111.199V93.6024H105.887V34.3984Z" fill="#E434AA"></path>
    <path d="M65.1291 117.441L62.8091 113.421L107.395 87.6763L109.715 91.6963L65.1291 117.441Z" fill="#E434AA"></path>
    <path d="M118.238 95.3282C115.168 100.672 108.32 102.496 102.977 99.4262C97.6329 96.3522 95.8089 89.5042 98.8789 84.1602C101.953 78.8162 108.801 76.9922 114.145 80.0632C119.52 83.1683 121.344 89.9842 118.238 95.3282ZM29.0899 43.8402C26.0159 49.1842 19.1679 51.0082 13.8239 47.9372C8.47985 44.8632 6.65585 38.0162 9.72685 32.6722C12.8009 27.3282 19.6479 25.5042 24.9919 28.5742C30.3359 31.6802 32.1599 38.4962 29.0899 43.8402ZM9.76185 95.3282C6.68685 89.9842 8.51185 83.1682 13.8549 80.0622C19.1989 76.9922 26.0149 78.8162 29.1209 84.1602C32.1909 89.5042 30.3669 96.3202 25.0229 99.4262C19.6479 102.496 12.8319 100.672 9.76185 95.3282ZM98.9099 43.8402C95.8399 38.4962 97.6639 31.6802 103.008 28.5742C108.352 25.5042 115.168 27.3282 118.273 32.6722C121.343 38.0162 119.52 44.8322 114.176 47.9382C108.832 51.0082 101.984 49.1842 98.9099 43.8402ZM63.9999 126.656C62.5329 126.658 61.08 126.37 59.7245 125.809C58.3689 125.248 57.1373 124.425 56.0999 123.388C55.0626 122.351 54.2401 121.119 53.6793 119.764C53.1185 118.408 52.8305 116.955 52.8319 115.488C52.8305 114.021 53.1185 112.568 53.6793 111.213C54.2401 109.857 55.0626 108.626 56.0999 107.588C57.1373 106.551 58.3689 105.728 59.7245 105.168C61.08 104.607 62.5329 104.319 63.9999 104.32C65.4668 104.319 66.9197 104.607 68.2752 105.168C69.6308 105.728 70.8624 106.551 71.8998 107.588C72.9371 108.626 73.7596 109.857 74.3204 111.213C74.8812 112.568 75.1692 114.021 75.1679 115.488C75.1679 121.633 70.1758 126.656 63.9999 126.656ZM63.9999 23.6802C62.5329 23.6816 61.08 23.3936 59.7245 22.8328C58.3689 22.272 57.1373 21.4494 56.0999 20.4121C55.0626 19.3748 54.2401 18.1432 53.6793 16.7876C53.1185 15.4321 52.8305 13.9792 52.8319 12.5122C52.8305 11.0453 53.1185 9.59244 53.6793 8.23688C54.2401 6.88132 55.0626 5.64965 56.0999 4.61234C57.1373 3.57503 58.3689 2.75246 59.7245 2.19168C61.08 1.6309 62.5329 1.34293 63.9999 1.34424C65.4668 1.34293 66.9197 1.6309 68.2752 2.19168C69.6308 2.75246 70.8624 3.57503 71.8998 4.61234C72.9371 5.64965 73.7596 6.88132 74.3204 8.23688C74.8812 9.59244 75.1692 11.0453 75.1679 12.5122C75.1692 13.9792 74.8812 15.4321 74.3204 16.7876C73.7596 18.1432 72.9371 19.3748 71.8998 20.4121C70.8624 21.4494 69.6308 22.272 68.2752 22.8328C66.9197 23.3936 65.4668 23.6816 63.9999 23.6802Z" fill="#E434AA"></path>
  </symbol>
  <symbol fill="none"
    xmlns="http://www.w3.org/2000/svg" viewBox="0 0 128 128" id="gulp">
    <path fill-rule="evenodd" clip-rule="evenodd" d="M36.9649 35.4592C37.8419 44.6912 38.7119 53.8712 39.6019 63.2572C41.0529 60.7622 42.1029 58.3692 43.6869 56.4092C45.1619 54.5832 47.0209 52.8982 49.0439 51.7312C51.6849 50.2072 55.1479 51.6422 56.0039 54.3452C56.2339 55.0702 55.6849 56.0422 55.4929 56.9012C54.8469 56.5602 54.0139 56.3722 53.5919 55.8502C51.7989 53.6332 50.7189 53.3712 48.7359 55.2872C45.0369 58.8632 42.9569 63.3432 42.1629 68.3782C42.0099 69.3522 42.6189 70.4452 42.8759 71.4832C43.8869 71.1352 45.0609 71.0072 45.8779 70.3992C48.5339 68.4222 50.1799 65.7332 51.0879 62.5192C51.2849 61.8232 52.3529 61.3742 53.0209 60.8112C53.3409 61.4692 54.0709 62.2442 53.9179 62.7652C52.5033 67.6049 50.991 72.4156 49.3819 77.1942C49.2199 77.6782 48.3309 77.9192 47.7779 78.2732C47.5549 77.6372 47.0859 76.9712 47.1609 76.3722C47.3289 75.0142 47.7659 73.6892 48.0709 72.4452L40.8309 75.7782C41.2359 80.4002 41.6559 85.5852 42.1539 90.7632C42.5359 94.7172 43.1829 95.7412 47.0769 96.4912C51.6209 97.3662 56.2499 97.9252 60.8689 98.2652C67.6713 98.7776 74.5115 98.1339 81.0989 96.3612C83.5709 95.6972 84.5569 94.0712 84.7339 91.6442C84.8959 89.4092 85.2579 87.1882 85.5089 84.9592C86.0019 80.5682 86.4809 76.1762 86.9849 71.6012C85.3179 72.6572 84.0069 73.8392 82.4739 74.3402C81.3579 74.7052 79.9499 74.1712 78.6709 74.0372C78.9159 72.8632 78.9009 71.5402 79.4669 70.5502C80.3889 68.9322 81.6909 67.5292 82.8309 66.0352L82.3399 65.4442C81.5229 65.9272 80.5079 66.2442 79.9269 66.9292C78.7449 68.3232 77.5879 69.8152 76.7969 71.4492C75.4729 74.1842 74.4639 77.0712 73.2789 79.8752C72.7639 81.0912 72.3199 82.9512 70.5949 82.2412C68.7499 81.4802 70.0479 79.8552 70.4809 78.6992C71.1699 76.8552 72.0799 75.0932 72.6959 73.7372C70.9499 73.9452 69.1799 74.1962 67.4019 74.3512C66.6499 74.4152 65.7559 74.0032 65.1409 74.2812C63.0959 75.2052 61.7999 74.8342 61.3749 72.5702C60.4279 73.1852 59.6259 74.0182 58.6809 74.2422C57.5339 74.5152 55.9779 74.6942 55.1379 74.1212C54.4649 73.6622 54.2199 71.9372 54.4499 70.9252C54.9069 68.9132 55.7609 66.9792 56.5719 65.0662C57.0739 63.8812 57.5789 61.9892 59.2729 62.8132C60.9469 63.6262 59.4269 64.9982 59.0409 66.0992C58.4419 67.8012 57.8319 69.5002 57.2279 71.2002L58.1879 71.7802C59.1019 70.9862 60.2409 70.3392 60.8809 69.3652C61.9289 67.7732 62.5619 65.9132 63.5539 64.2792C63.9649 63.6022 64.8499 63.2142 65.5209 62.6952C65.6569 63.5572 65.9829 64.4432 65.8749 65.2752C65.7679 66.1162 65.1769 66.8852 64.8939 67.7172C64.4689 68.9632 64.1259 70.2372 63.6939 71.6862C65.7369 71.7642 66.6119 70.9042 67.1889 69.3872C69.0149 64.5942 70.8609 59.8062 72.8679 55.0872C73.2109 54.2792 74.3769 53.8232 75.1639 53.2032C75.2549 54.1772 75.6889 55.2812 75.3799 56.1022C73.7349 60.4512 71.8879 64.7222 70.1519 69.0372C69.8589 69.7642 69.7649 70.5712 69.5799 71.3412C72.6389 69.9662 75.1919 68.4462 76.1239 65.1952C76.3519 64.4052 77.2859 63.8182 77.8949 63.1372L79.3109 64.6372C79.7409 64.2752 80.1349 63.8632 80.6019 63.5622C82.0719 62.6152 83.6549 61.7802 85.2049 63.2472C86.8089 64.7642 85.5949 66.2422 84.7569 67.5542C83.8449 68.9852 82.7279 70.2842 81.6999 71.6402C84.0119 70.1502 87.1689 69.4822 87.5889 66.2622C88.6129 58.3972 89.5129 50.5162 90.4259 42.6372C90.6969 40.3052 90.8419 37.9582 91.0529 35.5282C72.8429 39.9372 55.0239 39.9642 36.9649 35.4592ZM44.7809 96.8282C45.6579 99.1452 46.9899 101.421 47.3389 103.839C48.0759 108.986 48.2629 114.211 48.7849 119.393C48.8609 120.148 49.3499 121.185 49.9599 121.517C58.9399 126.397 68.0069 127.243 77.1689 121.906C78.5359 121.11 78.7889 120.059 78.9659 118.581C79.8229 111.4 77.9149 103.783 82.5059 97.0212C69.6499 100.21 57.1029 100.309 44.7809 96.8282ZM75.7719 36.7482C80.1339 36.3272 84.4429 35.3032 88.7569 34.4572C89.5699 34.2982 90.2919 33.6792 91.0559 33.2722C90.0489 32.3872 89.1779 31.9612 88.2679 31.8542C83.7379 31.3192 79.1919 30.9072 74.6649 30.3462C73.9809 30.2612 72.7599 29.4172 72.8109 29.2632C74.1319 25.2832 74.0669 20.7782 77.0649 17.4242C80.8539 13.1842 84.6819 8.98118 88.4809 4.77618C85.6549 1.73618 85.6169 1.73218 83.0559 4.39318C81.6079 5.89718 80.2849 7.54318 78.7139 8.90518C72.9009 13.9432 68.8179 19.9102 68.0219 27.7772C67.8389 29.5822 66.8479 30.2342 64.9529 30.2622C58.6969 30.3532 52.4339 30.5252 46.1919 30.9362C43.0989 31.1392 40.0439 31.9332 36.9709 32.4592L36.9429 33.6082C38.8659 34.2012 40.7519 34.9802 42.7159 35.3572C53.6599 37.4552 64.7069 37.8152 75.7719 36.7482ZM72.2759 34.0002C69.7989 36.0002 67.7519 36.0002 65.7749 34.0002H72.2759Z" fill="#EB4A4B"></path>
  </symbol>
  <symbol fill="none"
    xmlns="http://www.w3.org/2000/svg" viewBox="0 0 128 128" id="html5">
    <path d="M9.03223 2L19.0372 114.093L63.9332 126.494L108.953 114.107L118.968 2H9.03223ZM98.1582 28.539L97.5312 35.711L97.2552 39H44.5902L45.8472 53H96.0032L95.6672 56.471L92.4342 92.59L92.1962 94.86L64.0002 102.609V102.611L63.9662 102.629L35.7892 95.206L33.8762 74H47.6912L48.6702 84.919L63.9572 89H64.0002V88.454L79.3552 84.579L80.9592 67H33.2612L29.8782 28.883L29.5492 25H98.4882L98.1582 28.539Z" fill="#E44D26"></path>
  </symbol>
  <symbol fill="none"
    xmlns="http://www.w3.org/2000/svg" viewBox="0 0 128 128" id="javascript">
    <path d="M1.4082 1.4082H126.592V126.593H1.4082V1.4082Z" fill="#F0DB4F"></path>
    <path d="M116.347 96.7359C115.43 91.0249 111.706 86.2279 100.675 81.7549C96.8431 79.9939 92.5711 78.7329 91.2981 75.8289C90.8461 74.1389 90.7861 73.1869 91.0721 72.1639C91.8931 68.8439 95.8561 67.8089 98.9971 68.7609C101.02 69.4389 102.935 70.9979 104.09 73.4849C109.492 69.9869 109.481 70.0099 113.253 67.6059C111.872 65.4649 111.135 64.4769 110.231 63.5609C106.982 59.9319 102.555 58.0629 95.4751 58.2059L91.7871 58.6829C88.2531 59.5759 84.8851 61.4309 82.9101 63.9179C76.9841 70.6419 78.6741 82.4099 85.8851 87.2529C92.9891 92.5849 103.425 93.7979 104.758 98.7839C106.055 104.888 100.272 106.864 94.5241 106.162C90.2881 105.281 87.9321 103.128 85.3851 99.2129C80.6971 101.926 80.6971 101.926 75.8771 104.698C77.0201 107.197 78.2211 108.328 80.1371 110.493C89.2051 119.691 111.897 119.239 115.967 105.317C116.132 104.839 117.228 101.651 116.347 96.7359ZM69.4621 58.9429H57.7531L57.7051 89.2149C57.7051 95.6529 58.0381 101.555 56.9911 103.364C55.2781 106.922 50.8391 106.481 48.8161 105.791C46.7571 104.779 45.7101 103.34 44.4971 101.306C44.1641 100.722 43.9141 100.27 43.8301 100.235L34.3101 106.065C35.8931 109.314 38.2251 112.134 41.2121 113.966C45.6741 116.644 51.6711 117.465 57.9431 116.025C62.0251 114.836 65.5471 112.373 67.3911 108.624C70.0571 103.709 69.4851 97.7599 69.4611 91.1799C69.5211 80.4449 69.4621 69.7119 69.4621 58.9429Z" fill="#323330"></path>
  </symbol>
  <symbol fill="none"
    xmlns="http://www.w3.org/2000/svg" viewBox="0 0 410 404" id="vite">
    <path d="M399.641 59.5246L215.643 388.545C211.844 395.338 202.084 395.378 198.228 388.618L10.5817 59.5563C6.38087 52.1896 12.6802 43.2665 21.0281 44.7586L205.223 77.6824C206.398 77.8924 207.601 77.8904 208.776 77.6763L389.119 44.8058C397.439 43.2894 403.768 52.1434 399.641 59.5246Z" fill="url(#paint0_linear)"></path>
    <path d="M292.965 1.5744L156.801 28.2552C154.563 28.6937 152.906 30.5903 152.771 32.8664L144.395 174.33C144.198 177.662 147.258 180.248 150.51 179.498L188.42 170.749C191.967 169.931 195.172 173.055 194.443 176.622L183.18 231.775C182.422 235.487 185.907 238.661 189.532 237.56L212.947 230.446C216.577 229.344 220.065 232.527 219.297 236.242L201.398 322.875C200.278 328.294 207.486 331.249 210.492 326.603L212.5 323.5L323.454 102.072C325.312 98.3645 322.108 94.137 318.036 94.9228L279.014 102.454C275.347 103.161 272.227 99.746 273.262 96.1583L298.731 7.86689C299.767 4.27314 296.636 0.855181 292.965 1.5744Z" fill="url(#paint1_linear)"></path>
    <defs>
      <linearGradient id="paint0_linear" x1="6.00017" y1="32.9999" x2="235" y2="344" gradientUnits="userSpaceOnUse">
        <stop stop-color="#41D1FF"></stop>
        <stop offset="1" stop-color="#BD34FE"></stop>
      </linearGradient>
      <linearGradient id="paint1_linear" x1="194.651" y1="8.81818" x2="236.076" y2="292.989" gradientUnits="userSpaceOnUse">
        <stop stop-color="#FFEA83"></stop>
        <stop offset="0.0833333" stop-color="#FFDD35"></stop>
        <stop offset="1" stop-color="#FFA800"></stop>
      </linearGradient>
    </defs>
  </symbol>
  <symbol fill="none"
    xmlns="http://www.w3.org/2000/svg" viewBox="0 0 128 128" id="nuxtjs">
    <path d="M39.2668 108.97L38.9828 108.403C38.4158 107.268 38.4158 106.133 38.6998 104.714H8.05881L53.4538 24.1399L72.4628 58.4699L78.7038 53.9299L59.6948 19.5999C59.4118 19.0329 57.1418 15.6289 53.4538 15.6289C51.7508 15.6289 49.1978 16.1959 47.2118 19.8839L1.24981 101.31C0.965808 102.162 -1.02019 105.85 0.681808 108.97C1.81681 110.673 3.51981 112.375 7.49181 112.375H46.0768C42.1048 112.375 40.1188 110.673 39.2668 108.971V108.97Z" fill="#00C58E"></path>
    <path d="M126.65 101.59L89.7669 35.2011C89.1999 34.6341 87.2139 30.9451 83.5249 30.9451C81.8229 30.9451 79.2699 31.7961 77.2839 35.2011L72.4609 43.1451V58.4661L83.5259 39.4571L120.125 104.711H106.223C106.455 106.062 106.257 107.452 105.655 108.683L105.371 108.967C103.669 112.087 99.4129 112.371 98.8459 112.371H120.408C121.259 112.371 125.231 112.088 127.217 108.967C128.068 107.548 128.636 104.995 126.65 101.59Z" fill="#108775"></path>
    <path d="M106.51 108.97V108.686L106.794 108.119C107.077 106.984 107.361 105.849 107.077 104.714L105.943 101.31L77.0049 50.8089L72.7489 43.1489H72.4649L68.2089 50.8089L39.2709 101.309L38.1369 104.714C37.8621 106.157 38.061 107.65 38.7039 108.97C39.8389 110.672 41.5409 112.375 45.5129 112.375H99.4189C100.27 112.375 104.526 112.091 106.512 108.97H106.51ZM72.4639 58.4689L98.8499 104.714H46.0789L72.4639 58.4689Z" fill="#2F495E"></path>
  </symbol>
  <symbol xmlns="http://www.w3.org/2000/svg" viewBox="0 0 79 78" id="postcss">
    <g fill="none" fill-rule="evenodd">
      <path d="M15.447 32.623c.106.08.29.132.106.29-.132.184-.29.342-.395.553-.105.185-.184.237-.342.106.21-.343.42-.66.63-.95zM68.342 60.24c0 .078.026.13.026.21.053-.105.053-.158.08-.21h-.106zm0 .236v-.026.026zm-5.368 10.277l-4.58-25.402c-.078-.025-.183-.077-.368-.13.053.105.08.184.106.263.13-.026.184-.026.236-.052 0-.026 0-.052.027-.08l4.58 25.404zm-4.737-31.12c-.026.078-.026.158-.026.237 0-.08 0-.16.028-.238zm.026.526c-.026 0-.026 0-.052-.028v.026c.028.026.028.026.054 0zm-.052.21v-.185c-.077.026-.156.026-.262.053.132.05.264.078.264.13z" fill="#DD3735"></path>
      <path d="M78.71 33.967c-.052-1.028-.078-2.056-.184-3.083-.184-1.397-.368-2.82-.684-4.19-.237-1.133-.63-2.214-1.026-3.294-.5-1.265-1-2.556-1.632-3.768-1.026-1.95-2.368-3.69-3.605-5.508-.818-1.16-1.87-2.108-2.66-3.294-.447-.685-1.105-1.264-1.763-1.79-1.053-.845-2.158-1.61-3.263-2.347a32.525 32.525 0 00-2.58-1.634c-.71-.397-1.473-.713-2.21-1.056-.842-.395-1.658-.87-2.605-1.054-.238-.05-.448-.13-.685-.21-.605-.21-1.184-.447-1.79-.632-.92-.29-1.815-.632-2.763-.87C50.342 1 49.394.843 48.446.71 47.394.555 46.316.5 45.262.397a26.83 26.83 0 00-2.026-.184c-1-.052-2.026-.052-3.026-.078-.5-.027-1.026-.08-1.526-.053-.763.026-1.526.105-2.29.21-.736.08-1.473.21-2.183.317-.867.105-1.735.158-2.604.264-.816.106-1.658.264-2.473.396-.29.053-.58.158-.87.21-.63.132-1.288.185-1.92.396-1.13.344-2.263.74-3.368 1.16-1.027.422-2.027.87-3 1.397-1 .552-1.948 1.21-2.895 1.844a45.325 45.325 0 00-2.66 1.923c-.84.66-1.63 1.397-2.394 2.135-.42.42-.763.922-1.158 1.396-.657.765-1.315 1.502-1.947 2.293-.524.66-1 1.344-1.5 2.03-.893 1.21-1.656 2.502-2.366 3.794-.29.527-.553 1.054-.816 1.58-.395.79-.816 1.555-1.184 2.372-.264.554-.474 1.16-.632 1.766-.367 1.292-.736 2.61-1.078 3.9-.316 1.16-.395 2.372-.42 3.558-.027 1.054.078 2.082.183 3.136.027.264-.13.58.184.79-.105.29-.026.45.13.5-.182.29.08.476-.024.74-.027.052.08.157.13.236 0 .08-.025.185 0 .264.028.237.133.474.133.738 0 .184.157.395.21.58.026.078 0 .21-.053.263-.158.184-.132.342.105.448.133.342.08.5.054.66.052.236-.027.315 0 .368.21.422.29.896.315 1.37 0 .106.053.212.106.343.026 0 0 .5 0 .5.13-.078.237-.104.368-.157.08.342.158.66.263.95.132.21.132.314.08.34.105.474.157.922.34 1.37 0-.5-.05-1-.13-1.475.368.132.684.263.895.263.027-.08.053-.184.08-.237-.158-.157-.29-.394-.448-.552.053.21 0 .29 0 .37-.105-.054-.237-.107-.368-.16.105-.13.21-.263.368-.42 0-.238-.13-.45-.5-.423.158-.052.316-.13.5-.184.29-.157-.026-.447-.026-.816.026-.447-.237-.895-.316-1.37-.132-.737-.105-1.844-.184-2.582-.158-.132-.29.21-.316.237.08.632.158 1.264.21 1.897-.157-.527-.263-1.107-.394-1.74-.027.185-.053.264-.053.37-.13.13-.026.29.053.474-.184-.08-.395-.052-.395-.052v.738c-.262-.264-.34-.474-.473-.66-.052-.21-.08-.42-.13-.63.05-.133 0-.212 0-.29a15.968 15.968 0 01-.08-.634c.026-.026-.026-.42-.026-.42.21.025.343.05.474.05-.263-.34-.08-.552.027-.763.053-.106.237-.13.29-.238.21-.395.553-.71.553-1.212 0-.237.08-.5.105-.738.053-.448.105-.896.13-1.344.054-.58 0-1.16.133-1.713.212-.92.475-1.843.764-2.766.21-.66.448-1.29.71-1.95.395-1.028.764-2.056 1.264-3.03.71-1.424 1.526-2.794 2.316-4.19.5-.87 1.026-1.687 1.58-2.53.525-.817 1.05-1.66 1.657-2.425a21.452 21.452 0 012.79-2.978c1.053-.948 2.053-1.923 3.184-2.793a31.984 31.984 0 014.682-3.006c1.343-.71 2.737-1.266 4.132-1.793.895-.342 1.868-.5 2.79-.79 1.052-.343 2.105-.5 3.21-.527.71-.027 1.395-.106 2.105-.185.632-.05 1.263-.104 1.948-.183-.08.105-.106.158-.132.21-.288.422-.604.844-.894 1.265-.237.343-.5.712-.737 1.054-.422.555-.87 1.108-1.264 1.688-.605.87-1.158 1.766-1.79 2.635-.63.843-1.315 1.634-1.973 2.45-.868 1.134-1.684 2.293-2.552 3.426-.79 1.08-1.63 2.11-2.394 3.19-.684.947-1.29 1.95-1.948 2.923-.973 1.45-1.947 2.872-2.92 4.322a271.928 271.928 0 01-2.316 3.294c-.053.08-.132.104-.21.157-.21.342-.21.527-.29.685-.21.395-.42.79-.658 1.16-.132.21-.316.394-.474.605-.026-.316.42-.474.21-.87-.13.212-.263.396-.394.607l-.316.63c.105.08.29.133.105.29-.08.133-.158.29-.237.423a.954.954 0 00.29-.264c0 .29-.158.526-.29.763-.105.21-.368.37-.552.527.026.027.21.106.237.132.237-.08.316-.21.343-.132.08-.105.158-.184.184-.263.104-.264.262-.474.525-.58.106-.053.184-.132.263-.21.79-.818 1.606-1.608 2.316-2.478 1.106-1.345 2.106-2.74 3.16-4.11.446-.58.973-1.16 1.446-1.714.078.606.026 1.185 0 1.74-.08.974-.132 1.95-.21 2.95-.027.395 0 .79-.027 1.186 0 .105-.08.184-.08.29 0 .263.08.553.08.817-.08.975-.186 1.923-.265 2.898-.027.21.078.422.13.607-.13 1.422.16 2.925-.078 4.427.184-.29.237-.474.237-.658.025-.158 0-.316 0-.5v-.264c.025-.475.13-.975.078-1.45-.053-.527-.053-1.027.053-1.528.053-.21-.026-.474.106-.738v.395c-.026 1.5.027 3.003-.183 4.505-.027.132.08.37-.21.343-.238.474.052.817-.21 1.08-.054.053.05.29.077.448-.106.317-.106.317.052.343.026.58.08 1.106.105 1.66.42-1 .21-2.03.396-3.058.026.422.053.844.026 1.29 0 .687-.026 1.345-.052 2.03 0 .132-.027.264-.053.396-.08.37-.105.738-.237 1.08-.105.264-.052.66-.052.975v1.003c.105.448-.027.685.052.948-.08.265-.105.344-.08.423l.08.395c.527-.053.29.343.5.553-.158.212-.105.29-.105.397 0 .237-.025.448-.052.685 0 .606-.026 1.212-.026 1.792 0 .08.026.157.026.236 0 .054-.026.74-.026.74.053.078 0 .157-.08.236-.025 0-.104-3.347-.104-3.347h-.395c-.052 1.58.08 3.003-.21 4.48-.316.025-.42.078-.764.078-.816 0-1.632 0-2.448.026-.974 0-1.92.026-2.895.026-.472 0-.972.054-1.446.054-.632 0-1.29-.08-1.92-.08-.975 0-1.922.08-2.896.106-.71.026-1.42.026-2.13.053-.475.025-.95.05-1.422.104-.21.026-.395.105-.658.184-.08 0-.263-.026-.42 0-.265.053-.5.21-.765.264-.395.08-.5.184-.448.58v.263c-.026.052.58-.08.58-.08-.054 0-.08.158-.16.29.212-.08.343-.132.475-.184.395.185.737.08 1.052.16 1.026.262 2.078.37 3.13.473.685.053 1.343.08 2.027.105.973.053 1.947.106 2.92.106.816 0 1.606-.08 2.42-.08 1.13 0 2.264.052 3.395.08.237 0 .5-.028.763-.028h1.92c1.712-.052 3.422-.08 5.133-.13.975-.028 1.975-.08 2.948-.107l3-.08c1.158-.026 2.316-.026 3.448-.05.868 0 1.71-.03 2.58-.055.972-.026 1.972-.105 2.946-.157.527-.027 1.054-.08 1.58-.132.632-.052 1.29-.13 1.92-.157.948-.054 1.922-.08 2.87-.133 1.184-.078 2.368-.183 3.578-.21 1.106-.052 2.237-.026 3.343-.052.974-.027 1.948-.08 2.948-.106l1.66-.08s1.104-.026 1.657-.08c.947-.052 1.894-.157 2.842-.183.604-.027 1.21 0 1.815-.027.973-.026 1.973-.08 2.947-.08.367 0 .762.054 1.236.08-.21.185-.342.29-.5.422.105.026.21.08.316.132a.71.71 0 01-.42.13c-.054.133-.107.186-.16.45h.474c-.184 0-.342.237-.526.395-.21-.054-.395 0-.5.29.184.104.158.183.132.29-.316.104-.553.21-.42.552-.107.052-.238.105-.37.184-.13.21-.368.263-.316.553.106.025.21.08.29.104-.132.053-.263.132-.395.184-.473.29-.262.422-.157.554-.08.053-.158.105-.237.132.052.237.13.29.157.29a9.301 9.301 0 00-.395.316c-.08.237-.185.342-.29.5-.105.158-.158.37-.29.527-.552.607-.947 1.32-1.657 1.793-.264.185-.5.422-.737.66-.474.447-.895.948-1.395 1.37a29.595 29.595 0 01-2.052 1.554c-.867.606-1.735 1.212-2.604 1.792-.474.315-1 .552-1.5.842-.5.29-.974.554-1.474.843-.316.21-.606.5-.948.66-.868.37-1.79.685-2.684 1.028-.87.37-1.5.685-2.158.922-.605.21-1.237.37-1.868.5-.21.054-.448 0-.685.027-.448.08-.895.186-1.343.238-1.158.158-2.316.264-3.473.422-.685.08-1.343.21-2.027.29-.473.026-.973-.026-1.447-.026-.342 0-.71.08-1.053.027-.552-.08-1.105-.21-1.658-.316-.13-.026-.316-.08-.42-.026-.21.106-.396-.052-.607 0-.13.027-.262-.08-.394-.08-.106-.025-.238.028-.37 0-.29-.078-.552-.183-.87-.157-.313.026-.63-.132-.97-.21-.475-.106-.92-.21-1.396-.317a2.381 2.381 0 01-.525-.237c-.685 0-1.133-.026-1.554-.185-.368-.13-.71-.315-1.105-.262-.104.026-.183-.026-.29-.026-.08-.106-.157-.317-.235-.317-.526.027-.842-.42-1.29-.553-.236-.08-.42-.343-.657-.422-.58-.237-1.052-.737-1.71-.816-.21-.027-.42-.132-.658-.21.08.104.13.183.21.262-.763-.37-1.473-.79-2.184-1.186-.104-.026-.183-.13-.262-.184l-.71-.474c-.395.08-.553-.08-.66-.132-.71-.5-1.525-.817-2.21-1.37-.29-.238-.63-.396-.84-.686-.37-.448-.817-.764-1.317-1.027-.394-.21-.762-.448-1.13-.685-.185-.132-.37-.29-.37-.58 0-.185-.078-.37-.315-.264-.105-.158-.21-.342-.342-.395-.316-.13-.526-.37-.763-.58-.237-.21-.42-.5-.71-.605-.527-.21-.843-.658-1.158-1.027-.738-.87-1.396-1.82-2.08-2.74-.053-.08-.158-.133-.237-.212.105.29.237.527.368.79-.262-.105-.446-.29-.604-.474-.027.027 1.815 3.057 1.815 3.057.16.237.29.475.448.712a.813.813 0 01-.79-.422c-.236-.42-.5-.684-1.026-.63a4.588 4.588 0 01-.13-.58c-.107 0-.185 0-.37-.027.37.58.685 1.08 1.027 1.66-.133-.08-.21-.132-.265-.158.473.5.815 1.133 1.42 1.45.132.605.816.895.974 1.475-.13-.027-.238-.053-.37-.08-.21-.263-.447-.526-.683-.816.052.184.13.342.236.474.316.395.606.79.974 1.133.132.134.316.187.316.424.21.105.29.13.368.13.054.16-.025.397.29.344.21.395.42.395.71.264.343.343.528.37.764.16 0 .13.026.262.026.368.105-.053.08-.132.08-.264.13.105.21.158.262.21.263.37.5.712.868 1.002.5.422.948.87 1.42 1.265.922.765 1.95 1.398 2.975 1.977 1.264.712 2.475 1.476 3.764 2.16 1.552.818 3.21 1.372 4.92 1.767.632.132 1.237.263 1.87.42.55.16 1.104.397 1.657.528.842.185 1.71.343 2.552.5.183.027.37.054.58.08.235.053.524-.053.577.027.132.21.237.104.395.078.184-.053.395-.053.605-.053.737.026 1.447.184 2.184.132.16 0 .396-.133.528.13.236-.105.368-.105.473-.13.028.236 0 .236-.05.262-.054.026-.133.053-.238.132.947.184 1.842.21 2.63 0 1.37.105 2.554-.053 3.686-.448.105.132.184.316.342.053.052-.08.184-.107.29-.133.236-.053.526-.158.736-.08.238.08.317-.13.5-.13.317 0 .606-.027.896-.08.158-.026.316-.105.5-.158a1.275 1.275 0 00-.58-.133c.317-.158.606-.29.896-.42-.053.078-.106.183-.21.183h.367c-.08 0-.185.237-.316.395.946-.237 1.814-.448 2.657-.66-.29-.552.315-.367.526-.684-.263.08-.526.158-.79.21.895-.447 1.816-.842 2.71-1.237-.13.158-.29.237-.525.37.158.025.263.025.342.05.42.133.316-.262.447-.5.5 0 .71-.078.947-.158.263-.08.526-.158.79-.263.42-.184.815-.42 1.236-.63.08-.028.21 0 .316 0 .29-.186.394-.344.473-.318.37.053.63-.08.736-.42.184-.133.316-.238.447-.318.578-.316 1.13-.632 1.71-.948.21 0 .316 0 .368-.027.344-.16.66-.342.975-.527a2.258 2.258 0 01-.263-.13c.262-.054.34-.08.5-.133.63-.74 1.5-1.24 2.157-1.82.29-.026.29-.105.29-.157.104-.132.21-.29.34-.396.58-.527 1.21-.975 1.737-1.528.763-.766 1.5-1.557 2.184-2.374.63-.738 1.264-1.475 1.79-2.292.737-1.133 1.368-2.293 2.026-3.48.474-.842.895-1.685 1.37-2.528.05-.08.157-.185.236-.185.71-.08 1.422-.13 2.106-.21.158-.026.342-.13.5-.21-.08-.132-.132-.29-.21-.422-.106-.16-.264-.29-.37-.45-.104-.13-.183-.29-.262-.447-.08-.13-.158-.236-.237-.37-.16-.29-.317-.58-.45-.894-.026-.08-.08-.21-.052-.29.474-1.027.658-2.134 1.105-3.162.447-1.054.58-2.24.79-3.373.184-1.08.29-2.16.42-3.24.08-.764.185-1.502.21-2.266.16-1.212.106-2.346.08-3.48-.026-1-.08-2.028-.13-3.03zM12.685 66.405c-.184-.21-.342-.448-.526-.658l.08-.08c.287.317.577.633.866.976-.158-.08-.342-.132-.42-.238zm.42.238c.08-.027.16-.027.238-.053.08.132.132.29.21.448-.368-.027-.552-.185-.447-.395zm27.37 10.883v-.08c.5-.052.973-.105 1.473-.157v.077c-.5.08-.973.13-1.473.158zm6.63-.685c-.367.08-.762.133-1.13.186-.132.026-.29.158-.342-.08-.053.027-.106.027-.158.054.13.394.447.078.71.236-.58.08-1.13.132-1.684.21v-.052c.16-.026.343-.053.5-.08v-.078a7.705 7.705 0 00-.79-.053c-.077 0-.183.106-.262.132-.105.026-.21.053-.342.053-.447.026-.894.026-1.316.052-.027 0-.08-.026-.106-.026v-.08c1.763-.236 3.5-.473 5.263-.71.027.052.027.105.053.157-.158 0-.263.055-.395.08zm.396-.262c.606-.08 1.16-.132 1.738-.21-1.21.342-1.605.394-1.737.21zM24.58 23.374c.84-1.16 1.71-2.32 2.552-3.505.263-.345.473-.714.736-1.056.08-.106.185-.158.316-.264l-.026-.05c.105-.133.21-.24.263-.344.134-.21.213-.448.318-.685a.385.385 0 01.105-.103c.37.184.37-.21.5-.343.237-.264.474-.553.684-.817.158-.21.316-.395.448-.632.026-.08-.053-.21-.08-.317h-.078c.08-.052.158-.13.237-.184.026 0 .026 0 .052-.026.158-.238.316-.475.474-.686.315-.42.657-.842 1.025-1.21-.052.13-.105.263-.158.368.027 0 .027.027.053.027.316-.422.658-.817.974-1.24-.027-.025-.053-.052-.08-.052-.13.132-.236.264-.368.396-.026-.027-.052-.053-.08-.053.265-.343.528-.685.79-1.08.053.08.106.184.21.395.107-.263.212-.447.29-.632-.078.08-.183.158-.262.238l-.08-.08.474-.71c.5-.712 1-1.45 1.5-2.162.185-.263.42-.474.58-.738.5-1 1.29-1.792 1.894-2.714.132-.184.316-.342.474-.5.13-.16.237-.106.342.026.71.896 1.42 1.818 2.13 2.714.528.66 1.054 1.29 1.554 1.976.605.844 1.184 1.687 1.79 2.53.684.975 1.368 1.95 2.026 2.95 1 1.477 1.947 2.953 2.947 4.428.737 1.08 1.474 2.135 2.184 3.215h-1.344c-1.236-.025-2.5-.13-3.736-.078-1.684.08-3.394.264-5.078.396-2.132.185-4.29.21-6.42.21-.765 0-1.528.107-2.29.16-.922.052-1.817.105-2.738.13-1.08.054-2.13.08-3.21.107-.606.026-1.237 0-1.895 0zm30.183 12.12v.238c-.026 0-.052.027-.105.027-.105-.37-.21-.766-.342-1.135-.263-.765-.553-1.53-1.027-2.214-.528-.737-1-1.5-1.528-2.265-.13-.185-.316-.343-.474-.5-.553-.607-1.106-1.24-1.816-1.687a21.485 21.485 0 00-3.29-1.688 7.374 7.374 0 01-.92-.474h.63l4.5-.08c.974-.025 1.922-.025 2.895-.078.236 0 .368.08.5.29.236.395.473.79.736 1.186.027.052.08.13.08.21 0 .58 0 1.186.026 1.766.025.606.08 1.186.104 1.792 0 .606-.053 1.238-.026 1.87.027.897.053 1.82.053 2.74zM26.447 26.67c1.237-.053 2.42-.132 3.632-.185.945-.053 1.92-.08 2.866-.132.395-.025.764-.05 1.158 0-.42.212-.842.423-1.21.686-.474.316-.92.737-1.395 1.08-.475.342-.896.764-1.29 1.212-.5.605-1.053 1.132-1.58 1.712-.37.422-.79.817-1.105 1.265-.447.58-.842 1.21-1.263 1.87.132-2.504.29-4.98.184-7.51zm17.185 25.35c-.843.21-1.71.448-2.58.553-.736.106-1.5.08-2.263.08a25.42 25.42 0 01-2.028-.08c-.763-.078-1.526-.157-2.263-.5-.633-.29-1.29-.553-1.92-.87-.634-.316-1.265-.684-1.74-1.264-.34-.423-.815-.765-1.236-1.134.08.316.263.58.553.764-.132.158-.316.08-.58-.343-.078.053-.157.08-.21.106.08-.185.158-.37.237-.527-.105-.21-.237-.448-.342-.66-.21-.342-.42-.71-.605-1.053-.053-.08-.053-.158-.105-.237a5.893 5.893 0 01-.37-.475c-.21-.315-.394-.657-.657-.974 0 .08.027.158.027.264-.027 0-.053.026-.053.026l-.554-1.344c-.026 0-.026 0-.052.026l.473 1.74c-.026 0-.052.025-.08.025-.077-.104-.156-.21-.21-.34-.052-.212-.21-.212-.34-.133-.08.053-.133.237-.106.316.185.448.395.896.606 1.344.052.158.105.29.184.448.027.053.106.105.106.184.106.21.185.42.316.606.237.316.5.632.737.948.235.316.445.66.656.975.026.053.105.053.13.08.133.395.58.684.896.526.08.606.737.817 1 1.397a11.957 11.957 0 01-.763-.343c-.027.026-.027.052-.054.105.316.158.632.316.92.5.265.16.528.317.765.5.316.29.685.45 1.13.554a.282.282 0 00-.05-.107c.736.343 1.5.712 2.078 1-2.737.054-5.658.107-8.685.16 0-.5-.026-.975-.026-1.476 0-.21.052-.395.025-.606-.08-1.21-.08-2.424-.237-3.61-.157-1.264-.157-2.503-.13-3.77.025-.683-.027-1.394-.054-2.08 0-.922 0-1.82.028-2.74 0-.132.053-.237.106-.37h.08c.025.054 0 .133.05.16.08.08.212.21.265.184.157-.106.394-.21.447-.37.13-.315.184-.658.184-.974 0-.236.106-.394.21-.553.054-.08.08-.158.133-.263-.105-.08-.21-.132-.342-.237.106-.29.08-.633.475-.79.052-.027.052-.16.08-.238.025-.213.05-.45.078-.66.052.08.08.105.13.157a.42.42 0 01.054-.08c0-.104-.026-.315 0-.315.316-.053.184-.395.342-.553.025-.028-.027-.107-.027-.16 0-.052 0-.13.026-.13.367-.08.315-.475.552-.66.08-.053.105-.13.21-.263.21.368-.158.553-.184.816.446-.263.578-.895.315-1.08.105-.08.21-.184.29-.29.29-.316.604-.606.868-.922.185-.236.29-.526.474-.763.106-.132.316-.237.474-.317.474-.262.92-.552 1.21-1 .053-.053.132-.105.21-.158.08-.053.238-.053.264-.132.027-.052-.052-.184-.105-.263.104-.053.21-.158.42-.264-.08.158-.105.264-.158.37l.13.13c.238-.184.606-.394.843-.552 0-.025-.132-.13-.132-.13-.157.08-.394.21-.63.316.05-.08.05-.132.08-.158.367-.237.735-.474 1.13-.66.92-.42 1.842-.842 2.763-1.237.158-.08.37-.026.553-.026.078 0 .13 0 .21-.026.42-.132.842-.264 1.263-.37.183-.052.393-.078.58-.078.787.025 1.577.025 2.366.078.342.026.658.105.974.21a9.88 9.88 0 011.184.5c.447.24.868.502 1.29.792.763.5 1.473 1.054 2.236 1.502.737.448 1.316 1.054 1.79 1.74.58.816 1.237 1.554 1.5 2.555l.394 1.74c.08.316.264.632.185 1-.133.66-.238 1.345-.343 2.004-.052.265-.105.53-.078.79.05.82-.265 1.53-.58 2.268-.106.237-.264.475-.395.738a.798.798 0 00.21.106l.237-.474c.027 0 .027 0 .053.027-.132.368-.237.764-.37 1.133-.314.817-.63 1.66-1.025 2.45-.21.448-.58.817-.842 1.24-.262.368-.473.763-.736 1.106-.237.29-.473.58-.79.79-.71.527-1.447 1.054-2.21 1.476-.473.29-1.026.448-1.552.58zm-14.027-1.4l-.026.027c-.055-.026-.134-.052-.186-.105l-.632-.95c-.052-.078-.08-.157-.052-.262.29.448.58.87.895 1.29zm16.37 3.61c1.183-.5 2.157-1.21 3.05-2.028.133-.132.264-.263.422-.37 1.106-.684 1.92-1.633 2.658-2.687.842-1.212 1.395-2.582 2.08-3.873a2.73 2.73 0 01.157-.29c-.053 3.004.29 5.955.684 8.933-2.973.105-6 .21-9.052.316zm26.683-.79c-.026.053-.08.106-.105.16-.027-.054-.027-.133-.053-.24-.158.423-.5.212-.737.212-1.42.027-2.868.027-4.29.027-1.368 0-2.762 0-4.13.024-.448 0-.922.105-1.37.132-1.078.052-2.157.08-3.236.105-.08 0-.158-.13-.29-.236a1.81 1.81 0 01-.158.237c-.028-.052-.08-.104-.133-.183-.026.08-.053.158-.08.21H58c-.053-.368-.158-.71-.158-1.08 0-.79.08-1.58.105-2.372.027-.368 0-.71 0-1.054.106.08.185.133.29.21.052-.103.105-.182.158-.26 0 0-.053-.028-.106-.08.05-.027.104-.08.104-.106.026-.08.08-.158.08-.21 0-.185-.054-.343-.08-.5.026 0 .052 0 .08-.028l.157.79h.08c-.106-.183.236-.342-.053-.552-.026-.027.026-.185.026-.264-.08-.157-.13-.315-.21-.526.026-.026.105-.053.184-.08-.105-.052-.184-.104-.263-.13.263-.238.263-.37.026-.633.054-.025.106-.025.106-.05 0-.238 0-.475-.052-.71-.053-.266.08-.58-.316-.74.026.08.053.132.105.21 0 0-.08.027-.158.08-.342-.317-.13-.74-.21-1.213.184.053.316.106.447.16-.053-.186-.184-.397-.263-.634h-.107v-1.74c0 .027.184.027.29.054 0-.027.025-.053.025-.08-.08-.105-.185-.21-.29-.342l.053-.053c-.21-.262-.105-.63-.105-.71V39.4c.264.264-.13.606.264.764v-.263h-.027c-.026-.395-.026-.79-.052-1.186h-.052c-.027.054-.027.08-.054.133h-.052l.158-6.298c.263.342.552.66.736 1 .606 1.108 1.395 2.057 2.132 3.058.632.87 1.21 1.818 1.79 2.714.71 1.08 1.394 2.16 2.105 3.24.526.818 1.08 1.635 1.63 2.426.5.71 1.028 1.396 1.554 2.082.446.606.92 1.212 1.367 1.818.527.738 1.053 1.475 1.58 2.187.262.368.552.737.84 1.106.16.21.396.37.554.5-.025 0-.052 0-.104-.026.08.105.13.184.184.237.29.158.316.316.158.554zM74 46.854v-.185c0 .052.026.13 0 .184zm.895-11.62c-.027 0-.184-.16-.21-.186-.027.08 0 .158-.053.264-.027-.078-.21-.052-.21-.13-.027.368.157.737.13 1.106.08-.053.395-.08.474-.158.027.026.08.052.106.052-.527.396-.395.79-.158 1.24.052.104.21.315.052.526-.052.053.027.21.053.343h.077v.05l-.237.08c-.052-.08-.367-.236-.367-.37v1.346c.263.08.263.448.368.633a.788.788 0 00.107-.21l.027.024c-.027.158-.053.316-.106.475-.052.236-.105.447-.13.684 0 .026.05.08.05.105-.288.66-.13 1.396-.235 2.08-.08.5 0 1.03-.053 1.556-.054.448-.16.922-.264 1.37-.027.08-.08.105-.21.158.052-.316.026-.527-.027-.817-.028 0-.37-.184-.397-.184 0 .37.21.87.29 1.29-.08-.026-.395-.21-.42-.21-.054.316-.054.738-.08 1.08-.027.264-.263.5-.29.79 0 .16.184.264.158.528h.21c0-.526.238-1 .238-1.554h.078c.027.053.106.106.08.132-.053.29-.16.606-.132.896 0 .158.13.316.08.5-.054.16-.08.317-.107.554-.027-.132-.053-.184-.053-.263-.026 0-.263-.027-.29-.027-.026.158.185.316.158.448-.026.026-.052.026-.105.053l-.868-1.266c-.686-1-1.37-2.003-2.054-3.03a6.312 6.312 0 01-.475-.79 36.947 36.947 0 00-2.71-4.033c-.762-.974-1.37-2.03-2.08-3.055-.656-.975-1.314-1.924-1.972-2.9-.237-.315-.526-.605-.737-.948-.683-1.08-1.29-2.187-1.972-3.267-.58-.897-1.21-1.767-1.816-2.636-.21-.29-.42-.607-.632-.923a.366.366 0 01-.052-.182c-.053-.58-.106-1.16-.132-1.713 0-.527.053-1.054.053-1.608v-.474c0-.132.025-.237.025-.37.025-.025.052-.078.078-.104-.763 0-1.553-.028-2.316 0-.5.025-.763-.186-1.105-.555-1-1.133-1.737-2.424-2.605-3.636a162.481 162.481 0 00-2.5-3.427c-.685-.922-1.37-1.818-2.053-2.74-.764-1.054-1.5-2.108-2.29-3.162a381.983 381.983 0 00-2.895-3.794c-.45-.58-.95-1.133-1.45-1.74.343.054.66.106.975.133l1.264.08c.947.077 1.894.13 2.84.26.79.107 1.58.265 2.396.396 1.738.29 3.448.765 5.106 1.318.974.316 1.92.738 2.87 1.133 2.13.87 4.157 1.924 6.157 3.03.63.343 1 .896 1.472 1.397.685.712 1.37 1.423 2.027 2.16.762.87 1.472 1.766 2.21 2.662.657.79 1.34 1.58 2 2.372.21.237.37.527.552.79.42.633.895 1.24 1.263 1.924.262.502.42 1.082.604 1.635.262.817.526 1.607.79 2.424.183.606.34 1.24.472 1.87.106.423.08.87.21 1.29.16.556 0 1.16.16 1.715.025.053.05.132.078.185.105.104.184.21.026.368-.025.026-.025.13 0 .21.054-.052.08-.105.133-.184 0 .053.025.08.025.105 0 .104-.027.21 0 .315 0 .052.052.13.078.184.053-.054.105-.08.21-.16.237.897.264 1.793.264 2.715 0 .87.157 1.74-.21 2.583.078-.29-.106-.555-.027-.818z" fill="#DD3A0A"></path>
      <path d="M58.08 45.482c.025 0 .052.027.052.027l-.027-.03c0-.025 0-.025-.026 0zm4.157 26.036c-.29.21-.58.395-.948.474-.028-.026-.028-.053-.054-.08.29-.184.605-.368.895-.553.027.05.08.104.106.157zM12.895 35.81c.29-.367.58-.736.894-1.105.025.026.235.08.262.105-.29.37-.685.87-.974 1.265-.054-.053-.133-.237-.185-.264zM5.42 48.725c-.21-.448-.42-.923-.63-1.37a.91.91 0 01.236-.106c.29.42.42.92.632 1.37 0 0-.21.105-.237.105zm6.712-12.65c-.158.238-.316.502-.474.74-.026-.028-.316.104-.342.078.158-.237.552-.66.71-.896.027.026.053.053.106.08zM59.422 72.6c.025 0 .025-.026.052-.026.184.026.394.052.605.052-.344.237-.555.21-.66-.026zm-47.24-35.418c.028-.08.08-.158.133-.237.052 0 .13-.027.13-.027.107-.184.107-.316.212-.474-.026-.026-.053-.026-.08-.053-.157.108-.315.24-.473.345.053.052.053.08.053.132-.21-.027-.29.08-.395.368-.026.08-.158.106-.29.21-.026.054-.052.186-.105.317l.027.028c-.053.053-.132.08-.132.08-.158.157-.342.29-.5.447-.026.08-.052.158-.052.237.185-.184.5-.527.737-.738l.027.027c.105-.158.184-.316.29-.474.025.026.025.052.052.08-.08.21-.158.446-.237.657-.055.026-.134.08-.134.053-.105.08-.184.184-.29.263l-.473.316c-.263.237-.526.447-.816.685-.184.29-.368.553-.58.896.317-.08.396.053.37.317.368.052.395-.237.5-.448.026-.054.053-.16.105-.186.237-.21.5-.394.763-.605.053-.053.053-.16.053-.238 0-.026-.133-.026-.212-.053.237-.264.58-.71.816-1 .132-.08.263-.186.263-.265-.026-.29.158-.368.37-.474-.106-.08-.133-.157-.133-.183z" fill="#DD3735"></path>
      <path d="M12.71 36.892c-.105.184-.21.342-.315.527l-.158-.08c-.105.605-.474 1.132-.842 1.237.105.053.21.106.29.08.078-.027.13-.16.183-.238l.71-1.028.238-.396-.105-.105zM3.948 48.46c.132 0 .264.026.42.026 0-.105.133-.08.133-.184h.08c0 .132.026.237.026.37h-.552c-.027-.027-.132-.186-.106-.212zm-.21-1.212c-.08-.08-.21-.158-.21-.237-.027-.104.052-.235.13-.367.054.184.08.342.132.527-.027.025-.053.052-.053.078zm.658-1.687c.105.266.21.556.316.82a.825.825 0 00-.21.105c-.105-.264-.237-.554-.342-.817a.652.652 0 01.237-.106zm58.58 25.194c.13-.052.288-.08.5-.13-.238.183-.422.315-.58.473-.027-.026-.053-.053-.08-.053.053-.105.106-.184.16-.29zM30.63 15.074c.157-.106.29-.185.447-.29l.052.052c-.16.21-.29.42-.475.685-.026-.183-.026-.29-.053-.42-.026 0 0 0 .027-.026zm7.71 13.333c.237-.106.474-.21.763-.343-.026.158-.026.264-.026.37a.927.927 0 00-.264-.054c-.158.027-.448.238-.58.264-.025 0 .106-.21.106-.237zm19.74 22.346c.052.263.552.395.052.658.08.055.157.08.236.134 0 .027-.026.08-.052.106-.053.025-.158.078-.21.05-.027 0-.08-.104-.08-.157 0-.237.027-.474.053-.79z" fill="#DD3735"></path>
    </g>
  </symbol>
  <symbol fill="none"
    xmlns="http://www.w3.org/2000/svg" viewBox="0 0 128 128" id="sass">
    <path fill-rule="evenodd" clip-rule="evenodd" d="M1.21924 56.156C1.21924 56.859 1.42624 57.323 1.54224 57.774C2.29824 60.707 3.92324 63.224 5.85124 65.52C8.59724 68.792 11.9602 71.426 15.4052 73.903C18.3932 76.051 21.4422 78.151 24.4422 80.283C24.9572 80.649 25.4442 81.07 26.0032 81.519C25.5222 81.779 25.1222 82.008 24.7062 82.219C20.7472 84.227 16.9382 86.478 13.4272 89.205C11.3112 90.849 9.26524 92.596 7.82024 94.879C5.49524 98.551 4.67224 102.463 6.40524 106.64C6.91124 107.86 7.68324 108.914 8.77224 109.693C9.12524 109.945 9.52124 110.195 9.93424 110.293C10.9922 110.542 12.0702 110.705 13.1412 110.902L16.1742 110.9C19.5282 110.601 22.5812 109.452 25.3402 107.548C29.6522 104.572 32.5572 100.582 33.8062 95.461C34.7142 91.739 34.7512 88.013 33.6812 84.308C33.5788 83.9648 33.4607 83.6264 33.3272 83.294C33.1972 82.961 33.0442 82.637 32.8642 82.222L39.7402 78.268L39.8432 78.356C39.7182 78.765 39.5852 79.173 39.4722 79.586C38.6552 82.57 38.1122 85.606 38.3072 88.703C38.5152 92.003 39.4362 95.092 41.3682 97.849C42.9302 100.079 46.6522 100.162 48.3122 97.924C48.9012 97.129 49.4722 96.298 49.9012 95.411C51.0222 93.096 52.0602 90.74 53.1312 88.4L53.3182 87.972C53.2412 89.08 53.1512 90.053 53.1102 91.027C53.0462 92.548 53.1352 94.06 53.6552 95.507C54.1002 96.745 54.8572 97.67 56.2752 97.833C57.2452 97.944 58.0182 97.5 58.7312 96.937C59.8358 96.0641 60.7514 94.9757 61.4222 93.738C63.3232 90.247 65.2752 86.777 66.9982 83.198C68.8622 79.327 70.4922 75.343 72.2232 71.406L72.5092 70.708C72.9182 72.315 73.2032 73.889 73.7282 75.379C74.3382 77.108 75.0932 78.796 75.9152 80.437C76.3042 81.212 76.2592 81.715 75.7202 82.365C73.4642 85.085 71.2472 87.838 69.0282 90.588C68.5372 91.195 68.0482 91.813 67.6392 92.476C67.3911 92.8947 67.228 93.3582 67.1592 93.84C67.0904 94.2836 67.196 94.7366 67.4538 95.104C67.7116 95.4715 68.1017 95.7248 68.5422 95.811C69.4313 96.0025 70.343 96.0675 71.2502 96.004C74.3472 95.776 77.1592 94.689 79.6452 92.847C82.8662 90.461 83.9002 87.205 83.1202 83.346C82.9092 82.299 82.5362 81.281 82.1732 80.272C82.0102 79.817 81.9992 79.498 82.2962 79.074C84.8712 75.397 87.0712 71.496 89.1172 67.505C89.1982 67.348 89.2812 67.191 89.4232 67.023C90.0862 70.473 91.0842 73.798 92.8722 76.815C91.9602 77.694 91.0572 78.491 90.2402 79.369C88.4412 81.303 86.8812 83.403 86.0672 85.964C85.7172 87.068 85.4482 88.19 85.6042 89.369C85.8462 91.2 87.3462 92.39 89.1472 91.973C93.0012 91.081 96.3282 89.265 98.7592 86.048C100.395 83.882 100.544 81.466 99.8592 78.935C99.6712 78.247 99.4482 77.57 99.2082 76.781C100.159 76.486 101.086 76.132 102.045 75.913C107.024 74.777 111.949 74.975 116.747 76.773C119.548 77.823 121.811 79.58 123.153 82.344C124.792 85.723 123.886 88.929 120.701 91.065C120.404 91.264 120.064 91.421 119.818 91.67C119.739 91.7613 119.681 91.8681 119.645 91.9834C119.61 92.0988 119.599 92.2202 119.613 92.34C119.634 92.463 119.959 92.617 120.146 92.615C121.193 92.607 122.042 92.058 122.857 91.494C124.899 90.081 126.389 88.18 126.71 85.677L126.773 85.489L126.696 83.859C126.665 83.765 126.719 83.672 126.712 83.601C126.278 79.956 124.331 77.129 121.499 74.913C118.219 72.348 114.346 71.292 110.25 71.125C106.928 70.982 103.61 71.4927 100.485 72.628C99.5882 72.953 98.6992 73.338 97.7972 73.701C97.6762 73.482 97.5462 73.272 97.4392 73.055C96.5132 71.159 95.3912 69.347 95.1432 67.173C94.9672 65.629 94.7512 64.087 95.1182 62.56C95.4712 61.091 95.9312 59.647 96.3642 58.198C96.5872 57.452 96.4302 57.034 95.7182 56.698C95.4702 56.5743 95.2054 56.4874 94.9322 56.44C93.1822 56.186 91.4562 56.331 89.7612 56.824C89.1612 56.999 88.7252 57.335 88.5922 57.999C88.5162 58.38 88.3612 58.745 88.2532 59.121C87.8102 60.684 87.4962 62.277 86.7802 63.766C84.9862 67.501 82.9382 71.095 80.8422 74.663C80.6152 75.048 80.3762 75.426 80.0902 75.893C79.3542 74.353 78.5692 72.971 78.3312 71.351C78.0622 69.519 77.8502 67.69 78.3062 65.872C78.6452 64.516 79.0882 63.185 79.4962 61.847C79.6892 61.211 79.6002 60.877 79.0242 60.542C78.7332 60.373 78.4042 60.223 78.0762 60.174C76.2818 59.9007 74.4484 60.0507 72.7222 60.612C72.1792 60.788 71.8942 61.139 71.7282 61.699C71.2402 63.351 70.8242 65.043 70.1392 66.614C67.3652 72.974 64.5112 79.301 61.6602 85.627C61.0652 86.948 60.3682 88.223 59.6972 89.509C59.5272 89.835 59.2792 90.122 59.0672 90.428C58.8972 90.227 58.8312 90.089 58.8322 89.951C58.8372 89.138 58.7402 88.301 58.8952 87.515C59.3712 85.1378 59.8973 82.771 60.4732 80.416C60.9432 78.47 61.4902 76.542 62.0112 74.609C62.1862 73.962 62.1892 73.357 61.7242 72.813C60.9432 71.902 59.3112 71.702 58.3432 72.404L57.9152 72.646L57.9982 71.956C58.2022 70.477 58.2432 69.003 57.8372 67.546C57.3312 65.73 56.0352 64.685 54.1512 64.743C53.2732 64.77 52.3512 64.92 51.5382 65.24C48.1192 66.58 45.4902 68.953 43.2522 71.808C43.0448 72.0731 42.7876 72.2952 42.4952 72.462C39.6022 74.066 36.7002 75.65 33.7992 77.24L30.5702 79.009C29.7042 78.183 28.9172 77.326 28.0242 76.599C25.2972 74.375 22.5262 72.206 19.7802 70.007C17.3462 68.058 14.9882 66.028 13.1842 63.447C11.8422 61.527 10.9772 59.426 10.8942 57.052C10.7892 54.027 11.6472 51.263 13.1872 48.69C15.1572 45.398 17.8442 42.756 20.7982 40.363C23.9232 37.833 27.3032 35.685 30.8062 33.724C35.7072 30.981 40.7482 28.553 46.1532 26.95C51.6952 25.306 57.3182 24.365 63.1182 25.021C65.3982 25.279 67.6122 25.801 69.6452 26.916C71.2022 27.769 72.4792 28.886 73.0732 30.632C73.6592 32.35 73.6412 34.091 73.2352 35.836C72.4102 39.37 70.4752 42.283 68.0402 44.886C64.0462 49.153 59.1742 52.058 53.6892 53.977C50.5355 55.0818 47.2543 55.7817 43.9242 56.06C41.1952 56.289 38.5232 56.047 35.9392 55.098C34.2282 54.469 32.7382 53.507 31.5402 52.111C31.3262 51.861 31.0522 51.59 30.6532 51.824C30.2622 52.054 30.1932 52.426 30.3242 52.803C30.5432 53.429 30.7452 54.081 31.0862 54.641C31.9432 56.046 33.1932 57.065 34.5692 57.939C37.2122 59.62 40.1662 60.185 43.2292 60.316C47.8772 60.517 52.4122 59.823 56.8832 58.576C63.2662 56.796 68.8162 53.652 73.2672 48.692C76.9732 44.562 79.6202 39.901 80.1872 34.273C80.4642 31.526 80.1692 28.835 78.8832 26.329C77.4882 23.614 75.2702 21.595 72.6182 20.204C68.7562 18.179 64.5882 17 60.2862 17H55.9762C50.7662 17 45.7292 18.493 40.8332 20.274C37.1272 21.623 33.4932 23.215 29.9652 24.977C22.2822 28.816 15.1272 33.445 9.25024 39.81C6.32224 42.981 3.84324 46.48 2.41724 50.6C1.98684 51.8301 1.61608 53.0802 1.30624 54.346M29.1452 90.359C28.8122 94.818 26.7912 98.433 23.4882 101.361C21.6302 103.007 19.4992 104.179 17.0172 104.591C16.1172 104.74 15.1962 104.776 14.3232 104.403C13.0782 103.871 12.7992 102.766 12.7752 101.589C12.7382 99.713 13.3952 98.017 14.2962 96.403C15.4722 94.299 17.1962 92.695 19.0372 91.197C21.9372 88.836 25.0832 86.838 28.3052 84.952L28.5482 84.852C29.0462 86.692 29.2832 88.509 29.1452 90.359ZM54.3032 70.98C54.0682 72.404 53.7742 73.829 53.3582 75.209C51.9202 79.986 50.0732 84.615 48.0762 89.182C47.7072 90.027 47.1702 90.798 46.7032 91.599C46.6238 91.7221 46.5287 91.8344 46.4202 91.933C45.8422 92.504 45.2942 92.474 45.0022 91.727C44.6622 90.859 44.4532 89.93 44.2732 89.011C44.1522 88.394 44.1812 87.746 44.1432 87.114C44.1822 82.62 45.5532 78.536 47.8792 74.734C48.8382 73.166 49.8822 71.672 51.4772 70.68C51.9734 70.3715 52.5103 70.1339 53.0722 69.974C53.9222 69.735 54.4442 70.128 54.3032 70.98ZM71.4672 92.848L77.6362 85.645C77.8932 88.32 73.3462 93.66 71.4672 92.848ZM91.1702 88.001C90.7342 88.251 90.2592 88.431 89.8122 88.662C89.4032 88.874 89.2682 88.66 89.2562 88.308C89.2502 88.0643 89.2816 87.8212 89.3492 87.587C90.1822 84.649 91.7152 82.141 93.9962 80.101L94.1562 80.019C95.2412 83.054 93.9872 86.387 91.1702 88.001Z" fill="#CB6699"></path>
  </symbol>
  <symbol fill="none"
    xmlns="http://www.w3.org/2000/svg" viewBox="0 0 129 128" id="tailwindcss">
    <path d="M64.0039 25.602C46.9369 25.602 36.2739 34.132 32.0039 51.199C38.4019 42.668 45.8709 39.469 54.4019 41.602C59.2729 42.816 62.7539 46.348 66.6089 50.262C72.8829 56.629 80.1449 64 96.0039 64C113.07 64 123.734 55.469 128.004 38.398C121.605 46.934 114.137 50.133 105.605 48C100.735 46.785 97.2579 43.254 93.3979 39.34C87.1279 32.973 79.8679 25.602 64.0039 25.602ZM32.0039 64C14.9379 64 4.27391 72.531 0.00390625 89.602C6.40191 81.066 13.8699 77.867 22.4019 80C27.2729 81.215 30.7539 84.746 34.6089 88.66C40.8829 95.027 48.1449 102.398 64.0039 102.398C81.0699 102.398 91.7339 93.868 96.0039 76.801C89.6049 85.332 82.1369 88.531 73.6049 86.398C68.7349 85.184 65.2579 81.652 61.3979 77.738C55.1279 71.371 47.8679 64 32.0039 64Z" fill="#38B2AC"></path>
  </symbol>
  <symbol fill="none"
    xmlns="http://www.w3.org/2000/svg" viewBox="0 0 128 128" id="typescript">
    <path d="M22.6699 47H122.34V120.67H22.6699V47Z" fill="white"></path>
    <path d="M1.5 63.91V126.41H126.5V1.41H1.5V63.91ZM102.23 58.91C105.224 59.6048 107.945 61.1706 110.05 63.41C111.209 64.6165 112.216 65.9597 113.05 67.41C113.05 67.57 107.65 71.22 104.36 73.26C104.24 73.34 103.76 72.82 103.23 72.03C102.629 70.9937 101.776 70.1264 100.75 69.5091C99.7231 68.8918 98.557 68.5446 97.36 68.5C93.57 68.24 91.13 70.23 91.15 73.5C91.1187 74.3141 91.3051 75.1219 91.69 75.84C92.52 77.57 94.07 78.6 98.93 80.7C107.88 84.55 111.71 87.09 114.09 90.7C116.75 94.7 117.34 101.16 115.54 105.94C113.54 111.14 108.64 114.67 101.71 115.84C98.5448 116.203 95.3468 116.169 92.19 115.74C87.3516 114.942 82.8948 112.619 79.47 109.11C78.32 107.84 76.08 104.53 76.22 104.29C76.5851 104.019 76.9694 103.775 77.37 103.56L82 101L85.59 98.92L86.34 100.03C87.6057 101.841 89.2166 103.383 91.08 104.57C95.08 106.67 100.54 106.38 103.24 103.95C104.147 103.06 104.712 101.879 104.838 100.615C104.964 99.3505 104.643 98.0819 103.93 97.03C102.93 95.64 100.93 94.47 95.34 92.03C88.89 89.25 86.11 87.53 83.57 84.79C81.9843 82.9819 80.8136 80.8486 80.14 78.54C79.6375 75.9025 79.5633 73.2012 79.92 70.54C81.25 64.31 85.92 59.96 92.74 58.67C95.8984 58.2792 99.0977 58.3669 102.23 58.93V58.91ZM72.89 64.15V69.27H56.66V115.5H45.15V69.26H28.88V64.26C28.8293 62.5358 28.8694 60.81 29 59.09C29.08 59 39 59 51 59H72.83L72.89 64.15Z" fill="#007ACC"></path>
  </symbol>
  <symbol fill="none"
    xmlns="http://www.w3.org/2000/svg" viewBox="0 0 128 128" id="vuejs">
    <path d="M25.9971 9.39301L48.9991 9.40201L64.0351 34.36L79.0181 9.40401L102 9.39801L64.1501 75.053L25.9971 9.39301Z" fill="#35495E"></path>
    <path d="M0.910156 9.56897L25.9772 9.39697L64.1272 75.056L101.98 9.40097L127.09 9.42697L64.1242 117.487L0.910156 9.56897Z" fill="#41B883"></path>
  </symbol>
  <symbol xmlns="http://www.w3.org/2000/svg" viewBox="0 0 1000 1000" id="vue-use">>
    <path d="M735.07,67.05V531.58c0,129.83-105.24,235.07-235.07,235.07S264.93,661.41,264.93,531.58V67.05h166.3V531.58a68.77,68.77,0,1,0,137.54,0V67.05Z" fill="#35495e"></path>
    <path d="M901.36,67.05V531.58C901.36,753.25,721.67,933,500,933S98.64,753.25,98.64,531.58V67.05H264.93V531.58c0,129.83,105.25,235.07,235.07,235.07S735.07,661.41,735.07,531.58V67.05Z" fill="#41b883"></path>
  </symbol>

  <symbol xmlns="http://www.w3.org/2000/svg"
    xmlns:xlink="http://www.w3.org/1999/xlink" viewBox="0 0 319 477" id="pinia">
    <g fill="none" fill-rule="evenodd" transform="translate(-34 -24)">
      <g transform="matrix(.99254615 .12186934 -.12186934 .99254615 33.922073 .976691)">
        <path d="m103.950535 258.274149c44.361599-4.360825 60.014503-40.391282 65.353094-94.699444s-30.93219-103.451001-46.020347-101.9678079c-15.088156 1.4831932-63.0385313 58.9051239-68.3771222 113.2132869-5.3385908 54.308162 4.6827754 87.814791 49.0443752 83.453965z" fill="url(#b)" transform="matrix(.70710678 -.70710678 .70710678 .70710678 -80.496332 125.892944)"></path>
        <path d="m275.876752 258.273992c44.3616 4.360826 53.167133-29.265322 47.828542-83.573485-5.338591-54.308162-52.073133-111.6105744-67.16129-113.0937675-15.088156-1.4831931-52.57477 47.5401275-47.236179 101.8482895s22.207328 90.458137 66.568927 94.818963z" fill="url(#c)" transform="matrix(.70710678 .70710678 -.70710678 .70710678 191.403399 -141.861963)"></path>
        <path d="m188.370027 216.876305c39.941834 0 50.95265-38.251987 50.95265-97.89874 0-59.6467532-37.367733-118.10125956-50.95265-118.10125956s-52.04735 58.45450636-52.04735 118.10125956c0 59.646753 12.105516 97.89874 52.04735 97.89874z" fill="url(#d)"></path>
      </g>
      <path d="m184.473473 501c83.118854 0 150.526527-24.145148 150.526527-133.645148s-67.407673-199.354852-150.526527-199.354852c-83.118855 0-150.473473 89.854852-150.473473 199.354852s67.354618 133.645148 150.473473 133.645148z" fill="url(#e)"></path>
      <ellipse cx="260.5" cy="335" fill="#eaadcc" rx="21.5" ry="10"></ellipse>
      <ellipse cx="102.5" cy="329" fill="#eaadcc" rx="21.5" ry="10" transform="matrix(.99254615 .12186934 -.12186934 .99254615 40.859033 -10.039292)"></ellipse>
      <g transform="matrix(-.99939083 .0348995 .0348995 .99939083 269.284825 271.027667)">
        <path d="m73.1046985 58.2728794c6.7372416 4.9130333 14.3132632 6.6640587 22.7280649 5.2530761 8.4148016-1.4109825 14.5054466-5.2535769 18.2719346-11.527783" stroke="#000" stroke-linecap="round" stroke-linejoin="round" stroke-width="6" transform="matrix(.9998477 .01745241 -.01745241 .9998477 1.026464 -1.624794)"></path>
        <path d="m154.501124 3c-5.937545 0-11.312782 2.40629805-15.203644 6.29680621-3.89094 3.89058529-6.29748 9.26545449-6.29748 15.20263179 0 5.9376888 2.406488 11.3127422 6.297291 15.2034272 3.890886 3.8907673 9.266197 6.2971348 15.203833 6.2971348 5.937109 0 11.311896-2.4063889 15.202387-6.2972348 3.890299-3.8906535 6.296489-9.2656636 6.296489-15.2033272 0-5.9371521-2.406242-11.3119781-6.296677-15.20253181-3.890469-3.89058674-9.265181-6.29690619-15.202199-6.29690619z" fill="#000"></path>
        <path d="m154 21c0-3.865549 3.135362-7 6.999413-7 3.866399 0 7.000587 3.134451 7.000587 7s-3.134188 7-7.000587 7c-3.864051-.0011735-6.999413-3.134451-6.999413-7z" fill="#fff"></path>
        <path d="m24.5 13c-5.9375292 0-11.312426 2.406268-15.20299427 6.2967181-3.89069464 3.8905765-6.29700573 9.2654765-6.29700573 15.2027199 0 5.9377549 2.40625962 11.3128391 6.29681766 15.2035153 3.89059104 3.8907092 9.26556184 6.2970467 15.20318234 6.2970467 5.9371249 0 11.3122514-2.406419 15.2030371-6.2973229 3.8905441-3.8906623 6.2969629-9.2656416 6.2969629-15.2032391 0-5.937086-2.4064703-11.3118811-6.297151-15.2024437-3.890763-3.8906448-9.2658154-6.2969943-15.202849-6.2969943z" fill="#000"></path>
        <g fill="#fff">
          <path d="m136 24.499438c0 10.2185232 8.282911 18.500562 18.501124 18.500562 10.217089 0 18.498876-8.2820388 18.498876-18.500562 0-10.2173992-8.281787-18.499438-18.498876-18.499438-10.218213 0-18.501124 8.2820388-18.501124 18.499438zm-6 0c0-13.5311954 10.96929-24.499438 24.501124-24.499438 13.530838 0 24.498876 10.9683711 24.498876 24.499438 0 13.5319607-10.967808 24.500562-24.498876 24.500562-13.532064 0-24.501124-10.9684728-24.501124-24.500562z" fill-rule="nonzero" stroke="#fff" stroke-width="3"></path>
          <path d="m6 34.499438c0 10.2185232 8.2817873 18.500562 18.5 18.500562 10.2170889 0 18.5-8.2820388 18.5-18.500562 0-10.2173992-8.2829111-18.499438-18.5-18.499438-10.2182127 0-18.5 8.2820388-18.5 18.499438zm-6 0c0-13.531297 10.9682681-24.499438 24.5-24.499438 13.5309398 0 24.5 10.9684728 24.5 24.499438 0 13.5318591-10.96883 24.500562-24.5 24.500562-13.531962 0-24.5-10.9683711-24.5-24.500562z" fill-rule="nonzero" stroke="#fff" stroke-width="3"></path>
          <path d="m24 31c0-3.865549 3.134451-7 7-7s7 3.134451 7 7-3.134451 7-7 7-7-3.134451-7-7z"></path>
        </g>
      </g>
      <g stroke-linecap="round" stroke-width="11">
        <g stroke="#ecb732">
          <path d="m70.5 377.5 74 77"></path>
          <path d="m134.5 386.5-47 50"></path>
        </g>
        <g stroke="#ecb732" transform="matrix(-1 0 0 1 298 377)">
          <path d="m.5.5 74 77"></path>
          <path d="m64.5 9.5-47 50"></path>
        </g>
        <g stroke="#ffc73b" transform="matrix(0 1 -1 0 215 207)">
          <path d="m.5.5 49 49"></path>
          <path d="m.5 10.5 49 49" transform="matrix(-1 0 0 1 50 0)"></path>
        </g>
      </g>
    </g>
  </symbol>
</svg>